<?xml version="1.0" encoding="utf-8"?>
<!-- Generator: Adobe Illustrator 24.2.3, SVG Export Plug-In . SVG Version: 6.00 Build 0)  -->
<svg version="1.1" id="Mode_Isolation" xmlns="http://www.w3.org/2000/svg" xmlns:xlink="http://www.w3.org/1999/xlink" x="0px"
	 y="0px" viewBox="0 0 84.8 84.8" style="enable-background:new 0 0 84.8 84.8;" xml:space="preserve">
<style type="text/css">
	.st0{fill:#FE1B55;}
	.st1{fill:#FFFFFF;}
</style>
<ellipse transform="matrix(0.7071 -0.7071 0.7071 0.7071 -17.5626 42.4)" class="st0" cx="42.4" cy="42.4" rx="42.4" ry="42.4"/>
<g>
	<path class="st1" d="M28.9,39.5l-7.1,3c-0.1,0-0.3,0.2-0.4,0.5c-0.1,0.3-0.1,0.6-0.1,0.8c0.2,0.5,1,0.7,1.2,0.6l7.1-3
		c0.1,0,0.2-0.2,0.3-0.4c0.1-0.3,0.1-0.5,0-0.8C29.7,39.6,29.1,39.4,28.9,39.5z"/>
	<path class="st1" d="M22.6,50.6l12-5.1c0.1,0,0.2-0.2,0.3-0.4c0.1-0.3,0.1-0.5,0-0.8c-0.2-0.4-0.7-0.7-0.9-0.7c-0.1,0-0.1,0-0.1,0
		l-12,5.1c-0.2,0.1-0.7,0.8-0.4,1.3C21.6,50.5,22.3,50.7,22.6,50.6z"/>
	<path class="st1" d="M33.4,50.3L33.4,50.3l-7.2,3c-0.2,0.1-0.7,0.8-0.4,1.3c0.1,0.2,0.3,0.4,0.6,0.5c0.2,0.1,0.5,0.1,0.6,0l7.1-3
		c0.1,0,0.2-0.2,0.3-0.4c0.1-0.3,0.1-0.6,0-0.8C34.2,50.5,33.7,50.3,33.4,50.3z"/>
	<path class="st1" d="M63.5,33.5c-0.1-0.6-0.3-1.1-0.8-1.4c-0.3-0.3-0.7-0.4-1.1-0.5l-25.5-2.4c-0.1,0-0.1,0-0.2,0
		c-0.5,0-1,0.2-1.4,0.5c-0.4,0.4-0.7,0.9-0.8,1.4c0,0.5,0.1,1,0.4,1.5l7,9.6l2,11.7c0.1,0.8,0.8,1.5,1.6,1.7
		c0.8,0.2,1.7-0.1,2.2-0.7l16.2-19.8C63.4,34.6,63.6,34,63.5,33.5z M45.2,53.9l-2.1-12.2c0-0.2-0.1-0.3-0.2-0.4l-7.2-10.1l26,2.3
		L45.2,53.9z"/>
</g>
</svg>
