<?xml version="1.0" encoding="utf-8"?>
<!-- Generator: Adobe Illustrator 24.2.3, SVG Export Plug-In . SVG Version: 6.00 Build 0)  -->
<svg version="1.1" id="Mode_Isolation" xmlns="http://www.w3.org/2000/svg" xmlns:xlink="http://www.w3.org/1999/xlink" x="0px"
	 y="0px" viewBox="0 0 48 43" style="enable-background:new 0 0 48 43;" xml:space="preserve">
<style type="text/css">
	.st0{fill-rule:evenodd;clip-rule:evenodd;fill:#FE1B55;}
	.st1{fill:#FE1B55;}
</style>
<path class="st0" d="M48,14.5C48,6.5,40.1,0,30.6,0c-7.1,0-13.4,3.5-16.1,8.9c0.8-0.3,1.9-0.3,2.7-0.3c2.5-3.8,7.6-6.5,13.4-6.5
	c8.4,0,15.3,5.6,15.3,12.4c0,3.2-1.6,6.4-4.6,8.9c-0.5,0.5-0.8,1.3-0.5,2.1c0.8,3.2,0.8,3.2,0.8,3.2c-4.6-1.9-4.6-1.9-4.6-1.9
	c0,0.8-0.3,1.6-0.3,2.1c8.2,3.2,8.2,3.2,8.2,3.2C42.6,25,42.6,25,42.6,25C45.8,22.3,48,18.5,48,14.5 M17.4,10.8
	C7.9,10.8,0,17.2,0,25.3c0,4,2.2,7.8,5.4,10.5C3.3,43,3.3,43,3.3,43c9.8-3.8,9.8-3.8,9.8-3.8c1.4,0.3,2.7,0.5,4.4,0.5
	c9.6,0,17.5-6.5,17.5-14.5C34.9,17.2,27,10.8,17.4,10.8 M17.4,37.6c-1.4,0-2.7-0.3-3.8-0.5c-0.3,0-0.6,0-0.6,0c-0.3,0-0.5,0-0.8,0.3
	c-5.7,2.1-5.7,2.1-5.7,2.1c0.8-3.2,0.8-3.2,0.8-3.2c0.3-0.8,0-1.6-0.5-2.1c-3-2.4-4.6-5.6-4.6-8.9c0-6.7,6.8-12.4,15.3-12.4
	c8.5,0,15.3,5.6,15.3,12.4C32.7,32,25.9,37.6,17.4,37.6"/>
<g>
	<path class="st1" d="M16,27.4c0-0.4,0.1-0.7,0.2-1s0.3-0.6,0.5-0.8c0.2-0.2,0.4-0.5,0.7-0.7c0.2-0.2,0.5-0.4,0.7-0.7
		s0.4-0.5,0.5-0.8c0.1-0.3,0.2-0.6,0.2-1c0-0.6-0.2-1.2-0.6-1.6c-0.4-0.4-0.9-0.6-1.5-0.6c-0.6,0-1.2,0.2-1.6,0.6
		c-0.4,0.4-0.7,0.9-0.8,1.5l-1.2-0.1c0.2-0.9,0.6-1.6,1.2-2.2c0.6-0.5,1.4-0.8,2.3-0.8c0.5,0,0.9,0.1,1.3,0.2
		c0.4,0.1,0.8,0.3,1.1,0.6c0.3,0.3,0.5,0.6,0.7,1c0.2,0.4,0.3,0.8,0.3,1.3c0,0.5-0.1,0.9-0.2,1.3c-0.1,0.3-0.3,0.7-0.5,0.9
		s-0.5,0.5-0.7,0.7s-0.5,0.4-0.7,0.7c-0.2,0.2-0.4,0.5-0.5,0.8c-0.1,0.3-0.2,0.7-0.2,1.1v1.2H16V27.4z M15.7,31.5
		c0-0.2,0.1-0.4,0.3-0.6c0.2-0.2,0.4-0.3,0.6-0.3c0.2,0,0.4,0.1,0.6,0.3c0.2,0.2,0.3,0.4,0.3,0.6s-0.1,0.4-0.3,0.6s-0.4,0.3-0.6,0.3
		c-0.2,0-0.4-0.1-0.6-0.3S15.7,31.8,15.7,31.5z"/>
</g>
</svg>
