<?xml version="1.0" encoding="utf-8"?>
<!-- Generator: Adobe Illustrator 24.2.3, SVG Export Plug-In . SVG Version: 6.00 Build 0)  -->
<svg version="1.1" id="Mode_Isolation" xmlns="http://www.w3.org/2000/svg" xmlns:xlink="http://www.w3.org/1999/xlink" x="0px"
	 y="0px" viewBox="0 0 45.9 34" style="enable-background:new 0 0 45.9 34;" xml:space="preserve">
<style type="text/css">
	.st0{fill-rule:evenodd;clip-rule:evenodd;fill:#A8A8A8;}
</style>
<path class="st0" d="M31,32.9c0-11.7,0-11.7,0-11.7c0-0.5-0.5-1.1-1.1-1.1s-1.1,0.5-1.1,1.1c0,10.6,0,10.6,0,10.6
	c-27.8,0-27.8,0-27.8,0c0-29.8,0-29.8,0-29.8c27.8,0,27.8,0,27.8,0c0,10.6,0,10.6,0,10.6c0,0.5,0.5,1.1,1.1,1.1s1.1-0.5,1.1-1.1
	c0-11.7,0-11.7,0-11.7C31,0.5,30.4,0,29.9,0C0,0,0,0,0,0c-0.5,0-1.1,0.5-1.1,1.1c0,31.9,0,31.9,0,31.9c0,0.5,0.5,1.1,1.1,1.1
	c29.9,0,29.9,0,29.9,0C30.4,34,31,33.5,31,32.9 M35.3,8.5c0,0.3,0,0.5,0.3,0.8c6.7,6.6,6.7,6.6,6.7,6.6c-33.6,0-33.6,0-33.6,0
	c-0.5,0-1.1,0.5-1.1,1.1s0.5,1.1,1.1,1.1c33.6,0,33.6,0,33.6,0c-6.7,6.6-6.7,6.6-6.7,6.6c-0.3,0.3-0.3,0.5-0.3,0.8
	c0,0.5,0.5,1.1,1.1,1.1c0.3,0,0.5,0,0.8-0.3c8.5-8.5,8.5-8.5,8.5-8.5c0.3-0.3,0.3-0.5,0.3-0.8s0-0.5-0.3-0.8
	c-8.5-8.5-8.5-8.5-8.5-8.5c-0.3-0.3-0.5-0.3-0.8-0.3C35.8,7.4,35.3,8,35.3,8.5"/>
</svg>
