<?xml version="1.0" encoding="utf-8"?>
<!-- Generator: Adobe Illustrator 24.2.3, SVG Export Plug-In . SVG Version: 6.00 Build 0)  -->
<svg version="1.1" id="Mode_Isolation" xmlns="http://www.w3.org/2000/svg" xmlns:xlink="http://www.w3.org/1999/xlink" x="0px"
	 y="0px" viewBox="0 0 84.8 84.8" style="enable-background:new 0 0 84.8 84.8;" xml:space="preserve">
<style type="text/css">
	.st0{fill-rule:evenodd;clip-rule:evenodd;fill:#FE1B55;}
	.st1{fill:#FFFFFF;}
</style>
<g>
	<circle class="st0" cx="42.4" cy="42.4" r="42.4"/>
</g>
<g>
	<path class="st1" d="M39.6,24.1c0-0.8,0.3-1.4,0.8-1.9c0.5-0.5,1.2-0.8,1.9-0.8c0.8,0,1.4,0.3,1.9,0.8c0.5,0.5,0.8,1.2,0.8,1.9
		c0,0.8-0.3,1.4-0.8,1.9c-0.5,0.5-1.2,0.8-1.9,0.8c-0.8,0-1.4-0.3-1.9-0.8C39.9,25.6,39.6,24.9,39.6,24.1z M40.6,35.3h3.7v28.1h-3.7
		V35.3z"/>
</g>
</svg>
