<?xml version="1.0" encoding="utf-8"?>
<!-- Generator: Adobe Illustrator 24.2.3, SVG Export Plug-In . SVG Version: 6.00 Build 0)  -->
<svg version="1.1" id="Mode_Isolation" xmlns="http://www.w3.org/2000/svg" xmlns:xlink="http://www.w3.org/1999/xlink" x="0px"
	 y="0px" viewBox="0 0 84.8 84.8" style="enable-background:new 0 0 84.8 84.8;" xml:space="preserve">
<style type="text/css">
	.st0{fill:#A8A8A8;}
</style>
<g>
	<path class="st0" d="M42.4,2c22.3,0,40.4,18.1,40.4,40.4S64.7,82.8,42.4,82.8S2,64.7,2,42.4S20.1,2,42.4,2 M42.4,0
		C19,0,0,19,0,42.4s19,42.4,42.4,42.4s42.4-19,42.4-42.4S65.8,0,42.4,0L42.4,0z"/>
</g>
<g>
	<path class="st0" d="M39.6,24.1c0-0.8,0.3-1.4,0.8-1.9c0.5-0.5,1.2-0.8,1.9-0.8c0.8,0,1.4,0.3,1.9,0.8c0.5,0.5,0.8,1.2,0.8,1.9
		c0,0.8-0.3,1.4-0.8,1.9c-0.5,0.5-1.2,0.8-1.9,0.8c-0.8,0-1.4-0.3-1.9-0.8C39.9,25.6,39.6,24.9,39.6,24.1z M40.6,35.3h3.7v28.1h-3.7
		V35.3z"/>
</g>
</svg>
