<?xml version="1.0" encoding="utf-8"?>
<!-- Generator: Adobe Illustrator 24.2.3, SVG Export Plug-In . SVG Version: 6.00 Build 0)  -->
<svg version="1.1" id="Calque_1" xmlns="http://www.w3.org/2000/svg" xmlns:xlink="http://www.w3.org/1999/xlink" x="0px" y="0px"
	 viewBox="0 0 42.1 26.4" style="enable-background:new 0 0 42.1 26.4;" xml:space="preserve">
<style type="text/css">
	.st0{fill:#FFFFFF;}
</style>
<g>
	<path class="st0" d="M7.5,10.3l-7.1,3c-0.1,0-0.3,0.2-0.4,0.5c-0.1,0.3-0.1,0.6-0.1,0.8c0.2,0.5,1,0.7,1.2,0.6l7.1-3
		c0.1,0,0.2-0.2,0.3-0.4c0.1-0.3,0.1-0.5,0-0.8C8.3,10.4,7.7,10.2,7.5,10.3z"/>
	<path class="st0" d="M1.2,21.4l12-5.1c0.1,0,0.2-0.2,0.3-0.4c0.1-0.3,0.1-0.5,0-0.8c-0.2-0.4-0.7-0.7-0.9-0.7c-0.1,0-0.1,0-0.1,0
		l-12,5.1c-0.2,0.1-0.7,0.8-0.4,1.3C0.2,21.3,0.9,21.5,1.2,21.4z"/>
	<path class="st0" d="M12,21.1c0,0-0.1,0-0.1,0l-7.1,3c-0.2,0.1-0.7,0.8-0.4,1.3c0.1,0.2,0.3,0.4,0.6,0.5C5.2,26,5.5,26,5.6,25.9
		l7.1-3c0.1,0,0.2-0.2,0.3-0.4c0.1-0.3,0.1-0.6,0-0.8C12.8,21.3,12.3,21.1,12,21.1z"/>
	<path class="st0" d="M42.1,4.3c-0.1-0.6-0.3-1.1-0.8-1.4c-0.3-0.3-0.7-0.4-1.1-0.5L14.7,0c-0.1,0-0.1,0-0.2,0c-0.5,0-1,0.2-1.4,0.5
		c-0.4,0.4-0.7,0.9-0.8,1.4c0,0.5,0.1,1,0.4,1.5l7,9.6l2,11.7c0.1,0.8,0.8,1.5,1.6,1.7c0.8,0.2,1.7-0.1,2.2-0.7L41.7,5.9
		C42,5.4,42.2,4.8,42.1,4.3z M23.8,24.7l-2.1-12.2c0-0.2-0.1-0.3-0.2-0.4L14.3,2l26,2.3L23.8,24.7z"/>
</g>
</svg>
