<?xml version="1.0" encoding="utf-8"?>
<!-- Generator: Adobe Illustrator 24.2.3, SVG Export Plug-In . SVG Version: 6.00 Build 0)  -->
<svg version="1.1" id="Mode_Isolation" xmlns="http://www.w3.org/2000/svg" xmlns:xlink="http://www.w3.org/1999/xlink" x="0px"
	 y="0px" viewBox="0 0 34 19.7" style="enable-background:new 0 0 34 19.7;" xml:space="preserve">
<style type="text/css">
	.st0{fill:#FFFFFF;}
</style>
<path class="st0" d="M24.2,6.4c-0.3,0.3-0.7,0.7-1,1c-0.1,0.1-0.3,0.3-0.4,0.4c-0.6,0.6-1.1,1.1-1.6,1.6c-0.7,0.7-1.7,1.7-2.4,2.4
	c-0.6,0.6-1.1,1.1-1.6,1.6c-0.6-0.6-1.1-1.1-1.6-1.6c-0.1-0.1-0.1-0.1-0.2-0.2c-0.1-0.1-0.3-0.3-0.4-0.4c-0.9-0.9-1.8-1.8-2.5-2.5
	c-1-1-1.7-1.7-2.4-2.4C4.6,0.9,4.6,0.9,4.6,0.9c-1-1-2.9-1-3.9,0s-1,2.9,0,3.9c1.9,1.9,3.7,3.7,5.4,5.4c0.3,0.3,0.7,0.7,1,1
	c0.1,0.1,0.3,0.3,0.4,0.4c0.6,0.6,1.1,1.1,1.6,1.6c0.7,0.7,1.7,1.7,2.4,2.4C15,19,15,19,15,19c0.5,0.5,1.3,0.7,2,0.7
	c0.8,0,1.5-0.2,2-0.7c1.2-1.2,2.4-2.4,3.4-3.4c0.1-0.1,0.1-0.1,0.2-0.2c0.1-0.1,0.3-0.3,0.4-0.4c0.9-0.9,1.8-1.8,2.5-2.5
	c1-1,1.7-1.7,2.4-2.4c5.4-5.4,5.4-5.4,5.4-5.4c1-1,1-2.9,0-3.9s-2.9-1-3.9,0C27.5,2.9,25.8,4.6,24.2,6.4z"/>
</svg>
