<?xml version="1.0" encoding="utf-8"?>
<!-- Generator: Adobe Illustrator 24.2.3, SVG Export Plug-In . SVG Version: 6.00 Build 0)  -->
<svg version="1.1" id="Mode_Isolation" xmlns="http://www.w3.org/2000/svg" xmlns:xlink="http://www.w3.org/1999/xlink" x="0px"
	 y="0px" viewBox="0 0 84.8 84.8" style="enable-background:new 0 0 84.8 84.8;" xml:space="preserve">
<style type="text/css">
	.st0{fill:#A8A8A8;}
</style>
<g>
	<path class="st0" d="M42.4,2c22.3,0,40.4,18.1,40.4,40.4S64.7,82.8,42.4,82.8S2,64.7,2,42.4S20.1,2,42.4,2 M42.4,0
		C19,0,0,19,0,42.4s19,42.4,42.4,42.4s42.4-19,42.4-42.4S65.8,0,42.4,0L42.4,0z"/>
</g>
<g>
	<path class="st0" d="M41,47.6c0-1.3,0.2-2.4,0.7-3.3c0.4-1,1-1.8,1.7-2.6c0.7-0.8,1.4-1.5,2.2-2.2c0.8-0.7,1.5-1.4,2.2-2.2
		c0.7-0.8,1.2-1.6,1.7-2.6c0.4-0.9,0.7-2,0.7-3.3c0-2.1-0.6-3.7-1.8-5c-1.2-1.3-2.8-1.9-4.9-1.9c-2,0-3.7,0.6-5,1.8
		c-1.3,1.2-2.1,2.8-2.6,4.8L32,30.7c0.5-2.9,1.8-5.2,3.8-6.9c2-1.6,4.5-2.4,7.3-2.4c1.5,0,2.9,0.2,4.2,0.7c1.3,0.4,2.4,1.1,3.4,1.9
		c0.9,0.8,1.7,1.9,2.2,3.1c0.5,1.2,0.8,2.6,0.8,4.2c0,1.6-0.2,3-0.7,4.1c-0.5,1.1-1,2.1-1.7,2.9c-0.7,0.8-1.4,1.6-2.2,2.3
		c-0.8,0.7-1.5,1.4-2.2,2.2c-0.7,0.7-1.3,1.6-1.7,2.5c-0.5,0.9-0.7,2.1-0.7,3.4v3.7H41V47.6z M40,60.6c0-0.8,0.3-1.4,0.8-2
		c0.5-0.5,1.2-0.8,2-0.8c0.8,0,1.4,0.3,2,0.8c0.5,0.5,0.8,1.2,0.8,2c0,0.8-0.3,1.4-0.8,2c-0.5,0.5-1.2,0.8-2,0.8
		c-0.8,0-1.4-0.3-2-0.8C40.3,62.1,40,61.4,40,60.6z"/>
</g>
</svg>
