<?xml version="1.0" encoding="utf-8"?>
<!-- Generator: Adobe Illustrator 24.2.3, SVG Export Plug-In . SVG Version: 6.00 Build 0)  -->
<svg version="1.1" id="OBJECTS" xmlns="http://www.w3.org/2000/svg" xmlns:xlink="http://www.w3.org/1999/xlink" x="0px" y="0px"
	 viewBox="0 0 44.2 25.7" style="enable-background:new 0 0 44.2 25.7;" xml:space="preserve">
<style type="text/css">
	.st0{fill:#00E691;}
	.st1{fill:#00B371;}
	.st2{fill:#00FFA2;}
	.st3{fill:#00CC81;}
</style>
<path class="st0" d="M24.8,3.3c0,2.1,0,4.1,0,5.8s0,2.9,0,4.1c0,9.1,0,9.1,0,9.1c0,1.7,1.7,3.3,3.3,3.3c1.7,0,3.3-1.7,3.3-3.3
	c0-3.3,0-6.2,0-9.1c0-1.2,0-2.9,0-4.1c0-5.8,0-5.8,0-5.8c0-1.7-1.7-3.3-3.3-3.3C26.5,0,24.8,1.7,24.8,3.3z"/>
<path class="st1" d="M3.7,1.8C2,1.8,0.4,3.5,0.4,5.1c0,2.1,0,4.1,0,5.8c0,0.6,0,1.2,0,1.7c0,7.5,0,7.5,0,7.5c0,1.7,1.7,3.3,3.3,3.3
	S7,21.8,7,20.2c0-2.7,0-5.1,0-7.5c0-0.6,0-1.2,0-1.7c0-5.8,0-5.8,0-5.8C7,3.5,5.3,1.8,3.7,1.8z"/>
<path class="st2" d="M40.6,2.8c-1.7,0-3.3,1.7-3.3,3.3c0,2,0,3.9,0,5.5c0,0.1,0,0.2,0,0.3c0,0.6,0,1.2,0,1.7c0,5.5,0,5.5,0,5.5
	c0,1.7,1.7,3.3,3.3,3.3s3.3-1.7,3.3-3.3c0-1.9,0-3.8,0-5.5c0-0.6,0-1.2,0-1.7c0-0.1,0-0.2,0-0.3c0-5.5,0-5.5,0-5.5
	C43.9,4.5,42.2,2.8,40.6,2.8z"/>
<path class="st3" d="M16,3.8c-1.7,0-3.3,1.7-3.3,3.3c0,1.2,0,2.4,0,3.5c0,0.8,0,1.6,0,2.3c0,0.6,0,1.2,0,1.7c0,3.5,0,3.5,0,3.5
	c0,1.7,1.7,3.3,3.3,3.3s3.3-1.7,3.3-3.3c0-1.2,0-2.4,0-3.5c0-0.6,0-1.2,0-1.7c0-0.9,0-1.6,0-2.3c0-3.5,0-3.5,0-3.5
	C19.3,5.5,17.6,3.8,16,3.8z"/>
</svg>
