<?xml version="1.0" encoding="utf-8"?>
<!-- Generator: Adobe Illustrator 24.2.3, SVG Export Plug-In . SVG Version: 6.00 Build 0)  -->
<svg version="1.1" id="Layer_5" xmlns="http://www.w3.org/2000/svg" xmlns:xlink="http://www.w3.org/1999/xlink" x="0px" y="0px"
	 viewBox="0 0 236.3 318.9" style="enable-background:new 0 0 236.3 318.9;" xml:space="preserve">
<style type="text/css">
	.st0{fill:#A8A8A8;}
</style>
<g>
	<path class="st0" d="M86.6,73.9c-3.7,0-6.8-3-6.8-6.8V28.9c0-3.7,3-6.8,6.8-6.8c3.7,0,6.8,3,6.8,6.8v38.2
		C93.3,70.8,90.3,73.9,86.6,73.9z"/>
</g>
<g>
	<path class="st0" d="M137.9,87c-3.7,0-6.8-3-6.8-6.8V39.8c0-3.7,3-6.8,6.8-6.8c3.7,0,6.8,3,6.8,6.8v40.4
		C144.6,83.9,141.6,87,137.9,87z"/>
</g>
<g>
	<path class="st0" d="M183.7,92.2c-3.7,0-6.8-3-6.8-6.8V59c0-3.7,3-6.8,6.8-6.8c3.7,0,6.8,3,6.8,6.8v26.4
		C190.5,89.2,187.4,92.2,183.7,92.2z"/>
</g>
<g>
	<path class="st0" d="M40.4,151.1c-3.7,0-6.8-3-6.8-6.8V85.7c0-3.7,3-6.8,6.8-6.8c3.7,0,6.8,3,6.8,6.8v58.6
		C47.1,148,44.1,151.1,40.4,151.1z"/>
</g>
<path class="st0" d="M203.7,42.6c-5.2,0-10.2,1.2-14.7,3.6c-4.2-13.2-16.5-22.8-31.1-22.8c-4.8,0-9.5,1.1-13.8,3.1
	C141.2,11.4,127.9,0,112,0c-12.1,0-23,6.9-28.5,17.1c-5.1-3.3-11.1-5-17.3-5c-18,0-32.6,14.6-32.6,32.6v30.7
	c-1.3-0.2-2.6-0.3-3.8-0.3c-6,0-11.3,2.6-14.4,7.2C10.4,89.5,0,104.7,0,139.5c0,34.9,13.8,62.5,27.2,89.3c3.7,7.4,7.3,14.7,10.6,22
	c1.2,3.8,23.1,68.1,92.3,68.1c71.3,0,91.8-66.7,91.8-66.7l0,0c7.7-17.8,14.2-37.3,14.2-59.1v-52.1c0.1-0.5,0.1-0.9,0.1-1.4V75.2
	C236.3,57.2,221.6,42.6,203.7,42.6z M222.7,139.2c0,0.3-0.1,0.6-0.1,0.9c0,0.1,0,0.2,0,0.4V193c0,25-10.1,47.8-19.6,68.1
	c-4.8,9.6-25.7,44.8-72.8,44.8c-54.5,0-74-47.2-74-47.2l-6.7-15.2l-0.1,0.1c-3.2-7.1-6.7-14-10.1-20.8
	c-13.3-26.5-25.8-51.5-25.8-83.2c0-30.6,8.8-43.5,13-49.6c0.8-1.1,2.2-1.3,3.3-1.3c2.1,0,4.4,0.9,6.2,2.4c1.9,1.6,4.5,2,6.8,1.1
	c2.3-0.9,3.9-3,4.3-5.4c0-0.3,0.1-0.6,0.1-0.9v-41c0-10.5,8.6-19.1,19.1-19.1c5.9,0,11.3,2.7,15,7.5c1.7,2.1,4.4,3.1,7.1,2.4
	c2.6-0.7,4.6-2.9,5-5.6c1.3-9.3,9.4-16.4,18.8-16.4c10.5,0,19.1,8.6,19.1,19.1v7.2c0,2.9,1.8,5.4,4.5,6.4c2.7,1,5.7,0.1,7.5-2.1
	c3.7-4.5,9.1-7.1,14.7-7.1c10.5,0,19.1,8.6,19.1,19.1v3c0,2.9,1.8,5.4,4.5,6.4c2.7,0.9,5.7,0.1,7.5-2.1c3.7-4.5,9.1-7.1,14.7-7.1
	c10.5,0,19.1,8.6,19.1,19.1V139.2z"/>
</svg>
