<?xml version="1.0" encoding="utf-8"?>
<!-- Generator: Adobe Illustrator 24.2.3, SVG Export Plug-In . SVG Version: 6.00 Build 0)  -->
<svg version="1.1" id="Layer_5" xmlns="http://www.w3.org/2000/svg" xmlns:xlink="http://www.w3.org/1999/xlink" x="0px" y="0px"
	 viewBox="0 0 277 393.7" style="enable-background:new 0 0 277 393.7;" xml:space="preserve">
<style type="text/css">
	.st0{fill:#1100FF;}
</style>
<path class="st0" d="M252.2,91.5c-6.6,0-12.8,3.2-17.4,8.2l0.8-35.7c0-17.8-12.8-32-28.9-32c-9.1,0-19,4.6-23.1,11.4V32
	c0-17.8-12-32-27.7-32s-28.1,14.2-28.1,32l-0.4,10.5c-5-9.2-13.6-14.6-24-14.6c-16.5,0-28.9,14.6-28.9,34.3l3.7,179.1l-23.5-27.5
	c-6.6-6.9-14.9-11-24-11s-14.8,1.7-21,9c-13.2,14.6-12.9,36.6-0.1,50.8c0.4,0.4,26.4,28.5,55.4,60.4v0c0,0,0.2,0.2,0.6,0.6
	c1.6,1.8,3.2,3.5,4.8,5.3l4.8,8.5c9.8,19.6,35.1,56.2,87.3,56.2c71.3,0,91.8-66.7,91.8-66.7l-0.2,0c8.4-22.3,10.8-43.5,13.4-84.3
	c0.4-6.4,0.8-13.3,1.2-20.6c4.1-59.5,8.3-102.7,8.3-102.7V119C277,103.9,265.9,91.5,252.2,91.5z M255.9,221.7
	c-0.4,7.3-0.8,14.2-1.2,20.6c-2.9,43.5-4.1,63.6-14.5,86.5c0,0-23.2,52-77.7,52s-74-47.2-74-47.2l-1.7-3.1v0l-6.5-9.1
	c-22.5-29.9-61.1-67.4-61.6-67.9c-4.1-4.6-6.5-8.7-6.5-15.1c0-6.4,2.1-12.4,6.2-16.9c4.1-4.6,6.5-4.9,12.3-4.9s11.2,2.3,13.6,7.8
	l34.7,39.8c2.1,1.8,4.5,2.3,7,1.4c2.1-0.9,3.7-3.7,3.7-6.4L85.7,62.7c0-12.4,6.6-20.6,16.5-20.6s16.5,8.7,16.5,21.1l4.1,114.6
	c0,3.7,3.3,7.8,6.2,7.8c2.9,0,6.2-4.1,6.2-7.8L139,32.5c0-10.1,6.6-18.3,15.7-18.3c8.7,0,15.3,7.8,15.3,18.3v130.6
	c0,3.7,3.3,9.2,6.6,9.2c3.7,0,6.6-4.1,6.6-7.8l5.4-99.5c0-9.6,8.3-18.3,17.8-18.3c9.1,0,16.5,8.2,16.5,18.3l-4.1,134.7
	c0,3.7,2.5,6.4,5.8,6.9c3.3,0,6.2-2.7,6.6-6.4l8.3-79.8v-0.5c0-7.8,5.4-13.7,12.4-13.7c6.6,0,12.4,5.9,12.4,13.3
	C263.8,123.6,260.1,164.5,255.9,221.7z"/>
</svg>
