<?xml version="1.0" encoding="utf-8"?>
<!-- Generator: Adobe Illustrator 24.2.3, SVG Export Plug-In . SVG Version: 6.00 Build 0)  -->
<svg version="1.1" id="Mode_Isolation" xmlns="http://www.w3.org/2000/svg" xmlns:xlink="http://www.w3.org/1999/xlink" x="0px"
	 y="0px" viewBox="0 0 84.8 84.8" style="enable-background:new 0 0 84.8 84.8;" xml:space="preserve">
<style type="text/css">
	.st0{opacity:0.1;fill:#A8A8A8;}
	.st1{fill:#A8A8A8;}
</style>
<ellipse transform="matrix(0.7071 -0.7071 0.7071 0.7071 -17.5626 42.4)" class="st0" cx="42.4" cy="42.4" rx="42.4" ry="42.4"/>
<g>
	<path class="st1" d="M47.7,50.7c-2.8,0-5.2,0-7.6,0c-0.4,0-1,0-1.5,0c-0.2,0-0.4,0-0.6,0c-0.8,0-1.6,0-2.3,0c-1,0-2.4,0-3.4,0
		c-4.8,0-4.8,0-4.8,0c-1.4,0-2.8,1.4-2.8,2.8c0,1.4,1.4,2.8,2.8,2.8c1.7,0,3.4,0,4.8,0c0.1,0,0.2,0,0.3,0c0.2,0,0.4,0,0.6,0
		c1.3,0,2.5,0,3.5,0c1.4,0,2.4,0,3.4,0c7.6,0,7.6,0,7.6,0c1.4,0,2.8-1.4,2.8-2.8C50.4,52.1,49.1,50.7,47.7,50.7z"/>
	<path class="st1" d="M57.4,39.6c-1.7,0-3.4,0-4.8,0c-0.1,0-0.2,0-0.3,0c-0.2,0-0.4,0-0.6,0c-1.3,0-2.5,0-3.5,0c-1.4,0-2.4,0-3.4,0
		c-0.7,0-1.3,0-1.8,0c-0.1,0-0.2,0-0.3,0c-0.2,0-0.4,0-0.6,0c-1.3,0-2.5,0-3.5,0c-0.5,0-0.9,0-1.3,0c-0.8,0-1.5,0-2.1,0
		c-7.6,0-7.6,0-7.6,0c-1.4,0-2.8,1.4-2.8,2.8s1.4,2.8,2.8,2.8c2.8,0,5.2,0,7.6,0c0.4,0,1,0,1.5,0c0.2,0,0.4,0,0.6,0c0,0,0,0,0,0
		c0.8,0,1.5,0,2.3,0c0.8,0,1.7,0,2.6,0c0.3,0,0.6,0,0.8,0c1.2,0,2.1,0,2.8,0c0.2,0,0.4,0,0.5,0c0.2,0,0.5,0,0.6,0c0.9,0,0.9,0,0.9,0
		c0.5,0,1,0,1.4,0c1,0,2.4,0,3.4,0c4.8,0,4.8,0,4.8,0c1.4,0,2.8-1.4,2.8-2.8C60.1,41,58.8,39.6,57.4,39.6z"/>
	<path class="st1" d="M27.4,34.1c2.8,0,5.2,0,7.6,0c0.4,0,1,0,1.5,0c0.2,0,0.4,0,0.6,0c0,0,0,0,0,0c0.8,0,1.5,0,2.3,0
		c1,0,2.4,0,3.4,0c0.7,0,1.3,0,1.8,0c0.6,0,1.1,0,1.5,0c0.2,0,0.5,0,0.6,0c0.9,0,0.9,0,0.9,0c0.5,0,1,0,1.4,0c1,0,2.4,0,3.4,0
		c4.8,0,4.8,0,4.8,0c1.4,0,2.8-1.4,2.8-2.8c0-1.4-1.4-2.8-2.8-2.8c-1.7,0-3.4,0-4.8,0c-0.1,0-0.2,0-0.3,0c-0.2,0-0.4,0-0.6,0
		c-1.3,0-2.5,0-3.5,0c-0.2,0-0.3,0-0.5,0c-1,0-2,0-3,0c-0.7,0-1.3,0-1.8,0c-0.1,0-0.2,0-0.3,0c-0.2,0-0.4,0-0.6,0
		c-1.3,0-2.5,0-3.5,0c-0.5,0-0.9,0-1.3,0c-0.8,0-1.5,0-2.1,0c-7.6,0-7.6,0-7.6,0c-1.4,0-2.8,1.4-2.8,2.8
		C24.7,32.7,26,34.1,27.4,34.1z"/>
</g>
</svg>
