<?xml version="1.0" encoding="utf-8"?>
<!-- Generator: Adobe Illustrator 24.2.3, SVG Export Plug-In . SVG Version: 6.00 Build 0)  -->
<svg version="1.1" id="Mode_Isolation" xmlns="http://www.w3.org/2000/svg" xmlns:xlink="http://www.w3.org/1999/xlink" x="0px"
	 y="0px" viewBox="0 0 33.7 51" style="enable-background:new 0 0 33.7 51;" xml:space="preserve">
<style type="text/css">
	.st0{fill-rule:evenodd;clip-rule:evenodd;fill:#FFFFFF;}
	.st1{fill:#FFFFFF;}
</style>
<path class="st0" d="M28,27.8c0-3.5,0-3.5,0-3.5c0-0.6-0.6-1.2-1.2-1.2c-0.6,0-1.2,0.6-1.2,1.2c0,3.5,0,3.5,0,3.5
	c0,6.4-5.3,11.6-11.7,11.6S2.3,34.2,2.3,27.8c0-3.5,0-3.5,0-3.5c0-0.6-0.6-1.2-1.2-1.2c-0.6,0-1.2,0.6-1.2,1.2c0,3.5,0,3.5,0,3.5
	c0,7.2,5.5,13.3,12.8,13.9c0,7,0,7,0,7c-8.2,0-8.2,0-8.2,0c-0.6,0-1.2,0.6-1.2,1.2c0,0.6,0.6,1.2,1.2,1.2c18.7,0,18.7,0,18.7,0
	c0.6,0,1.2-0.6,1.2-1.2c0-0.6-0.6-1.2-1.2-1.2c-8.2,0-8.2,0-8.2,0c0-7,0-7,0-7C22.5,41.1,28,35.1,28,27.8 M14,37.1
	c5.3,0,9.3-4.1,9.3-9.3c0-18.5,0-18.5,0-18.5C23.3,4.1,19.3,0,14,0S4.7,4.1,4.7,9.3c0,18.5,0,18.5,0,18.5C4.7,33,8.8,37.1,14,37.1
	 M21,20.9c0,7,0,7,0,7c0,3.8-3.2,7-7,7s-7-3.2-7-7v-7v-2.3V9.3c0-3.8,3.2-7,7-7s7,3.2,7,7c0,9.3,0,9.3,0,9.3V20.9z"/>
<path class="st1" d="M17.1,23.5c-1.6,0-2.9,1.3-2.9,2.9c0,1.6,1.3,2.9,2.9,2.9c1.6,0,2.9-1.3,2.9-2.9C20,24.8,18.7,23.5,17.1,23.5z
	 M17.1,27.8c-0.8,0-1.4-0.6-1.4-1.4s0.6-1.4,1.4-1.4s1.4,0.6,1.4,1.4S17.9,27.8,17.1,27.8z"/>
<g>
	<path class="st1" d="M31.3,11c-0.1-0.1-0.2-0.2-0.4-0.2c-0.1,0-0.3,0.1-0.4,0.2l-0.3,0.3c-0.2,0.2-0.2,0.6,0,0.8
		c2.7,2.8,2.7,7.4,0,10.2c-0.2,0.2-0.2,0.6,0,0.8l0.3,0.3c0.1,0.1,0.2,0.2,0.4,0.2c0,0,0,0,0,0c0.1,0,0.3-0.1,0.4-0.2
		C34.6,19.8,34.6,14.3,31.3,11z"/>
	<path class="st1" d="M28.7,11.9c-0.1-0.1-0.2-0.2-0.4-0.2c-0.1,0-0.3,0.1-0.4,0.2l-0.3,0.3c-0.2,0.2-0.2,0.6,0,0.8
		c2.3,2.3,2.3,6,0,8.3c-0.2,0.2-0.2,0.6,0,0.8l0.3,0.3c0.1,0.1,0.2,0.2,0.4,0.2c0,0,0,0,0,0c0.1,0,0.3-0.1,0.4-0.2
		C31.5,19.4,31.5,14.8,28.7,11.9z"/>
	<path class="st1" d="M26.1,12.8c-0.1-0.1-0.2-0.2-0.4-0.2c-0.2,0-0.3,0.1-0.4,0.2l-0.3,0.3c-0.2,0.2-0.2,0.6,0,0.8
		c1.7,1.8,1.7,4.7,0,6.5c-0.2,0.2-0.2,0.6,0,0.8l0.3,0.3c0.1,0.1,0.2,0.2,0.4,0.2c0,0,0,0,0,0c0.1,0,0.3-0.1,0.4-0.2
		C28.4,19,28.4,15.2,26.1,12.8z"/>
</g>
</svg>
