<?xml version="1.0" encoding="utf-8"?>
<!-- Generator: Adobe Illustrator 24.2.3, SVG Export Plug-In . SVG Version: 6.00 Build 0)  -->
<svg version="1.1" id="Mode_Isolation" xmlns="http://www.w3.org/2000/svg" xmlns:xlink="http://www.w3.org/1999/xlink" x="0px"
	 y="0px" viewBox="0 0 41 51" style="enable-background:new 0 0 41 51;" xml:space="preserve">
<style type="text/css">
	.st0{fill-rule:evenodd;clip-rule:evenodd;fill:#A8A8A8;}
	.st1{fill:#A8A8A8;}
</style>
<path class="st0" d="M34.5,27.8c0-3.5,0-3.5,0-3.5c0-0.6-0.6-1.2-1.2-1.2c-0.6,0-1.2,0.6-1.2,1.2c0,3.5,0,3.5,0,3.5
	c0,6.4-5.3,11.6-11.7,11.6S8.9,34.2,8.9,27.8c0-3.5,0-3.5,0-3.5c0-0.6-0.6-1.2-1.2-1.2s-1.2,0.6-1.2,1.2c0,3.5,0,3.5,0,3.5
	c0,7.2,5.5,13.3,12.8,13.9c0,7,0,7,0,7c-8.2,0-8.2,0-8.2,0c-0.6,0-1.2,0.6-1.2,1.2c0,0.6,0.6,1.2,1.2,1.2c18.7,0,18.7,0,18.7,0
	c0.6,0,1.2-0.6,1.2-1.2c0-0.6-0.6-1.2-1.2-1.2c-8.2,0-8.2,0-8.2,0c0-7,0-7,0-7C29,41.1,34.5,35.1,34.5,27.8 M20.5,37.1
	c5.3,0,9.3-4.1,9.3-9.3c0-18.5,0-18.5,0-18.5c0-5.2-4-9.3-9.3-9.3s-9.3,4.1-9.3,9.3c0,18.5,0,18.5,0,18.5
	C11.3,33,15.4,37.1,20.5,37.1 M27.5,20.9c0,7,0,7,0,7c0,3.8-3.2,7-7,7s-7-3.2-7-7v-7v-2.3V9.3c0-3.8,3.2-7,7-7s7,3.2,7,7
	c0,9.3,0,9.3,0,9.3V20.9z"/>
<path class="st1" d="M21.5,23.5c-1.6,0-2.9,1.3-2.9,2.9s1.3,2.9,2.9,2.9c1.6,0,2.9-1.3,2.9-2.9S23.1,23.5,21.5,23.5z M21.5,27.8
	c-0.8,0-1.4-0.6-1.4-1.4s0.6-1.4,1.4-1.4s1.4,0.6,1.4,1.4S22.3,27.8,21.5,27.8z"/>
<path class="st1" d="M40.6,4.9c-0.4-0.4-1.2-0.4-1.6,0c-0.5,0.5-1,1-1.4,1.4c-0.4,0.4-0.7,0.7-1,1c-2.2,2.2-2.2,2.2-2.2,2.2
	c0,0,0,0,0,0c-0.3,0.3-0.7,0.7-1,1c-0.3,0.3-0.7,0.7-1,1c-0.5,0.5-0.8,0.8-1,1C31,12.9,31,12.9,31,12.9c-0.4,0.4-0.7,0.7-1,1
	c-0.4,0.4-0.7,0.7-1,1c-2.2,2.2-2.2,2.2-2.2,2.2l0,0c-1.5,1.5-1.5,1.5-1.5,1.5c0,0,0,0,0,0c-0.3,0.3-0.7,0.7-1,1
	c-0.1,0.1-0.2,0.2-0.3,0.3c-0.2,0.2-0.4,0.4-0.6,0.6c0,0-0.1,0.1-0.1,0.1c-0.5,0.5-0.8,0.8-1,1c-0.1,0.1-0.2,0.2-0.2,0.2
	c-0.2,0.2-0.2,0.2-0.2,0.2c-0.4,0.4-0.7,0.7-1,1c-0.4,0.4-0.7,0.7-1,1c-2.2,2.2-2.2,2.2-2.2,2.2c0,0,0,0,0,0c-0.3,0.3-0.7,0.7-1,1
	c-0.3,0.3-0.7,0.7-1,1c-1.4,1.4-1.4,1.4-1.4,1.4c0,0,0,0,0,0C13,30.9,13,30.9,13,30.9l0,0c-1.5,1.5-1.5,1.5-1.5,1.5c0,0,0,0,0,0
	c-0.3,0.3-0.7,0.7-1,1c-0.1,0.1-0.2,0.2-0.3,0.3c-0.2,0.2-0.4,0.4-0.6,0.6c0,0-0.1,0.1-0.1,0.1c-0.5,0.5-0.8,0.8-1,1
	C8,35.9,8,35.9,8,35.9c-0.4,0.4-0.7,0.7-1,1c-0.4,0.4-0.7,0.7-1,1c-2.2,2.2-2.2,2.2-2.2,2.2c0,0,0,0,0,0c-0.3,0.3-0.7,0.7-1,1
	c-0.3,0.3-0.7,0.7-1,1c-1.4,1.4-1.4,1.4-1.4,1.4c-0.4,0.4-0.4,1.2,0,1.6c0.4,0.4,1.2,0.4,1.6,0c0.5-0.5,1-1,1.4-1.4
	c0.4-0.4,0.7-0.7,1-1c0.4-0.4,0.7-0.7,1-1c0,0,0,0,0,0c0.8-0.8,1.5-1.5,2.2-2.2c0.3-0.3,0.7-0.7,1-1c0.5-0.5,0.8-0.8,1-1
	c0.1-0.1,0.3-0.3,0.4-0.4c0.4-0.4,0.7-0.7,1-1c0.4-0.4,0.7-0.7,1-1c0.2-0.2,0.4-0.4,0.6-0.6c0.2-0.2,0.3-0.3,0.4-0.4c0,0,0,0,0,0
	c0.6-0.6,1.1-1.1,1.5-1.5l0,0c0.8-0.8,1.5-1.5,2.2-2.2c0.8-0.8,0.9-0.9,0.9-0.9c0,0,0.1-0.1,0.1-0.1c0.5-0.5,0.8-0.8,1-1
	c0.1-0.1,0.3-0.3,0.4-0.4c0.4-0.4,0.7-0.7,1-1c0.4-0.4,0.7-0.7,1-1c0.4-0.4,0.7-0.7,1-1c0,0,0,0,0,0c0.8-0.8,1.5-1.5,2.2-2.2
	c0,0,0,0,0,0c0.2-0.2,0.3-0.3,0.5-0.5c0.2-0.2,0.4-0.4,0.5-0.5c1.4-1.4,1.4-1.4,1.4-1.4c0,0,0,0,0,0c0,0,0.1-0.1,0.1-0.1
	c0,0,0,0,0,0c0.6-0.6,1.1-1.1,1.5-1.5l0,0c0.8-0.8,1.5-1.5,2.2-2.2c0.8-0.8,0.9-0.9,0.9-0.9c0,0,0.1-0.1,0.1-0.1
	c0.5-0.5,0.8-0.8,1-1c0.1-0.1,0.3-0.3,0.4-0.4c0.4-0.4,0.7-0.7,1-1c0.4-0.4,0.7-0.7,1-1c0.4-0.4,0.7-0.7,1-1c0,0,0,0,0,0
	c0.8-0.8,1.5-1.5,2.2-2.2c0.3-0.3,0.7-0.7,1-1c1.4-1.4,1.4-1.4,1.4-1.4C41,6.1,41,5.3,40.6,4.9z"/>
</svg>
