<?xml version="1.0" encoding="utf-8"?>
<!-- Generator: Adobe Illustrator 24.2.3, SVG Export Plug-In . SVG Version: 6.00 Build 0)  -->
<svg version="1.1" id="Mode_Isolation" xmlns="http://www.w3.org/2000/svg" xmlns:xlink="http://www.w3.org/1999/xlink" x="0px"
	 y="0px" viewBox="0 0 84.8 84.8" style="enable-background:new 0 0 84.8 84.8;" xml:space="preserve">
<style type="text/css">
	.st0{fill:#FE1B55;}
	.st1{fill:#FFFFFF;}
</style>
<ellipse transform="matrix(0.7071 -0.7071 0.7071 0.7071 -17.5626 42.4)" class="st0" cx="42.4" cy="42.4" rx="42.4" ry="42.4"/>
<path class="st1" d="M52.5,39.6c-2.7,0-5,0-7.4,0c0-0.9,0-1.8,0-2.6c0-4.8,0-4.8,0-4.8c0-1.4-1.4-2.8-2.8-2.8
	c-1.4,0-2.8,1.4-2.8,2.8c0,1.7,0,3.4,0,4.8c0,0.1,0,0.2,0,0.3c0,0.2,0,0.4,0,0.6c0,0.6,0,1.1,0,1.7c-0.9,0-1.8,0-2.6,0
	c-4.8,0-4.8,0-4.8,0c-1.4,0-2.8,1.4-2.8,2.8c0,1.4,1.4,2.8,2.8,2.8c1.7,0,3.4,0,4.8,0c0.1,0,0.2,0,0.3,0c0.2,0,0.4,0,0.6,0
	c0.6,0,1.1,0,1.7,0c0,7.4,0,7.4,0,7.4c0,1.4,1.4,2.8,2.8,2.8c1.4,0,2.8-1.4,2.8-2.8c0-2.7,0-5,0-7.4c7.4,0,7.4,0,7.4,0
	c1.4,0,2.8-1.4,2.8-2.8C55.3,41,53.9,39.6,52.5,39.6z"/>
</svg>
