<?xml version="1.0" encoding="utf-8"?>
<!-- Generator: Adobe Illustrator 24.2.3, SVG Export Plug-In . SVG Version: 6.00 Build 0)  -->
<svg version="1.1" id="OBJECTS" xmlns="http://www.w3.org/2000/svg" xmlns:xlink="http://www.w3.org/1999/xlink" x="0px" y="0px"
	 viewBox="0 0 262.3 121.7" style="enable-background:new 0 0 262.3 121.7;" xml:space="preserve">
<style type="text/css">
	.st0{fill:#1100FF;}
</style>
<g>
	<path class="st0" d="M40.5,13.6c0,1,0.8,1.8,1.8,1.8c1,0,1.8-0.8,1.8-1.8l0,0c0-1-0.8-1.8-1.8-1.8C41.3,11.8,40.5,12.6,40.5,13.6
		L40.5,13.6z"/>
</g>
<g>
	<path class="st0" d="M40.5,19.5c0,1,0.8,1.8,1.8,1.8c1,0,1.8-0.8,1.8-1.8l0,0c0-1-0.8-1.8-1.8-1.8C41.3,17.7,40.5,18.5,40.5,19.5
		L40.5,19.5z"/>
</g>
<g>
	<path class="st0" d="M40.5,25.4c0,1,0.8,1.8,1.8,1.8c1,0,1.8-0.8,1.8-1.8l0,0c0-1-0.8-1.8-1.8-1.8C41.3,23.6,40.5,24.4,40.5,25.4
		L40.5,25.4z"/>
</g>
<g>
	<path class="st0" d="M40.5,31.3c0,1,0.8,1.7,1.8,1.7c1,0,1.8-0.8,1.8-1.7l0,0c0-1-0.8-1.8-1.8-1.8C41.3,29.5,40.5,30.3,40.5,31.3
		L40.5,31.3z"/>
</g>
<g>
	<path class="st0" d="M40.5,37.2c0,1,0.8,1.8,1.8,1.8c1,0,1.8-0.8,1.8-1.8l0,0c0-1-0.8-1.8-1.8-1.8C41.3,35.5,40.5,36.2,40.5,37.2
		L40.5,37.2z"/>
</g>
<g>
	<path class="st0" d="M40.5,43.1c0,1,0.8,1.8,1.8,1.8c1,0,1.8-0.8,1.8-1.8l0,0c0-1-0.8-1.8-1.8-1.8C41.3,41.4,40.5,42.1,40.5,43.1
		L40.5,43.1z"/>
</g>
<g>
	<path class="st0" d="M40.5,49c0,1,0.8,1.8,1.8,1.8c1,0,1.8-0.8,1.8-1.8l0,0c0-1-0.8-1.8-1.8-1.8C41.3,47.3,40.5,48.1,40.5,49
		L40.5,49z"/>
</g>
<g>
	<path class="st0" d="M40.5,54.9c0,1,0.8,1.8,1.8,1.8c1,0,1.8-0.8,1.8-1.8l0,0c0-1-0.8-1.8-1.8-1.8C41.3,53.2,40.5,54,40.5,54.9
		L40.5,54.9z"/>
</g>
<g>
	<path class="st0" d="M40.5,60.8c0,1,0.8,1.8,1.8,1.8c1,0,1.8-0.8,1.8-1.8l0,0c0-1-0.8-1.8-1.8-1.8C41.3,59.1,40.5,59.9,40.5,60.8
		L40.5,60.8z"/>
</g>
<g>
	<path class="st0" d="M47.3,31.3c0,1,0.8,1.7,1.8,1.7s1.8-0.8,1.8-1.7l0,0c0-1-0.8-1.8-1.8-1.8S47.3,30.3,47.3,31.3L47.3,31.3z"/>
</g>
<g>
	<path class="st0" d="M47.3,37.2c0,1,0.8,1.8,1.8,1.8s1.8-0.8,1.8-1.8l0,0c0-1-0.8-1.8-1.8-1.8S47.3,36.2,47.3,37.2L47.3,37.2z"/>
</g>
<g>
	<path class="st0" d="M47.3,43.1c0,1,0.8,1.8,1.8,1.8s1.8-0.8,1.8-1.8l0,0c0-1-0.8-1.8-1.8-1.8S47.3,42.1,47.3,43.1L47.3,43.1z"/>
</g>
<g>
	<path class="st0" d="M47.3,49c0,1,0.8,1.8,1.8,1.8s1.8-0.8,1.8-1.8l0,0c0-1-0.8-1.8-1.8-1.8S47.3,48.1,47.3,49L47.3,49z"/>
</g>
<g>
	<path class="st0" d="M47.3,54.9c0,1,0.8,1.8,1.8,1.8s1.8-0.8,1.8-1.8l0,0c0-1-0.8-1.8-1.8-1.8S47.3,54,47.3,54.9L47.3,54.9z"/>
</g>
<g>
	<path class="st0" d="M47.3,60.8c0,1,0.8,1.8,1.8,1.8s1.8-0.8,1.8-1.8l0,0c0-1-0.8-1.8-1.8-1.8S47.3,59.9,47.3,60.8L47.3,60.8z"/>
</g>
<g>
	<path class="st0" d="M54,54.9c0,1,0.8,1.8,1.8,1.8c1,0,1.8-0.8,1.8-1.8l0,0c0-1-0.8-1.8-1.8-1.8C54.8,53.2,54,54,54,54.9L54,54.9z"
		/>
</g>
<g>
	<path class="st0" d="M54,60.8c0,1,0.8,1.8,1.8,1.8c1,0,1.8-0.8,1.8-1.8l0,0c0-1-0.8-1.8-1.8-1.8C54.8,59.1,54,59.9,54,60.8L54,60.8
		z"/>
</g>
<g>
	<path class="st0" d="M60.8,1.8c0,1,0.8,1.8,1.8,1.8c1,0,1.8-0.8,1.8-1.8l0,0c0-1-0.8-1.8-1.8-1.8C61.6,0,60.8,0.8,60.8,1.8
		L60.8,1.8z"/>
</g>
<g>
	<path class="st0" d="M60.8,7.7c0,1,0.8,1.8,1.8,1.8c1,0,1.8-0.8,1.8-1.8l0,0c0-1-0.8-1.8-1.8-1.8C61.6,5.9,60.8,6.7,60.8,7.7
		L60.8,7.7z"/>
</g>
<g>
	<path class="st0" d="M60.8,13.6c0,1,0.8,1.8,1.8,1.8c1,0,1.8-0.8,1.8-1.8l0,0c0-1-0.8-1.8-1.8-1.8C61.6,11.8,60.8,12.6,60.8,13.6
		L60.8,13.6z"/>
</g>
<g>
	<path class="st0" d="M60.8,19.5c0,1,0.8,1.8,1.8,1.8c1,0,1.8-0.8,1.8-1.8l0,0c0-1-0.8-1.8-1.8-1.8C61.6,17.7,60.8,18.5,60.8,19.5
		L60.8,19.5z"/>
</g>
<g>
	<path class="st0" d="M60.8,25.4c0,1,0.8,1.8,1.8,1.8c1,0,1.8-0.8,1.8-1.8l0,0c0-1-0.8-1.8-1.8-1.8C61.6,23.6,60.8,24.4,60.8,25.4
		L60.8,25.4z"/>
</g>
<g>
	<path class="st0" d="M60.8,31.3c0,1,0.8,1.7,1.8,1.7c1,0,1.8-0.8,1.8-1.7l0,0c0-1-0.8-1.8-1.8-1.8C61.6,29.5,60.8,30.3,60.8,31.3
		L60.8,31.3z"/>
</g>
<g>
	<path class="st0" d="M60.8,37.2c0,1,0.8,1.8,1.8,1.8c1,0,1.8-0.8,1.8-1.8l0,0c0-1-0.8-1.8-1.8-1.8C61.6,35.5,60.8,36.2,60.8,37.2
		L60.8,37.2z"/>
</g>
<g>
	<path class="st0" d="M60.8,43.1c0,1,0.8,1.8,1.8,1.8c1,0,1.8-0.8,1.8-1.8l0,0c0-1-0.8-1.8-1.8-1.8C61.6,41.4,60.8,42.1,60.8,43.1
		L60.8,43.1z"/>
</g>
<g>
	<path class="st0" d="M60.8,49c0,1,0.8,1.8,1.8,1.8c1,0,1.8-0.8,1.8-1.8l0,0c0-1-0.8-1.8-1.8-1.8C61.6,47.3,60.8,48.1,60.8,49
		L60.8,49z"/>
</g>
<g>
	<path class="st0" d="M60.8,54.9c0,1,0.8,1.8,1.8,1.8c1,0,1.8-0.8,1.8-1.8l0,0c0-1-0.8-1.8-1.8-1.8C61.6,53.2,60.8,54,60.8,54.9
		L60.8,54.9z"/>
</g>
<g>
	<path class="st0" d="M60.8,60.8c0,1,0.8,1.8,1.8,1.8c1,0,1.8-0.8,1.8-1.8l0,0c0-1-0.8-1.8-1.8-1.8C61.6,59.1,60.8,59.9,60.8,60.8
		L60.8,60.8z"/>
</g>
<g>
	<path class="st0" d="M67.5,7.7c0,1,0.8,1.8,1.8,1.8c1,0,1.8-0.8,1.8-1.8l0,0c0-1-0.8-1.8-1.8-1.8C68.3,5.9,67.5,6.7,67.5,7.7
		L67.5,7.7z"/>
</g>
<g>
	<path class="st0" d="M67.5,13.6c0,1,0.8,1.8,1.8,1.8c1,0,1.8-0.8,1.8-1.8l0,0c0-1-0.8-1.8-1.8-1.8C68.3,11.8,67.5,12.6,67.5,13.6
		L67.5,13.6z"/>
</g>
<g>
	<path class="st0" d="M67.5,19.5c0,1,0.8,1.8,1.8,1.8c1,0,1.8-0.8,1.8-1.8l0,0c0-1-0.8-1.8-1.8-1.8C68.3,17.7,67.5,18.5,67.5,19.5
		L67.5,19.5z"/>
</g>
<g>
	<path class="st0" d="M67.5,25.4c0,1,0.8,1.8,1.8,1.8c1,0,1.8-0.8,1.8-1.8l0,0c0-1-0.8-1.8-1.8-1.8C68.3,23.6,67.5,24.4,67.5,25.4
		L67.5,25.4z"/>
</g>
<g>
	<path class="st0" d="M67.5,31.3c0,1,0.8,1.7,1.8,1.7c1,0,1.8-0.8,1.8-1.7l0,0c0-1-0.8-1.8-1.8-1.8C68.3,29.5,67.5,30.3,67.5,31.3
		L67.5,31.3z"/>
</g>
<g>
	<path class="st0" d="M67.5,37.2c0,1,0.8,1.8,1.8,1.8c1,0,1.8-0.8,1.8-1.8l0,0c0-1-0.8-1.8-1.8-1.8C68.3,35.5,67.5,36.2,67.5,37.2
		L67.5,37.2z"/>
</g>
<g>
	<path class="st0" d="M67.5,43.1c0,1,0.8,1.8,1.8,1.8c1,0,1.8-0.8,1.8-1.8l0,0c0-1-0.8-1.8-1.8-1.8C68.3,41.4,67.5,42.1,67.5,43.1
		L67.5,43.1z"/>
</g>
<g>
	<path class="st0" d="M67.5,49c0,1,0.8,1.8,1.8,1.8c1,0,1.8-0.8,1.8-1.8l0,0c0-1-0.8-1.8-1.8-1.8C68.3,47.3,67.5,48.1,67.5,49
		L67.5,49z"/>
</g>
<g>
	<path class="st0" d="M67.5,54.9c0,1,0.8,1.8,1.8,1.8c1,0,1.8-0.8,1.8-1.8l0,0c0-1-0.8-1.8-1.8-1.8C68.3,53.2,67.5,54,67.5,54.9
		L67.5,54.9z"/>
</g>
<g>
	<path class="st0" d="M67.5,60.8c0,1,0.8,1.8,1.8,1.8c1,0,1.8-0.8,1.8-1.8l0,0c0-1-0.8-1.8-1.8-1.8C68.3,59.1,67.5,59.9,67.5,60.8
		L67.5,60.8z"/>
</g>
<g>
	<path class="st0" d="M74.3,19.5c0,1,0.8,1.8,1.8,1.8c1,0,1.8-0.8,1.8-1.8c0-1-0.8-1.8-1.8-1.8C75.1,17.7,74.3,18.5,74.3,19.5
		C74.3,19.5,74.3,18.5,74.3,19.5z"/>
</g>
<g>
	<path class="st0" d="M74.3,25.4c0,1,0.8,1.8,1.8,1.8c1,0,1.8-0.8,1.8-1.8c0-1-0.8-1.8-1.8-1.8C75.1,23.6,74.3,24.4,74.3,25.4
		C74.3,25.4,74.3,24.4,74.3,25.4z"/>
</g>
<g>
	<path class="st0" d="M74.3,31.3c0,1,0.8,1.7,1.8,1.7c1,0,1.8-0.8,1.8-1.7c0-1-0.8-1.8-1.8-1.8C75.1,29.5,74.3,30.3,74.3,31.3
		C74.3,31.3,74.3,30.3,74.3,31.3z"/>
</g>
<g>
	<path class="st0" d="M74.3,37.2c0,1,0.8,1.8,1.8,1.8c1,0,1.8-0.8,1.8-1.8S77,35.5,76,35.5C75.1,35.5,74.3,36.2,74.3,37.2
		C74.3,37.2,74.3,36.2,74.3,37.2z"/>
</g>
<g>
	<path class="st0" d="M74.3,43.1c0,1,0.8,1.8,1.8,1.8c1,0,1.8-0.8,1.8-1.8S77,41.4,76,41.4C75.1,41.4,74.3,42.1,74.3,43.1
		C74.3,43.1,74.3,42.1,74.3,43.1z"/>
</g>
<g>
	<path class="st0" d="M74.3,49c0,1,0.8,1.8,1.8,1.8c1,0,1.8-0.8,1.8-1.8S77,47.3,76,47.3C75.1,47.3,74.3,48.1,74.3,49
		C74.3,49,74.3,48.1,74.3,49z"/>
</g>
<g>
	<path class="st0" d="M74.3,54.9c0,1,0.8,1.8,1.8,1.8c1,0,1.8-0.8,1.8-1.8S77,53.2,76,53.2C75.1,53.2,74.3,54,74.3,54.9
		C74.3,54.9,74.3,54,74.3,54.9z"/>
</g>
<g>
	<path class="st0" d="M74.3,60.8c0,1,0.8,1.8,1.8,1.8c1,0,1.8-0.8,1.8-1.8c0-1-0.8-1.8-1.8-1.8C75.1,59.1,74.3,59.9,74.3,60.8
		C74.3,60.8,74.3,59.9,74.3,60.8z"/>
</g>
<g>
	<path class="st0" d="M81,37.2c0,1,0.8,1.8,1.8,1.8c1,0,1.8-0.8,1.8-1.8l0,0c0-1-0.8-1.8-1.8-1.8C81.8,35.5,81,36.2,81,37.2L81,37.2
		z"/>
</g>
<g>
	<path class="st0" d="M81,43.1c0,1,0.8,1.8,1.8,1.8c1,0,1.8-0.8,1.8-1.8l0,0c0-1-0.8-1.8-1.8-1.8C81.8,41.4,81,42.1,81,43.1L81,43.1
		z"/>
</g>
<g>
	<path class="st0" d="M81,49c0,1,0.8,1.8,1.8,1.8c1,0,1.8-0.8,1.8-1.8l0,0c0-1-0.8-1.8-1.8-1.8C81.8,47.3,81,48.1,81,49L81,49z"/>
</g>
<g>
	<path class="st0" d="M81,54.9c0,1,0.8,1.8,1.8,1.8c1,0,1.8-0.8,1.8-1.8l0,0c0-1-0.8-1.8-1.8-1.8C81.8,53.2,81,54,81,54.9L81,54.9z"
		/>
</g>
<g>
	<path class="st0" d="M81,60.8c0,1,0.8,1.8,1.8,1.8c1,0,1.8-0.8,1.8-1.8l0,0c0-1-0.8-1.8-1.8-1.8C81.8,59.1,81,59.9,81,60.8L81,60.8
		z"/>
</g>
<g>
	<path class="st0" d="M87.8,60.8c0,1,0.8,1.8,1.8,1.8s1.8-0.8,1.8-1.8l0,0c0-1-0.8-1.8-1.8-1.8S87.8,59.9,87.8,60.8L87.8,60.8z"/>
</g>
<g>
	<path class="st0" d="M94.5,19.5c0,1,0.8,1.8,1.8,1.8s1.8-0.8,1.8-1.8l0,0c0-1-0.8-1.8-1.8-1.8S94.5,18.5,94.5,19.5L94.5,19.5z"/>
</g>
<g>
	<path class="st0" d="M94.5,25.4c0,1,0.8,1.8,1.8,1.8s1.8-0.8,1.8-1.8l0,0c0-1-0.8-1.8-1.8-1.8S94.5,24.4,94.5,25.4L94.5,25.4z"/>
</g>
<g>
	<path class="st0" d="M94.5,31.3c0,1,0.8,1.7,1.8,1.7s1.8-0.8,1.8-1.7l0,0c0-1-0.8-1.8-1.8-1.8S94.5,30.3,94.5,31.3L94.5,31.3z"/>
</g>
<g>
	<path class="st0" d="M94.5,37.2c0,1,0.8,1.8,1.8,1.8s1.8-0.8,1.8-1.8l0,0c0-1-0.8-1.8-1.8-1.8S94.5,36.2,94.5,37.2L94.5,37.2z"/>
</g>
<g>
	<path class="st0" d="M94.5,43.1c0,1,0.8,1.8,1.8,1.8s1.8-0.8,1.8-1.8l0,0c0-1-0.8-1.8-1.8-1.8S94.5,42.1,94.5,43.1L94.5,43.1z"/>
</g>
<g>
	<path class="st0" d="M94.5,49c0,1,0.8,1.8,1.8,1.8S98,50,98,49l0,0c0-1-0.8-1.8-1.8-1.8S94.5,48.1,94.5,49L94.5,49z"/>
</g>
<g>
	<path class="st0" d="M94.5,54.9c0,1,0.8,1.8,1.8,1.8s1.8-0.8,1.8-1.8l0,0c0-1-0.8-1.8-1.8-1.8S94.5,54,94.5,54.9L94.5,54.9z"/>
</g>
<g>
	<path class="st0" d="M94.5,60.8c0,1,0.8,1.8,1.8,1.8s1.8-0.8,1.8-1.8l0,0c0-1-0.8-1.8-1.8-1.8S94.5,59.9,94.5,60.8L94.5,60.8z"/>
</g>
<g>
	<path class="st0" d="M101.3,1.8c0,1,0.8,1.8,1.8,1.8s1.8-0.8,1.8-1.8l0,0c0-1-0.8-1.8-1.8-1.8S101.3,0.8,101.3,1.8L101.3,1.8z"/>
</g>
<g>
	<path class="st0" d="M101.3,7.7c0,1,0.8,1.8,1.8,1.8s1.8-0.8,1.8-1.8l0,0c0-1-0.8-1.8-1.8-1.8S101.3,6.7,101.3,7.7L101.3,7.7z"/>
</g>
<g>
	<path class="st0" d="M101.3,13.6c0,1,0.8,1.8,1.8,1.8s1.8-0.8,1.8-1.8l0,0c0-1-0.8-1.8-1.8-1.8S101.3,12.6,101.3,13.6L101.3,13.6z"
		/>
</g>
<g>
	<path class="st0" d="M101.3,19.5c0,1,0.8,1.8,1.8,1.8s1.8-0.8,1.8-1.8l0,0c0-1-0.8-1.8-1.8-1.8S101.3,18.5,101.3,19.5L101.3,19.5z"
		/>
</g>
<g>
	<path class="st0" d="M101.3,25.4c0,1,0.8,1.8,1.8,1.8s1.8-0.8,1.8-1.8l0,0c0-1-0.8-1.8-1.8-1.8S101.3,24.4,101.3,25.4L101.3,25.4z"
		/>
</g>
<g>
	<path class="st0" d="M101.3,31.3c0,1,0.8,1.7,1.8,1.7s1.8-0.8,1.8-1.7l0,0c0-1-0.8-1.8-1.8-1.8S101.3,30.3,101.3,31.3L101.3,31.3z"
		/>
</g>
<g>
	<path class="st0" d="M101.3,37.2c0,1,0.8,1.8,1.8,1.8s1.8-0.8,1.8-1.8l0,0c0-1-0.8-1.8-1.8-1.8S101.3,36.2,101.3,37.2L101.3,37.2z"
		/>
</g>
<g>
	<path class="st0" d="M101.3,43.1c0,1,0.8,1.8,1.8,1.8s1.8-0.8,1.8-1.8l0,0c0-1-0.8-1.8-1.8-1.8S101.3,42.1,101.3,43.1L101.3,43.1z"
		/>
</g>
<g>
	<path class="st0" d="M101.3,49c0,1,0.8,1.8,1.8,1.8s1.8-0.8,1.8-1.8l0,0c0-1-0.8-1.8-1.8-1.8S101.3,48.1,101.3,49L101.3,49z"/>
</g>
<g>
	<path class="st0" d="M101.3,54.9c0,1,0.8,1.8,1.8,1.8s1.8-0.8,1.8-1.8l0,0c0-1-0.8-1.8-1.8-1.8S101.3,54,101.3,54.9L101.3,54.9z"/>
</g>
<g>
	<path class="st0" d="M101.3,60.8c0,1,0.8,1.8,1.8,1.8s1.8-0.8,1.8-1.8l0,0c0-1-0.8-1.8-1.8-1.8S101.3,59.9,101.3,60.8L101.3,60.8z"
		/>
</g>
<g>
	<path class="st0" d="M108.1,7.7c0,1,0.8,1.8,1.8,1.8s1.8-0.8,1.8-1.8s-0.8-1.8-1.8-1.8S108.1,6.7,108.1,7.7
		C108.1,7.7,108.1,6.7,108.1,7.7z"/>
</g>
<g>
	<path class="st0" d="M108.1,13.6c0,1,0.8,1.8,1.8,1.8s1.8-0.8,1.8-1.8s-0.8-1.8-1.8-1.8S108.1,12.6,108.1,13.6
		C108.1,13.6,108.1,12.6,108.1,13.6z"/>
</g>
<g>
	<path class="st0" d="M108.1,19.5c0,1,0.8,1.8,1.8,1.8s1.8-0.8,1.8-1.8c0-1-0.8-1.8-1.8-1.8S108.1,18.5,108.1,19.5
		C108.1,19.5,108.1,18.5,108.1,19.5z"/>
</g>
<g>
	<path class="st0" d="M108.1,25.4c0,1,0.8,1.8,1.8,1.8s1.8-0.8,1.8-1.8c0-1-0.8-1.8-1.8-1.8S108.1,24.4,108.1,25.4
		C108.1,25.4,108.1,24.4,108.1,25.4z"/>
</g>
<g>
	<path class="st0" d="M108.1,31.3c0,1,0.8,1.7,1.8,1.7s1.8-0.8,1.8-1.7c0-1-0.8-1.8-1.8-1.8S108.1,30.3,108.1,31.3
		C108.1,31.3,108.1,30.3,108.1,31.3z"/>
</g>
<g>
	<path class="st0" d="M108.1,37.2c0,1,0.8,1.8,1.8,1.8s1.8-0.8,1.8-1.8s-0.8-1.8-1.8-1.8S108.1,36.2,108.1,37.2
		C108.1,37.2,108.1,36.2,108.1,37.2z"/>
</g>
<g>
	<path class="st0" d="M108.1,43.1c0,1,0.8,1.8,1.8,1.8s1.8-0.8,1.8-1.8s-0.8-1.8-1.8-1.8S108.1,42.1,108.1,43.1
		C108.1,43.1,108.1,42.1,108.1,43.1z"/>
</g>
<g>
	<path class="st0" d="M108.1,49c0,1,0.8,1.8,1.8,1.8s1.8-0.8,1.8-1.8s-0.8-1.8-1.8-1.8S108.1,48.1,108.1,49
		C108.1,49,108.1,48.1,108.1,49z"/>
</g>
<g>
	<path class="st0" d="M108.1,54.9c0,1,0.8,1.8,1.8,1.8s1.8-0.8,1.8-1.8s-0.8-1.8-1.8-1.8S108.1,54,108.1,54.9
		C108.1,54.9,108.1,54,108.1,54.9z"/>
</g>
<g>
	<path class="st0" d="M108.1,60.8c0,1,0.8,1.8,1.8,1.8s1.8-0.8,1.8-1.8c0-1-0.8-1.8-1.8-1.8S108.1,59.9,108.1,60.8
		C108.1,60.8,108.1,59.9,108.1,60.8z"/>
</g>
<g>
	<path class="st0" d="M114.8,31.3c0,1,0.8,1.7,1.8,1.7c1,0,1.8-0.8,1.8-1.7l0,0c0-1-0.8-1.8-1.8-1.8
		C115.6,29.5,114.8,30.3,114.8,31.3L114.8,31.3z"/>
</g>
<g>
	<path class="st0" d="M114.8,37.2c0,1,0.8,1.8,1.8,1.8c1,0,1.8-0.8,1.8-1.8l0,0c0-1-0.8-1.8-1.8-1.8
		C115.6,35.5,114.8,36.2,114.8,37.2L114.8,37.2z"/>
</g>
<g>
	<path class="st0" d="M114.8,43.1c0,1,0.8,1.8,1.8,1.8c1,0,1.8-0.8,1.8-1.8l0,0c0-1-0.8-1.8-1.8-1.8
		C115.6,41.4,114.8,42.1,114.8,43.1L114.8,43.1z"/>
</g>
<g>
	<path class="st0" d="M114.8,49c0,1,0.8,1.8,1.8,1.8c1,0,1.8-0.8,1.8-1.8l0,0c0-1-0.8-1.8-1.8-1.8C115.6,47.3,114.8,48.1,114.8,49
		L114.8,49z"/>
</g>
<g>
	<path class="st0" d="M114.8,54.9c0,1,0.8,1.8,1.8,1.8c1,0,1.8-0.8,1.8-1.8l0,0c0-1-0.8-1.8-1.8-1.8C115.6,53.2,114.8,54,114.8,54.9
		L114.8,54.9z"/>
</g>
<g>
	<path class="st0" d="M114.8,60.8c0,1,0.8,1.8,1.8,1.8c1,0,1.8-0.8,1.8-1.8l0,0c0-1-0.8-1.8-1.8-1.8
		C115.6,59.1,114.8,59.9,114.8,60.8L114.8,60.8z"/>
</g>
<g>
	<path class="st0" d="M121.6,54.9c0,1,0.8,1.8,1.8,1.8s1.8-0.8,1.8-1.8l0,0c0-1-0.8-1.8-1.8-1.8S121.6,54,121.6,54.9L121.6,54.9z"/>
</g>
<g>
	<path class="st0" d="M121.6,60.8c0,1,0.8,1.8,1.8,1.8s1.8-0.8,1.8-1.8l0,0c0-1-0.8-1.8-1.8-1.8S121.6,59.9,121.6,60.8L121.6,60.8z"
		/>
</g>
<g>
	<path class="st0" d="M128.3,13.6c0,1,0.8,1.8,1.8,1.8c1,0,1.8-0.8,1.8-1.8l0,0c0-1-0.8-1.8-1.8-1.8
		C129.1,11.8,128.3,12.6,128.3,13.6L128.3,13.6z"/>
</g>
<g>
	<path class="st0" d="M128.3,19.5c0,1,0.8,1.8,1.8,1.8c1,0,1.8-0.8,1.8-1.8l0,0c0-1-0.8-1.8-1.8-1.8
		C129.1,17.7,128.3,18.5,128.3,19.5L128.3,19.5z"/>
</g>
<g>
	<path class="st0" d="M128.3,25.4c0,1,0.8,1.8,1.8,1.8c1,0,1.8-0.8,1.8-1.8l0,0c0-1-0.8-1.8-1.8-1.8
		C129.1,23.6,128.3,24.4,128.3,25.4L128.3,25.4z"/>
</g>
<g>
	<path class="st0" d="M128.3,31.3c0,1,0.8,1.7,1.8,1.7c1,0,1.8-0.8,1.8-1.7l0,0c0-1-0.8-1.8-1.8-1.8
		C129.1,29.5,128.3,30.3,128.3,31.3L128.3,31.3z"/>
</g>
<g>
	<path class="st0" d="M128.3,37.2c0,1,0.8,1.8,1.8,1.8c1,0,1.8-0.8,1.8-1.8l0,0c0-1-0.8-1.8-1.8-1.8
		C129.1,35.5,128.3,36.2,128.3,37.2L128.3,37.2z"/>
</g>
<g>
	<path class="st0" d="M128.3,43.1c0,1,0.8,1.8,1.8,1.8c1,0,1.8-0.8,1.8-1.8l0,0c0-1-0.8-1.8-1.8-1.8
		C129.1,41.4,128.3,42.1,128.3,43.1L128.3,43.1z"/>
</g>
<g>
	<path class="st0" d="M128.3,49c0,1,0.8,1.8,1.8,1.8c1,0,1.8-0.8,1.8-1.8l0,0c0-1-0.8-1.8-1.8-1.8C129.1,47.3,128.3,48.1,128.3,49
		L128.3,49z"/>
</g>
<g>
	<path class="st0" d="M128.3,54.9c0,1,0.8,1.8,1.8,1.8c1,0,1.8-0.8,1.8-1.8l0,0c0-1-0.8-1.8-1.8-1.8C129.1,53.2,128.3,54,128.3,54.9
		L128.3,54.9z"/>
</g>
<g>
	<path class="st0" d="M128.3,60.8c0,1,0.8,1.8,1.8,1.8c1,0,1.8-0.8,1.8-1.8l0,0c0-1-0.8-1.8-1.8-1.8
		C129.1,59.1,128.3,59.9,128.3,60.8L128.3,60.8z"/>
</g>
<g>
	<path class="st0" d="M135.1,19.5c0,1,0.8,1.8,1.8,1.8c1,0,1.8-0.8,1.8-1.8l0,0c0-1-0.8-1.8-1.8-1.8
		C135.8,17.7,135.1,18.5,135.1,19.5L135.1,19.5z"/>
</g>
<g>
	<path class="st0" d="M135.1,25.4c0,1,0.8,1.8,1.8,1.8c1,0,1.8-0.8,1.8-1.8l0,0c0-1-0.8-1.8-1.8-1.8
		C135.8,23.6,135.1,24.4,135.1,25.4L135.1,25.4z"/>
</g>
<g>
	<path class="st0" d="M135.1,31.3c0,1,0.8,1.7,1.8,1.7c1,0,1.8-0.8,1.8-1.7l0,0c0-1-0.8-1.8-1.8-1.8
		C135.8,29.5,135.1,30.3,135.1,31.3L135.1,31.3z"/>
</g>
<g>
	<path class="st0" d="M135.1,37.2c0,1,0.8,1.8,1.8,1.8c1,0,1.8-0.8,1.8-1.8l0,0c0-1-0.8-1.8-1.8-1.8
		C135.8,35.5,135.1,36.2,135.1,37.2L135.1,37.2z"/>
</g>
<g>
	<path class="st0" d="M135.1,43.1c0,1,0.8,1.8,1.8,1.8c1,0,1.8-0.8,1.8-1.8l0,0c0-1-0.8-1.8-1.8-1.8
		C135.8,41.4,135.1,42.1,135.1,43.1L135.1,43.1z"/>
</g>
<g>
	<path class="st0" d="M135.1,49c0,1,0.8,1.8,1.8,1.8c1,0,1.8-0.8,1.8-1.8l0,0c0-1-0.8-1.8-1.8-1.8C135.8,47.3,135.1,48.1,135.1,49
		L135.1,49z"/>
</g>
<g>
	<path class="st0" d="M135.1,54.9c0,1,0.8,1.8,1.8,1.8c1,0,1.8-0.8,1.8-1.8l0,0c0-1-0.8-1.8-1.8-1.8C135.8,53.2,135.1,54,135.1,54.9
		L135.1,54.9z"/>
</g>
<g>
	<path class="st0" d="M135.1,60.8c0,1,0.8,1.8,1.8,1.8c1,0,1.8-0.8,1.8-1.8l0,0c0-1-0.8-1.8-1.8-1.8
		C135.8,59.1,135.1,59.9,135.1,60.8L135.1,60.8z"/>
</g>
<g>
	<path class="st0" d="M141.8,19.5c0,1,0.8,1.8,1.8,1.8c1,0,1.8-0.8,1.8-1.8c0-1-0.8-1.8-1.8-1.8C142.6,17.7,141.8,18.5,141.8,19.5
		C141.8,19.5,141.8,18.5,141.8,19.5z"/>
</g>
<g>
	<path class="st0" d="M141.8,25.4c0,1,0.8,1.8,1.8,1.8c1,0,1.8-0.8,1.8-1.8c0-1-0.8-1.8-1.8-1.8C142.6,23.6,141.8,24.4,141.8,25.4
		C141.8,25.4,141.8,24.4,141.8,25.4z"/>
</g>
<g>
	<path class="st0" d="M141.8,31.3c0,1,0.8,1.7,1.8,1.7c1,0,1.8-0.8,1.8-1.7c0-1-0.8-1.8-1.8-1.8C142.6,29.5,141.8,30.3,141.8,31.3
		C141.8,31.3,141.8,30.3,141.8,31.3z"/>
</g>
<g>
	<path class="st0" d="M141.8,37.2c0,1,0.8,1.8,1.8,1.8c1,0,1.8-0.8,1.8-1.8s-0.8-1.8-1.8-1.8C142.6,35.5,141.8,36.2,141.8,37.2
		C141.8,37.2,141.8,36.2,141.8,37.2z"/>
</g>
<g>
	<path class="st0" d="M141.8,43.1c0,1,0.8,1.8,1.8,1.8c1,0,1.8-0.8,1.8-1.8s-0.8-1.8-1.8-1.8C142.6,41.4,141.8,42.1,141.8,43.1
		C141.8,43.1,141.8,42.1,141.8,43.1z"/>
</g>
<g>
	<path class="st0" d="M141.8,49c0,1,0.8,1.8,1.8,1.8c1,0,1.8-0.8,1.8-1.8s-0.8-1.8-1.8-1.8C142.6,47.3,141.8,48.1,141.8,49
		C141.8,49,141.8,48.1,141.8,49z"/>
</g>
<g>
	<path class="st0" d="M141.8,54.9c0,1,0.8,1.8,1.8,1.8c1,0,1.8-0.8,1.8-1.8s-0.8-1.8-1.8-1.8C142.6,53.2,141.8,54,141.8,54.9
		C141.8,54.9,141.8,54,141.8,54.9z"/>
</g>
<g>
	<path class="st0" d="M141.8,60.8c0,1,0.8,1.8,1.8,1.8c1,0,1.8-0.8,1.8-1.8c0-1-0.8-1.8-1.8-1.8C142.6,59.1,141.8,59.9,141.8,60.8
		C141.8,60.8,141.8,59.9,141.8,60.8z"/>
</g>
<g>
	<path class="st0" d="M148.6,54.9c0,1,0.8,1.8,1.8,1.8c1,0,1.8-0.8,1.8-1.8l0,0c0-1-0.8-1.8-1.8-1.8C149.4,53.2,148.6,54,148.6,54.9
		L148.6,54.9z"/>
</g>
<g>
	<path class="st0" d="M148.6,60.8c0,1,0.8,1.8,1.8,1.8c1,0,1.8-0.8,1.8-1.8l0,0c0-1-0.8-1.8-1.8-1.8
		C149.4,59.1,148.6,59.9,148.6,60.8L148.6,60.8z"/>
</g>
<g>
	<path class="st0" d="M155.3,7.7c0,1,0.8,1.8,1.8,1.8s1.8-0.8,1.8-1.8l0,0c0-1-0.8-1.8-1.8-1.8S155.3,6.7,155.3,7.7L155.3,7.7z"/>
</g>
<g>
	<path class="st0" d="M155.3,13.6c0,1,0.8,1.8,1.8,1.8s1.8-0.8,1.8-1.8l0,0c0-1-0.8-1.8-1.8-1.8S155.3,12.6,155.3,13.6L155.3,13.6z"
		/>
</g>
<g>
	<path class="st0" d="M155.3,19.5c0,1,0.8,1.8,1.8,1.8s1.8-0.8,1.8-1.8l0,0c0-1-0.8-1.8-1.8-1.8S155.3,18.5,155.3,19.5L155.3,19.5z"
		/>
</g>
<g>
	<path class="st0" d="M155.3,25.4c0,1,0.8,1.8,1.8,1.8s1.8-0.8,1.8-1.8l0,0c0-1-0.8-1.8-1.8-1.8S155.3,24.4,155.3,25.4L155.3,25.4z"
		/>
</g>
<g>
	<path class="st0" d="M155.3,31.3c0,1,0.8,1.7,1.8,1.7s1.8-0.8,1.8-1.7l0,0c0-1-0.8-1.8-1.8-1.8S155.3,30.3,155.3,31.3L155.3,31.3z"
		/>
</g>
<g>
	<path class="st0" d="M155.3,37.2c0,1,0.8,1.8,1.8,1.8s1.8-0.8,1.8-1.8l0,0c0-1-0.8-1.8-1.8-1.8S155.3,36.2,155.3,37.2L155.3,37.2z"
		/>
</g>
<g>
	<path class="st0" d="M155.3,43.1c0,1,0.8,1.8,1.8,1.8s1.8-0.8,1.8-1.8l0,0c0-1-0.8-1.8-1.8-1.8S155.3,42.1,155.3,43.1L155.3,43.1z"
		/>
</g>
<g>
	<path class="st0" d="M155.3,49c0,1,0.8,1.8,1.8,1.8s1.8-0.8,1.8-1.8l0,0c0-1-0.8-1.8-1.8-1.8S155.3,48.1,155.3,49L155.3,49z"/>
</g>
<g>
	<path class="st0" d="M155.3,54.9c0,1,0.8,1.8,1.8,1.8s1.8-0.8,1.8-1.8l0,0c0-1-0.8-1.8-1.8-1.8S155.3,54,155.3,54.9L155.3,54.9z"/>
</g>
<g>
	<path class="st0" d="M155.3,60.8c0,1,0.8,1.8,1.8,1.8s1.8-0.8,1.8-1.8l0,0c0-1-0.8-1.8-1.8-1.8S155.3,59.9,155.3,60.8L155.3,60.8z"
		/>
</g>
<g>
	<path class="st0" d="M162.1,1.8c0,1,0.8,1.8,1.8,1.8c1,0,1.8-0.8,1.8-1.8l0,0c0-1-0.8-1.8-1.8-1.8C162.9,0,162.1,0.8,162.1,1.8
		L162.1,1.8z"/>
</g>
<g>
	<path class="st0" d="M162.1,7.7c0,1,0.8,1.8,1.8,1.8c1,0,1.8-0.8,1.8-1.8l0,0c0-1-0.8-1.8-1.8-1.8C162.9,5.9,162.1,6.7,162.1,7.7
		L162.1,7.7z"/>
</g>
<g>
	<path class="st0" d="M162.1,13.6c0,1,0.8,1.8,1.8,1.8c1,0,1.8-0.8,1.8-1.8l0,0c0-1-0.8-1.8-1.8-1.8
		C162.9,11.8,162.1,12.6,162.1,13.6L162.1,13.6z"/>
</g>
<g>
	<path class="st0" d="M162.1,19.5c0,1,0.8,1.8,1.8,1.8c1,0,1.8-0.8,1.8-1.8l0,0c0-1-0.8-1.8-1.8-1.8
		C162.9,17.7,162.1,18.5,162.1,19.5L162.1,19.5z"/>
</g>
<g>
	<path class="st0" d="M162.1,25.4c0,1,0.8,1.8,1.8,1.8c1,0,1.8-0.8,1.8-1.8l0,0c0-1-0.8-1.8-1.8-1.8
		C162.9,23.6,162.1,24.4,162.1,25.4L162.1,25.4z"/>
</g>
<g>
	<path class="st0" d="M162.1,31.3c0,1,0.8,1.7,1.8,1.7c1,0,1.8-0.8,1.8-1.7l0,0c0-1-0.8-1.8-1.8-1.8
		C162.9,29.5,162.1,30.3,162.1,31.3L162.1,31.3z"/>
</g>
<g>
	<path class="st0" d="M162.1,37.2c0,1,0.8,1.8,1.8,1.8c1,0,1.8-0.8,1.8-1.8l0,0c0-1-0.8-1.8-1.8-1.8
		C162.9,35.5,162.1,36.2,162.1,37.2L162.1,37.2z"/>
</g>
<g>
	<path class="st0" d="M162.1,43.1c0,1,0.8,1.8,1.8,1.8c1,0,1.8-0.8,1.8-1.8l0,0c0-1-0.8-1.8-1.8-1.8
		C162.9,41.4,162.1,42.1,162.1,43.1L162.1,43.1z"/>
</g>
<g>
	<path class="st0" d="M162.1,49c0,1,0.8,1.8,1.8,1.8c1,0,1.8-0.8,1.8-1.8l0,0c0-1-0.8-1.8-1.8-1.8C162.9,47.3,162.1,48.1,162.1,49
		L162.1,49z"/>
</g>
<g>
	<path class="st0" d="M162.1,54.9c0,1,0.8,1.8,1.8,1.8c1,0,1.8-0.8,1.8-1.8l0,0c0-1-0.8-1.8-1.8-1.8C162.9,53.2,162.1,54,162.1,54.9
		L162.1,54.9z"/>
</g>
<g>
	<path class="st0" d="M162.1,60.8c0,1,0.8,1.8,1.8,1.8c1,0,1.8-0.8,1.8-1.8l0,0c0-1-0.8-1.8-1.8-1.8
		C162.9,59.1,162.1,59.9,162.1,60.8L162.1,60.8z"/>
</g>
<g>
	<path class="st0" d="M168.8,31.3c0,1,0.8,1.7,1.8,1.7c1,0,1.8-0.8,1.8-1.7l0,0c0-1-0.8-1.8-1.8-1.8
		C169.6,29.5,168.8,30.3,168.8,31.3L168.8,31.3z"/>
</g>
<g>
	<path class="st0" d="M168.8,37.2c0,1,0.8,1.8,1.8,1.8c1,0,1.8-0.8,1.8-1.8l0,0c0-1-0.8-1.8-1.8-1.8
		C169.6,35.5,168.8,36.2,168.8,37.2L168.8,37.2z"/>
</g>
<g>
	<path class="st0" d="M168.8,43.1c0,1,0.8,1.8,1.8,1.8c1,0,1.8-0.8,1.8-1.8l0,0c0-1-0.8-1.8-1.8-1.8
		C169.6,41.4,168.8,42.1,168.8,43.1L168.8,43.1z"/>
</g>
<g>
	<path class="st0" d="M168.8,49c0,1,0.8,1.8,1.8,1.8c1,0,1.8-0.8,1.8-1.8l0,0c0-1-0.8-1.8-1.8-1.8C169.6,47.3,168.8,48.1,168.8,49
		L168.8,49z"/>
</g>
<g>
	<path class="st0" d="M168.8,54.9c0,1,0.8,1.8,1.8,1.8c1,0,1.8-0.8,1.8-1.8l0,0c0-1-0.8-1.8-1.8-1.8C169.6,53.2,168.8,54,168.8,54.9
		L168.8,54.9z"/>
</g>
<g>
	<path class="st0" d="M168.8,60.8c0,1,0.8,1.8,1.8,1.8c1,0,1.8-0.8,1.8-1.8l0,0c0-1-0.8-1.8-1.8-1.8
		C169.6,59.1,168.8,59.9,168.8,60.8L168.8,60.8z"/>
</g>
<g>
	<path class="st0" d="M175.6,43.1c0,1,0.8,1.8,1.8,1.8c1,0,1.8-0.8,1.8-1.8l0,0c0-1-0.8-1.8-1.8-1.8
		C176.4,41.4,175.6,42.1,175.6,43.1L175.6,43.1z"/>
</g>
<g>
	<path class="st0" d="M175.6,49c0,1,0.8,1.8,1.8,1.8c1,0,1.8-0.8,1.8-1.8l0,0c0-1-0.8-1.8-1.8-1.8C176.4,47.3,175.6,48.1,175.6,49
		L175.6,49z"/>
</g>
<g>
	<path class="st0" d="M175.6,54.9c0,1,0.8,1.8,1.8,1.8c1,0,1.8-0.8,1.8-1.8l0,0c0-1-0.8-1.8-1.8-1.8C176.4,53.2,175.6,54,175.6,54.9
		L175.6,54.9z"/>
</g>
<g>
	<path class="st0" d="M175.6,60.8c0,1,0.8,1.8,1.8,1.8c1,0,1.8-0.8,1.8-1.8l0,0c0-1-0.8-1.8-1.8-1.8
		C176.4,59.1,175.6,59.9,175.6,60.8L175.6,60.8z"/>
</g>
<g>
	<path class="st0" d="M182.3,1.8c0,1,0.8,1.8,1.8,1.8c1,0,1.8-0.8,1.8-1.8l0,0c0-1-0.8-1.8-1.8-1.8C183.1,0,182.3,0.8,182.3,1.8
		L182.3,1.8z"/>
</g>
<g>
	<path class="st0" d="M182.3,7.7c0,1,0.8,1.8,1.8,1.8c1,0,1.8-0.8,1.8-1.8l0,0c0-1-0.8-1.8-1.8-1.8C183.1,5.9,182.3,6.7,182.3,7.7
		L182.3,7.7z"/>
</g>
<g>
	<path class="st0" d="M182.3,13.6c0,1,0.8,1.8,1.8,1.8c1,0,1.8-0.8,1.8-1.8l0,0c0-1-0.8-1.8-1.8-1.8
		C183.1,11.8,182.3,12.6,182.3,13.6L182.3,13.6z"/>
</g>
<g>
	<path class="st0" d="M182.3,19.5c0,1,0.8,1.8,1.8,1.8c1,0,1.8-0.8,1.8-1.8l0,0c0-1-0.8-1.8-1.8-1.8
		C183.1,17.7,182.3,18.5,182.3,19.5L182.3,19.5z"/>
</g>
<g>
	<path class="st0" d="M182.3,25.4c0,1,0.8,1.8,1.8,1.8c1,0,1.8-0.8,1.8-1.8l0,0c0-1-0.8-1.8-1.8-1.8
		C183.1,23.6,182.3,24.4,182.3,25.4L182.3,25.4z"/>
</g>
<g>
	<path class="st0" d="M182.3,31.3c0,1,0.8,1.7,1.8,1.7c1,0,1.8-0.8,1.8-1.7l0,0c0-1-0.8-1.8-1.8-1.8
		C183.1,29.5,182.3,30.3,182.3,31.3L182.3,31.3z"/>
</g>
<g>
	<path class="st0" d="M182.3,37.2c0,1,0.8,1.8,1.8,1.8c1,0,1.8-0.8,1.8-1.8l0,0c0-1-0.8-1.8-1.8-1.8
		C183.1,35.5,182.3,36.2,182.3,37.2L182.3,37.2z"/>
</g>
<g>
	<path class="st0" d="M182.3,43.1c0,1,0.8,1.8,1.8,1.8c1,0,1.8-0.8,1.8-1.8l0,0c0-1-0.8-1.8-1.8-1.8
		C183.1,41.4,182.3,42.1,182.3,43.1L182.3,43.1z"/>
</g>
<g>
	<path class="st0" d="M182.3,49c0,1,0.8,1.8,1.8,1.8c1,0,1.8-0.8,1.8-1.8l0,0c0-1-0.8-1.8-1.8-1.8C183.1,47.3,182.3,48.1,182.3,49
		L182.3,49z"/>
</g>
<g>
	<path class="st0" d="M182.3,54.9c0,1,0.8,1.8,1.8,1.8c1,0,1.8-0.8,1.8-1.8l0,0c0-1-0.8-1.8-1.8-1.8C183.1,53.2,182.3,54,182.3,54.9
		L182.3,54.9z"/>
</g>
<g>
	<path class="st0" d="M182.3,60.8c0,1,0.8,1.8,1.8,1.8c1,0,1.8-0.8,1.8-1.8l0,0c0-1-0.8-1.8-1.8-1.8
		C183.1,59.1,182.3,59.9,182.3,60.8L182.3,60.8z"/>
</g>
<g>
	<path class="st0" d="M189.1,19.5c0,1,0.8,1.8,1.8,1.8s1.8-0.8,1.8-1.8l0,0c0-1-0.8-1.8-1.8-1.8S189.1,18.5,189.1,19.5L189.1,19.5z"
		/>
</g>
<g>
	<path class="st0" d="M189.1,25.4c0,1,0.8,1.8,1.8,1.8s1.8-0.8,1.8-1.8l0,0c0-1-0.8-1.8-1.8-1.8S189.1,24.4,189.1,25.4L189.1,25.4z"
		/>
</g>
<g>
	<path class="st0" d="M189.1,31.3c0,1,0.8,1.7,1.8,1.7s1.8-0.8,1.8-1.7l0,0c0-1-0.8-1.8-1.8-1.8S189.1,30.3,189.1,31.3L189.1,31.3z"
		/>
</g>
<g>
	<path class="st0" d="M189.1,37.2c0,1,0.8,1.8,1.8,1.8s1.8-0.8,1.8-1.8l0,0c0-1-0.8-1.8-1.8-1.8S189.1,36.2,189.1,37.2L189.1,37.2z"
		/>
</g>
<g>
	<path class="st0" d="M189.1,43.1c0,1,0.8,1.8,1.8,1.8s1.8-0.8,1.8-1.8l0,0c0-1-0.8-1.8-1.8-1.8S189.1,42.1,189.1,43.1L189.1,43.1z"
		/>
</g>
<g>
	<path class="st0" d="M189.1,49c0,1,0.8,1.8,1.8,1.8s1.8-0.8,1.8-1.8l0,0c0-1-0.8-1.8-1.8-1.8S189.1,48.1,189.1,49L189.1,49z"/>
</g>
<g>
	<path class="st0" d="M189.1,54.9c0,1,0.8,1.8,1.8,1.8s1.8-0.8,1.8-1.8l0,0c0-1-0.8-1.8-1.8-1.8S189.1,54,189.1,54.9L189.1,54.9z"/>
</g>
<g>
	<path class="st0" d="M189.1,60.8c0,1,0.8,1.8,1.8,1.8s1.8-0.8,1.8-1.8l0,0c0-1-0.8-1.8-1.8-1.8S189.1,59.9,189.1,60.8L189.1,60.8z"
		/>
</g>
<g>
	<path class="st0" d="M195.8,60.8c0,1,0.8,1.8,1.8,1.8c1,0,1.8-0.8,1.8-1.8l0,0c0-1-0.8-1.8-1.8-1.8
		C196.6,59.1,195.8,59.9,195.8,60.8L195.8,60.8z"/>
</g>
<g>
	<path class="st0" d="M202.6,54.9c0,1,0.8,1.8,1.8,1.8c1,0,1.8-0.8,1.8-1.8l0,0c0-1-0.8-1.8-1.8-1.8C203.4,53.2,202.6,54,202.6,54.9
		L202.6,54.9z"/>
</g>
<g>
	<path class="st0" d="M202.6,60.8c0,1,0.8,1.8,1.8,1.8c1,0,1.8-0.8,1.8-1.8l0,0c0-1-0.8-1.8-1.8-1.8
		C203.4,59.1,202.6,59.9,202.6,60.8L202.6,60.8z"/>
</g>
<g>
	<path class="st0" d="M209.3,49c0,1,0.8,1.8,1.8,1.8c1,0,1.8-0.8,1.8-1.8l0,0c0-1-0.8-1.8-1.8-1.8C210.1,47.3,209.3,48.1,209.3,49
		L209.3,49z"/>
</g>
<g>
	<path class="st0" d="M209.3,54.9c0,1,0.8,1.8,1.8,1.8c1,0,1.8-0.8,1.8-1.8l0,0c0-1-0.8-1.8-1.8-1.8C210.1,53.2,209.3,54,209.3,54.9
		L209.3,54.9z"/>
</g>
<g>
	<path class="st0" d="M209.3,60.8c0,1,0.8,1.8,1.8,1.8c1,0,1.8-0.8,1.8-1.8l0,0c0-1-0.8-1.8-1.8-1.8
		C210.1,59.1,209.3,59.9,209.3,60.8L209.3,60.8z"/>
</g>
<g>
	<path class="st0" d="M216.1,25.4c0,1,0.8,1.8,1.8,1.8c1,0,1.8-0.8,1.8-1.8l0,0c0-1-0.8-1.8-1.8-1.8
		C216.9,23.6,216.1,24.4,216.1,25.4L216.1,25.4z"/>
</g>
<g>
	<path class="st0" d="M216.1,31.3c0,1,0.8,1.7,1.8,1.7c1,0,1.8-0.8,1.8-1.7l0,0c0-1-0.8-1.8-1.8-1.8
		C216.9,29.5,216.1,30.3,216.1,31.3L216.1,31.3z"/>
</g>
<g>
	<path class="st0" d="M216.1,37.2c0,1,0.8,1.8,1.8,1.8c1,0,1.8-0.8,1.8-1.8l0,0c0-1-0.8-1.8-1.8-1.8
		C216.9,35.5,216.1,36.2,216.1,37.2L216.1,37.2z"/>
</g>
<g>
	<path class="st0" d="M216.1,43.1c0,1,0.8,1.8,1.8,1.8c1,0,1.8-0.8,1.8-1.8l0,0c0-1-0.8-1.8-1.8-1.8
		C216.9,41.4,216.1,42.1,216.1,43.1L216.1,43.1z"/>
</g>
<g>
	<path class="st0" d="M216.1,49c0,1,0.8,1.8,1.8,1.8c1,0,1.8-0.8,1.8-1.8l0,0c0-1-0.8-1.8-1.8-1.8C216.9,47.3,216.1,48.1,216.1,49
		L216.1,49z"/>
</g>
<g>
	<path class="st0" d="M216.1,54.9c0,1,0.8,1.8,1.8,1.8c1,0,1.8-0.8,1.8-1.8l0,0c0-1-0.8-1.8-1.8-1.8C216.9,53.2,216.1,54,216.1,54.9
		L216.1,54.9z"/>
</g>
<g>
	<path class="st0" d="M216.1,60.8c0,1,0.8,1.8,1.8,1.8c1,0,1.8-0.8,1.8-1.8l0,0c0-1-0.8-1.8-1.8-1.8
		C216.9,59.1,216.1,59.9,216.1,60.8L216.1,60.8z"/>
</g>
<g>
	<path class="st0" d="M40.5,108.1c0,1,0.8,1.8,1.8,1.8c1,0,1.8-0.8,1.8-1.8l0,0c0-1-0.8-1.8-1.8-1.8
		C41.3,106.3,40.5,107.1,40.5,108.1L40.5,108.1z"/>
</g>
<g>
	<path class="st0" d="M40.5,102.2c0,1,0.8,1.8,1.8,1.8c1,0,1.8-0.8,1.8-1.8v0c0-1-0.8-1.7-1.8-1.7C41.3,100.4,40.5,101.2,40.5,102.2
		L40.5,102.2z"/>
</g>
<g>
	<path class="st0" d="M40.5,96.3c0,1,0.8,1.8,1.8,1.8c1,0,1.8-0.8,1.8-1.8l0,0c0-1-0.8-1.8-1.8-1.8C41.3,94.5,40.5,95.3,40.5,96.3
		L40.5,96.3z"/>
</g>
<g>
	<path class="st0" d="M40.5,90.4c0,1,0.8,1.8,1.8,1.8c1,0,1.8-0.8,1.8-1.8l0,0c0-1-0.8-1.8-1.8-1.8C41.3,88.6,40.5,89.4,40.5,90.4
		L40.5,90.4z"/>
</g>
<g>
	<path class="st0" d="M40.5,84.5c0,1,0.8,1.8,1.8,1.8c1,0,1.8-0.8,1.8-1.8l0,0c0-1-0.8-1.8-1.8-1.8C41.3,82.7,40.5,83.5,40.5,84.5
		L40.5,84.5z"/>
</g>
<g>
	<path class="st0" d="M40.5,78.6c0,1,0.8,1.7,1.8,1.7c1,0,1.8-0.8,1.8-1.7v0c0-1-0.8-1.8-1.8-1.8C41.3,76.8,40.5,77.6,40.5,78.6
		L40.5,78.6z"/>
</g>
<g>
	<path class="st0" d="M40.5,72.7c0,1,0.8,1.8,1.8,1.8c1,0,1.8-0.8,1.8-1.8l0,0c0-1-0.8-1.8-1.8-1.8C41.3,70.9,40.5,71.7,40.5,72.7
		L40.5,72.7z"/>
</g>
<g>
	<path class="st0" d="M40.5,66.7c0,1,0.8,1.8,1.8,1.8c1,0,1.8-0.8,1.8-1.8l0,0c0-1-0.8-1.8-1.8-1.8C41.3,65,40.5,65.8,40.5,66.7
		L40.5,66.7z"/>
</g>
<g>
	<path class="st0" d="M40.5,60.8c0,1,0.8,1.8,1.8,1.8c1,0,1.8-0.8,1.8-1.8l0,0c0-1-0.8-1.8-1.8-1.8C41.3,59.1,40.5,59.9,40.5,60.8
		L40.5,60.8z"/>
</g>
<g>
	<path class="st0" d="M47.3,90.4c0,1,0.8,1.8,1.8,1.8s1.8-0.8,1.8-1.8l0,0c0-1-0.8-1.8-1.8-1.8S47.3,89.4,47.3,90.4L47.3,90.4z"/>
</g>
<g>
	<path class="st0" d="M47.3,84.5c0,1,0.8,1.8,1.8,1.8s1.8-0.8,1.8-1.8l0,0c0-1-0.8-1.8-1.8-1.8S47.3,83.5,47.3,84.5L47.3,84.5z"/>
</g>
<g>
	<path class="st0" d="M47.3,78.6c0,1,0.8,1.7,1.8,1.7s1.8-0.8,1.8-1.7v0c0-1-0.8-1.8-1.8-1.8S47.3,77.6,47.3,78.6L47.3,78.6z"/>
</g>
<g>
	<path class="st0" d="M47.3,72.7c0,1,0.8,1.8,1.8,1.8s1.8-0.8,1.8-1.8l0,0c0-1-0.8-1.8-1.8-1.8S47.3,71.7,47.3,72.7L47.3,72.7z"/>
</g>
<g>
	<path class="st0" d="M47.3,66.7c0,1,0.8,1.8,1.8,1.8s1.8-0.8,1.8-1.8l0,0c0-1-0.8-1.8-1.8-1.8S47.3,65.8,47.3,66.7L47.3,66.7z"/>
</g>
<g>
	<path class="st0" d="M47.3,60.8c0,1,0.8,1.8,1.8,1.8s1.8-0.8,1.8-1.8l0,0c0-1-0.8-1.8-1.8-1.8S47.3,59.9,47.3,60.8L47.3,60.8z"/>
</g>
<g>
	<path class="st0" d="M54,66.7c0,1,0.8,1.8,1.8,1.8c1,0,1.8-0.8,1.8-1.8l0,0c0-1-0.8-1.8-1.8-1.8C54.8,65,54,65.8,54,66.7L54,66.7z"
		/>
</g>
<g>
	<path class="st0" d="M54,60.8c0,1,0.8,1.8,1.8,1.8c1,0,1.8-0.8,1.8-1.8l0,0c0-1-0.8-1.8-1.8-1.8C54.8,59.1,54,59.9,54,60.8L54,60.8
		z"/>
</g>
<g>
	<path class="st0" d="M60.8,119.9c0,1,0.8,1.8,1.8,1.8c1,0,1.8-0.8,1.8-1.8l0,0c0-1-0.8-1.8-1.8-1.8C61.6,118.2,60.8,119,60.8,119.9
		L60.8,119.9z"/>
</g>
<g>
	<path class="st0" d="M60.8,114c0,1,0.8,1.8,1.8,1.8c1,0,1.8-0.8,1.8-1.8l0,0c0-1-0.8-1.8-1.8-1.8C61.6,112.3,60.8,113,60.8,114
		L60.8,114z"/>
</g>
<g>
	<path class="st0" d="M60.8,108.1c0,1,0.8,1.8,1.8,1.8c1,0,1.8-0.8,1.8-1.8l0,0c0-1-0.8-1.8-1.8-1.8
		C61.6,106.3,60.8,107.1,60.8,108.1L60.8,108.1z"/>
</g>
<g>
	<path class="st0" d="M60.8,102.2c0,1,0.8,1.8,1.8,1.8c1,0,1.8-0.8,1.8-1.8v0c0-1-0.8-1.7-1.8-1.7C61.6,100.4,60.8,101.2,60.8,102.2
		L60.8,102.2z"/>
</g>
<g>
	<path class="st0" d="M60.8,96.3c0,1,0.8,1.8,1.8,1.8c1,0,1.8-0.8,1.8-1.8l0,0c0-1-0.8-1.8-1.8-1.8C61.6,94.5,60.8,95.3,60.8,96.3
		L60.8,96.3z"/>
</g>
<g>
	<path class="st0" d="M60.8,90.4c0,1,0.8,1.8,1.8,1.8c1,0,1.8-0.8,1.8-1.8l0,0c0-1-0.8-1.8-1.8-1.8C61.6,88.6,60.8,89.4,60.8,90.4
		L60.8,90.4z"/>
</g>
<g>
	<path class="st0" d="M60.8,84.5c0,1,0.8,1.8,1.8,1.8c1,0,1.8-0.8,1.8-1.8l0,0c0-1-0.8-1.8-1.8-1.8C61.6,82.7,60.8,83.5,60.8,84.5
		L60.8,84.5z"/>
</g>
<g>
	<path class="st0" d="M60.8,78.6c0,1,0.8,1.7,1.8,1.7c1,0,1.8-0.8,1.8-1.7v0c0-1-0.8-1.8-1.8-1.8C61.6,76.8,60.8,77.6,60.8,78.6
		L60.8,78.6z"/>
</g>
<g>
	<path class="st0" d="M60.8,72.7c0,1,0.8,1.8,1.8,1.8c1,0,1.8-0.8,1.8-1.8l0,0c0-1-0.8-1.8-1.8-1.8C61.6,70.9,60.8,71.7,60.8,72.7
		L60.8,72.7z"/>
</g>
<g>
	<path class="st0" d="M60.8,66.7c0,1,0.8,1.8,1.8,1.8c1,0,1.8-0.8,1.8-1.8l0,0c0-1-0.8-1.8-1.8-1.8C61.6,65,60.8,65.8,60.8,66.7
		L60.8,66.7z"/>
</g>
<g>
	<path class="st0" d="M60.8,60.8c0,1,0.8,1.8,1.8,1.8c1,0,1.8-0.8,1.8-1.8l0,0c0-1-0.8-1.8-1.8-1.8C61.6,59.1,60.8,59.9,60.8,60.8
		L60.8,60.8z"/>
</g>
<g>
	<path class="st0" d="M67.5,114c0,1,0.8,1.8,1.8,1.8c1,0,1.8-0.8,1.8-1.8l0,0c0-1-0.8-1.8-1.8-1.8C68.3,112.3,67.5,113,67.5,114
		L67.5,114z"/>
</g>
<g>
	<path class="st0" d="M67.5,108.1c0,1,0.8,1.8,1.8,1.8c1,0,1.8-0.8,1.8-1.8l0,0c0-1-0.8-1.8-1.8-1.8
		C68.3,106.3,67.5,107.1,67.5,108.1L67.5,108.1z"/>
</g>
<g>
	<path class="st0" d="M67.5,102.2c0,1,0.8,1.8,1.8,1.8c1,0,1.8-0.8,1.8-1.8v0c0-1-0.8-1.7-1.8-1.7C68.3,100.4,67.5,101.2,67.5,102.2
		L67.5,102.2z"/>
</g>
<g>
	<path class="st0" d="M67.5,96.3c0,1,0.8,1.8,1.8,1.8c1,0,1.8-0.8,1.8-1.8l0,0c0-1-0.8-1.8-1.8-1.8C68.3,94.5,67.5,95.3,67.5,96.3
		L67.5,96.3z"/>
</g>
<g>
	<path class="st0" d="M67.5,90.4c0,1,0.8,1.8,1.8,1.8c1,0,1.8-0.8,1.8-1.8l0,0c0-1-0.8-1.8-1.8-1.8C68.3,88.6,67.5,89.4,67.5,90.4
		L67.5,90.4z"/>
</g>
<g>
	<path class="st0" d="M67.5,84.5c0,1,0.8,1.8,1.8,1.8c1,0,1.8-0.8,1.8-1.8l0,0c0-1-0.8-1.8-1.8-1.8C68.3,82.7,67.5,83.5,67.5,84.5
		L67.5,84.5z"/>
</g>
<g>
	<path class="st0" d="M67.5,78.6c0,1,0.8,1.7,1.8,1.7c1,0,1.8-0.8,1.8-1.7v0c0-1-0.8-1.8-1.8-1.8C68.3,76.8,67.5,77.6,67.5,78.6
		L67.5,78.6z"/>
</g>
<g>
	<path class="st0" d="M67.5,72.7c0,1,0.8,1.8,1.8,1.8c1,0,1.8-0.8,1.8-1.8l0,0c0-1-0.8-1.8-1.8-1.8C68.3,70.9,67.5,71.7,67.5,72.7
		L67.5,72.7z"/>
</g>
<g>
	<path class="st0" d="M67.5,66.7c0,1,0.8,1.8,1.8,1.8c1,0,1.8-0.8,1.8-1.8l0,0c0-1-0.8-1.8-1.8-1.8C68.3,65,67.5,65.8,67.5,66.7
		L67.5,66.7z"/>
</g>
<g>
	<path class="st0" d="M67.5,60.8c0,1,0.8,1.8,1.8,1.8c1,0,1.8-0.8,1.8-1.8l0,0c0-1-0.8-1.8-1.8-1.8C68.3,59.1,67.5,59.9,67.5,60.8
		L67.5,60.8z"/>
</g>
<g>
	<path class="st0" d="M74.3,102.2c0,1,0.8,1.8,1.8,1.8c1,0,1.8-0.8,1.8-1.8c0-1-0.8-1.8-1.8-1.8C75.1,100.4,74.3,101.2,74.3,102.2
		C74.3,102.2,74.3,101.2,74.3,102.2z"/>
</g>
<g>
	<path class="st0" d="M74.3,96.3c0,1,0.8,1.8,1.8,1.8c1,0,1.8-0.8,1.8-1.8S77,94.5,76,94.5C75.1,94.5,74.3,95.3,74.3,96.3
		C74.3,96.3,74.3,95.3,74.3,96.3z"/>
</g>
<g>
	<path class="st0" d="M74.3,90.4c0,1,0.8,1.8,1.8,1.8c1,0,1.8-0.8,1.8-1.8S77,88.6,76,88.6C75.1,88.6,74.3,89.4,74.3,90.4
		C74.3,90.4,74.3,89.4,74.3,90.4z"/>
</g>
<g>
	<path class="st0" d="M74.3,84.5c0,1,0.8,1.8,1.8,1.8c1,0,1.8-0.8,1.8-1.8S77,82.7,76,82.7C75.1,82.7,74.3,83.5,74.3,84.5
		C74.3,84.5,74.3,83.5,74.3,84.5z"/>
</g>
<g>
	<path class="st0" d="M74.3,78.6c0,1,0.8,1.8,1.8,1.8c1,0,1.8-0.8,1.8-1.8c0-1-0.8-1.8-1.8-1.8C75.1,76.8,74.3,77.6,74.3,78.6
		C74.3,78.6,74.3,77.6,74.3,78.6z"/>
</g>
<g>
	<path class="st0" d="M74.3,72.7c0,1,0.8,1.8,1.8,1.8c1,0,1.8-0.8,1.8-1.8S77,70.9,76,70.9C75.1,70.9,74.3,71.7,74.3,72.7
		C74.3,72.7,74.3,71.7,74.3,72.7z"/>
</g>
<g>
	<path class="st0" d="M74.3,66.7c0,1,0.8,1.8,1.8,1.8c1,0,1.8-0.8,1.8-1.8S77,65,76,65C75.1,65,74.3,65.8,74.3,66.7
		C74.3,66.7,74.3,65.8,74.3,66.7z"/>
</g>
<g>
	<path class="st0" d="M74.3,60.8c0,1,0.8,1.8,1.8,1.8c1,0,1.8-0.8,1.8-1.8c0-1-0.8-1.8-1.8-1.8C75.1,59.1,74.3,59.9,74.3,60.8
		C74.3,60.8,74.3,59.9,74.3,60.8z"/>
</g>
<g>
	<path class="st0" d="M81,84.5c0,1,0.8,1.8,1.8,1.8c1,0,1.8-0.8,1.8-1.8l0,0c0-1-0.8-1.8-1.8-1.8C81.8,82.7,81,83.5,81,84.5L81,84.5
		z"/>
</g>
<g>
	<path class="st0" d="M81,78.6c0,1,0.8,1.7,1.8,1.7c1,0,1.8-0.8,1.8-1.7v0c0-1-0.8-1.8-1.8-1.8C81.8,76.8,81,77.6,81,78.6L81,78.6z"
		/>
</g>
<g>
	<path class="st0" d="M81,72.7c0,1,0.8,1.8,1.8,1.8c1,0,1.8-0.8,1.8-1.8l0,0c0-1-0.8-1.8-1.8-1.8C81.8,70.9,81,71.7,81,72.7L81,72.7
		z"/>
</g>
<g>
	<path class="st0" d="M81,66.7c0,1,0.8,1.8,1.8,1.8c1,0,1.8-0.8,1.8-1.8l0,0c0-1-0.8-1.8-1.8-1.8C81.8,65,81,65.8,81,66.7L81,66.7z"
		/>
</g>
<g>
	<path class="st0" d="M81,60.8c0,1,0.8,1.8,1.8,1.8c1,0,1.8-0.8,1.8-1.8l0,0c0-1-0.8-1.8-1.8-1.8C81.8,59.1,81,59.9,81,60.8L81,60.8
		z"/>
</g>
<g>
	<path class="st0" d="M87.8,60.8c0,1,0.8,1.8,1.8,1.8s1.8-0.8,1.8-1.8l0,0c0-1-0.8-1.8-1.8-1.8S87.8,59.9,87.8,60.8L87.8,60.8z"/>
</g>
<g>
	<path class="st0" d="M94.5,102.2c0,1,0.8,1.8,1.8,1.8s1.8-0.8,1.8-1.8v0c0-1-0.8-1.7-1.8-1.7S94.5,101.2,94.5,102.2L94.5,102.2z"/>
</g>
<g>
	<path class="st0" d="M94.5,96.3c0,1,0.8,1.8,1.8,1.8s1.8-0.8,1.8-1.8l0,0c0-1-0.8-1.8-1.8-1.8S94.5,95.3,94.5,96.3L94.5,96.3z"/>
</g>
<g>
	<path class="st0" d="M94.5,90.4c0,1,0.8,1.8,1.8,1.8s1.8-0.8,1.8-1.8l0,0c0-1-0.8-1.8-1.8-1.8S94.5,89.4,94.5,90.4L94.5,90.4z"/>
</g>
<g>
	<path class="st0" d="M94.5,84.5c0,1,0.8,1.8,1.8,1.8s1.8-0.8,1.8-1.8l0,0c0-1-0.8-1.8-1.8-1.8S94.5,83.5,94.5,84.5L94.5,84.5z"/>
</g>
<g>
	<path class="st0" d="M94.5,78.6c0,1,0.8,1.7,1.8,1.7s1.8-0.8,1.8-1.7v0c0-1-0.8-1.8-1.8-1.8S94.5,77.6,94.5,78.6L94.5,78.6z"/>
</g>
<g>
	<path class="st0" d="M94.5,72.7c0,1,0.8,1.8,1.8,1.8s1.8-0.8,1.8-1.8l0,0c0-1-0.8-1.8-1.8-1.8S94.5,71.7,94.5,72.7L94.5,72.7z"/>
</g>
<g>
	<path class="st0" d="M94.5,66.7c0,1,0.8,1.8,1.8,1.8s1.8-0.8,1.8-1.8l0,0c0-1-0.8-1.8-1.8-1.8S94.5,65.8,94.5,66.7L94.5,66.7z"/>
</g>
<g>
	<path class="st0" d="M94.5,60.8c0,1,0.8,1.8,1.8,1.8s1.8-0.8,1.8-1.8l0,0c0-1-0.8-1.8-1.8-1.8S94.5,59.9,94.5,60.8L94.5,60.8z"/>
</g>
<g>
	<path class="st0" d="M101.3,119.9c0,1,0.8,1.8,1.8,1.8s1.8-0.8,1.8-1.8l0,0c0-1-0.8-1.8-1.8-1.8S101.3,119,101.3,119.9L101.3,119.9
		z"/>
</g>
<g>
	<path class="st0" d="M101.3,114c0,1,0.8,1.8,1.8,1.8s1.8-0.8,1.8-1.8l0,0c0-1-0.8-1.8-1.8-1.8S101.3,113,101.3,114L101.3,114z"/>
</g>
<g>
	<path class="st0" d="M101.3,108.1c0,1,0.8,1.8,1.8,1.8s1.8-0.8,1.8-1.8l0,0c0-1-0.8-1.8-1.8-1.8S101.3,107.1,101.3,108.1
		L101.3,108.1z"/>
</g>
<g>
	<path class="st0" d="M101.3,102.2c0,1,0.8,1.8,1.8,1.8s1.8-0.8,1.8-1.8v0c0-1-0.8-1.7-1.8-1.7S101.3,101.2,101.3,102.2L101.3,102.2
		z"/>
</g>
<g>
	<path class="st0" d="M101.3,96.3c0,1,0.8,1.8,1.8,1.8s1.8-0.8,1.8-1.8l0,0c0-1-0.8-1.8-1.8-1.8S101.3,95.3,101.3,96.3L101.3,96.3z"
		/>
</g>
<g>
	<path class="st0" d="M101.3,90.4c0,1,0.8,1.8,1.8,1.8s1.8-0.8,1.8-1.8l0,0c0-1-0.8-1.8-1.8-1.8S101.3,89.4,101.3,90.4L101.3,90.4z"
		/>
</g>
<g>
	<path class="st0" d="M101.3,84.5c0,1,0.8,1.8,1.8,1.8s1.8-0.8,1.8-1.8l0,0c0-1-0.8-1.8-1.8-1.8S101.3,83.5,101.3,84.5L101.3,84.5z"
		/>
</g>
<g>
	<path class="st0" d="M101.3,78.6c0,1,0.8,1.7,1.8,1.7s1.8-0.8,1.8-1.7v0c0-1-0.8-1.8-1.8-1.8S101.3,77.6,101.3,78.6L101.3,78.6z"/>
</g>
<g>
	<path class="st0" d="M101.3,72.7c0,1,0.8,1.8,1.8,1.8s1.8-0.8,1.8-1.8l0,0c0-1-0.8-1.8-1.8-1.8S101.3,71.7,101.3,72.7L101.3,72.7z"
		/>
</g>
<g>
	<path class="st0" d="M101.3,66.7c0,1,0.8,1.8,1.8,1.8s1.8-0.8,1.8-1.8l0,0c0-1-0.8-1.8-1.8-1.8S101.3,65.8,101.3,66.7L101.3,66.7z"
		/>
</g>
<g>
	<path class="st0" d="M101.3,60.8c0,1,0.8,1.8,1.8,1.8s1.8-0.8,1.8-1.8l0,0c0-1-0.8-1.8-1.8-1.8S101.3,59.9,101.3,60.8L101.3,60.8z"
		/>
</g>
<g>
	<path class="st0" d="M108.1,114c0,1,0.8,1.8,1.8,1.8s1.8-0.8,1.8-1.8s-0.8-1.8-1.8-1.8S108.1,113,108.1,114
		C108.1,114,108.1,113,108.1,114z"/>
</g>
<g>
	<path class="st0" d="M108.1,108.1c0,1,0.8,1.8,1.8,1.8s1.8-0.8,1.8-1.8s-0.8-1.8-1.8-1.8S108.1,107.1,108.1,108.1
		C108.1,108.1,108.1,107.1,108.1,108.1z"/>
</g>
<g>
	<path class="st0" d="M108.1,102.2c0,1,0.8,1.8,1.8,1.8s1.8-0.8,1.8-1.8c0-1-0.8-1.8-1.8-1.8S108.1,101.2,108.1,102.2
		C108.1,102.2,108.1,101.2,108.1,102.2z"/>
</g>
<g>
	<path class="st0" d="M108.1,96.3c0,1,0.8,1.8,1.8,1.8s1.8-0.8,1.8-1.8s-0.8-1.8-1.8-1.8S108.1,95.3,108.1,96.3
		C108.1,96.3,108.1,95.3,108.1,96.3z"/>
</g>
<g>
	<path class="st0" d="M108.1,90.4c0,1,0.8,1.8,1.8,1.8s1.8-0.8,1.8-1.8s-0.8-1.8-1.8-1.8S108.1,89.4,108.1,90.4
		C108.1,90.4,108.1,89.4,108.1,90.4z"/>
</g>
<g>
	<path class="st0" d="M108.1,84.5c0,1,0.8,1.8,1.8,1.8s1.8-0.8,1.8-1.8s-0.8-1.8-1.8-1.8S108.1,83.5,108.1,84.5
		C108.1,84.5,108.1,83.5,108.1,84.5z"/>
</g>
<g>
	<path class="st0" d="M108.1,78.6c0,1,0.8,1.8,1.8,1.8s1.8-0.8,1.8-1.8c0-1-0.8-1.8-1.8-1.8S108.1,77.6,108.1,78.6
		C108.1,78.6,108.1,77.6,108.1,78.6z"/>
</g>
<g>
	<path class="st0" d="M108.1,72.7c0,1,0.8,1.8,1.8,1.8s1.8-0.8,1.8-1.8s-0.8-1.8-1.8-1.8S108.1,71.7,108.1,72.7
		C108.1,72.7,108.1,71.7,108.1,72.7z"/>
</g>
<g>
	<path class="st0" d="M108.1,66.7c0,1,0.8,1.8,1.8,1.8s1.8-0.8,1.8-1.8s-0.8-1.8-1.8-1.8S108.1,65.8,108.1,66.7
		C108.1,66.7,108.1,65.8,108.1,66.7z"/>
</g>
<g>
	<path class="st0" d="M108.1,60.8c0,1,0.8,1.8,1.8,1.8s1.8-0.8,1.8-1.8c0-1-0.8-1.8-1.8-1.8S108.1,59.9,108.1,60.8
		C108.1,60.8,108.1,59.9,108.1,60.8z"/>
</g>
<g>
	<path class="st0" d="M114.8,90.4c0,1,0.8,1.8,1.8,1.8c1,0,1.8-0.8,1.8-1.8l0,0c0-1-0.8-1.8-1.8-1.8
		C115.6,88.6,114.8,89.4,114.8,90.4L114.8,90.4z"/>
</g>
<g>
	<path class="st0" d="M114.8,84.5c0,1,0.8,1.8,1.8,1.8c1,0,1.8-0.8,1.8-1.8l0,0c0-1-0.8-1.8-1.8-1.8
		C115.6,82.7,114.8,83.5,114.8,84.5L114.8,84.5z"/>
</g>
<g>
	<path class="st0" d="M114.8,78.6c0,1,0.8,1.7,1.8,1.7c1,0,1.8-0.8,1.8-1.7v0c0-1-0.8-1.8-1.8-1.8C115.6,76.8,114.8,77.6,114.8,78.6
		L114.8,78.6z"/>
</g>
<g>
	<path class="st0" d="M114.8,72.7c0,1,0.8,1.8,1.8,1.8c1,0,1.8-0.8,1.8-1.8l0,0c0-1-0.8-1.8-1.8-1.8
		C115.6,70.9,114.8,71.7,114.8,72.7L114.8,72.7z"/>
</g>
<g>
	<path class="st0" d="M114.8,66.7c0,1,0.8,1.8,1.8,1.8c1,0,1.8-0.8,1.8-1.8l0,0c0-1-0.8-1.8-1.8-1.8C115.6,65,114.8,65.8,114.8,66.7
		L114.8,66.7z"/>
</g>
<g>
	<path class="st0" d="M114.8,60.8c0,1,0.8,1.8,1.8,1.8c1,0,1.8-0.8,1.8-1.8l0,0c0-1-0.8-1.8-1.8-1.8
		C115.6,59.1,114.8,59.9,114.8,60.8L114.8,60.8z"/>
</g>
<g>
	<path class="st0" d="M121.6,66.7c0,1,0.8,1.8,1.8,1.8s1.8-0.8,1.8-1.8l0,0c0-1-0.8-1.8-1.8-1.8S121.6,65.8,121.6,66.7L121.6,66.7z"
		/>
</g>
<g>
	<path class="st0" d="M121.6,60.8c0,1,0.8,1.8,1.8,1.8s1.8-0.8,1.8-1.8l0,0c0-1-0.8-1.8-1.8-1.8S121.6,59.9,121.6,60.8L121.6,60.8z"
		/>
</g>
<g>
	<path class="st0" d="M128.3,108.1c0,1,0.8,1.8,1.8,1.8c1,0,1.8-0.8,1.8-1.8l0,0c0-1-0.8-1.8-1.8-1.8
		C129.1,106.3,128.3,107.1,128.3,108.1L128.3,108.1z"/>
</g>
<g>
	<path class="st0" d="M128.3,102.2c0,1,0.8,1.8,1.8,1.8c1,0,1.8-0.8,1.8-1.8v0c0-1-0.8-1.7-1.8-1.7
		C129.1,100.4,128.3,101.2,128.3,102.2L128.3,102.2z"/>
</g>
<g>
	<path class="st0" d="M128.3,96.3c0,1,0.8,1.8,1.8,1.8c1,0,1.8-0.8,1.8-1.8l0,0c0-1-0.8-1.8-1.8-1.8
		C129.1,94.5,128.3,95.3,128.3,96.3L128.3,96.3z"/>
</g>
<g>
	<path class="st0" d="M128.3,90.4c0,1,0.8,1.8,1.8,1.8c1,0,1.8-0.8,1.8-1.8l0,0c0-1-0.8-1.8-1.8-1.8
		C129.1,88.6,128.3,89.4,128.3,90.4L128.3,90.4z"/>
</g>
<g>
	<path class="st0" d="M128.3,84.5c0,1,0.8,1.8,1.8,1.8c1,0,1.8-0.8,1.8-1.8l0,0c0-1-0.8-1.8-1.8-1.8
		C129.1,82.7,128.3,83.5,128.3,84.5L128.3,84.5z"/>
</g>
<g>
	<path class="st0" d="M128.3,78.6c0,1,0.8,1.7,1.8,1.7c1,0,1.8-0.8,1.8-1.7v0c0-1-0.8-1.8-1.8-1.8C129.1,76.8,128.3,77.6,128.3,78.6
		L128.3,78.6z"/>
</g>
<g>
	<path class="st0" d="M128.3,72.7c0,1,0.8,1.8,1.8,1.8c1,0,1.8-0.8,1.8-1.8l0,0c0-1-0.8-1.8-1.8-1.8
		C129.1,70.9,128.3,71.7,128.3,72.7L128.3,72.7z"/>
</g>
<g>
	<path class="st0" d="M128.3,66.7c0,1,0.8,1.8,1.8,1.8c1,0,1.8-0.8,1.8-1.8l0,0c0-1-0.8-1.8-1.8-1.8C129.1,65,128.3,65.8,128.3,66.7
		L128.3,66.7z"/>
</g>
<g>
	<path class="st0" d="M128.3,60.8c0,1,0.8,1.8,1.8,1.8c1,0,1.8-0.8,1.8-1.8l0,0c0-1-0.8-1.8-1.8-1.8
		C129.1,59.1,128.3,59.9,128.3,60.8L128.3,60.8z"/>
</g>
<g>
	<path class="st0" d="M135.1,102.2c0,1,0.8,1.8,1.8,1.8c1,0,1.8-0.8,1.8-1.8v0c0-1-0.8-1.7-1.8-1.7
		C135.8,100.4,135.1,101.2,135.1,102.2L135.1,102.2z"/>
</g>
<g>
	<path class="st0" d="M135.1,96.3c0,1,0.8,1.8,1.8,1.8c1,0,1.8-0.8,1.8-1.8l0,0c0-1-0.8-1.8-1.8-1.8
		C135.8,94.5,135.1,95.3,135.1,96.3L135.1,96.3z"/>
</g>
<g>
	<path class="st0" d="M135.1,90.4c0,1,0.8,1.8,1.8,1.8c1,0,1.8-0.8,1.8-1.8l0,0c0-1-0.8-1.8-1.8-1.8
		C135.8,88.6,135.1,89.4,135.1,90.4L135.1,90.4z"/>
</g>
<g>
	<path class="st0" d="M135.1,84.5c0,1,0.8,1.8,1.8,1.8c1,0,1.8-0.8,1.8-1.8l0,0c0-1-0.8-1.8-1.8-1.8
		C135.8,82.7,135.1,83.5,135.1,84.5L135.1,84.5z"/>
</g>
<g>
	<path class="st0" d="M135.1,78.6c0,1,0.8,1.7,1.8,1.7c1,0,1.8-0.8,1.8-1.7v0c0-1-0.8-1.8-1.8-1.8C135.8,76.8,135.1,77.6,135.1,78.6
		L135.1,78.6z"/>
</g>
<g>
	<path class="st0" d="M135.1,72.7c0,1,0.8,1.8,1.8,1.8c1,0,1.8-0.8,1.8-1.8l0,0c0-1-0.8-1.8-1.8-1.8
		C135.8,70.9,135.1,71.7,135.1,72.7L135.1,72.7z"/>
</g>
<g>
	<path class="st0" d="M135.1,66.7c0,1,0.8,1.8,1.8,1.8c1,0,1.8-0.8,1.8-1.8l0,0c0-1-0.8-1.8-1.8-1.8C135.8,65,135.1,65.8,135.1,66.7
		L135.1,66.7z"/>
</g>
<g>
	<path class="st0" d="M135.1,60.8c0,1,0.8,1.8,1.8,1.8c1,0,1.8-0.8,1.8-1.8l0,0c0-1-0.8-1.8-1.8-1.8
		C135.8,59.1,135.1,59.9,135.1,60.8L135.1,60.8z"/>
</g>
<g>
	<path class="st0" d="M141.8,102.2c0,1,0.8,1.8,1.8,1.8c1,0,1.8-0.8,1.8-1.8c0-1-0.8-1.8-1.8-1.8
		C142.6,100.4,141.8,101.2,141.8,102.2C141.8,102.2,141.8,101.2,141.8,102.2z"/>
</g>
<g>
	<path class="st0" d="M141.8,96.3c0,1,0.8,1.8,1.8,1.8c1,0,1.8-0.8,1.8-1.8s-0.8-1.8-1.8-1.8C142.6,94.5,141.8,95.3,141.8,96.3
		C141.8,96.3,141.8,95.3,141.8,96.3z"/>
</g>
<g>
	<path class="st0" d="M141.8,90.4c0,1,0.8,1.8,1.8,1.8c1,0,1.8-0.8,1.8-1.8s-0.8-1.8-1.8-1.8C142.6,88.6,141.8,89.4,141.8,90.4
		C141.8,90.4,141.8,89.4,141.8,90.4z"/>
</g>
<g>
	<path class="st0" d="M141.8,84.5c0,1,0.8,1.8,1.8,1.8c1,0,1.8-0.8,1.8-1.8s-0.8-1.8-1.8-1.8C142.6,82.7,141.8,83.5,141.8,84.5
		C141.8,84.5,141.8,83.5,141.8,84.5z"/>
</g>
<g>
	<path class="st0" d="M141.8,78.6c0,1,0.8,1.8,1.8,1.8c1,0,1.8-0.8,1.8-1.8c0-1-0.8-1.8-1.8-1.8C142.6,76.8,141.8,77.6,141.8,78.6
		C141.8,78.6,141.8,77.6,141.8,78.6z"/>
</g>
<g>
	<path class="st0" d="M141.8,72.7c0,1,0.8,1.8,1.8,1.8c1,0,1.8-0.8,1.8-1.8s-0.8-1.8-1.8-1.8C142.6,70.9,141.8,71.7,141.8,72.7
		C141.8,72.7,141.8,71.7,141.8,72.7z"/>
</g>
<g>
	<path class="st0" d="M141.8,66.7c0,1,0.8,1.8,1.8,1.8c1,0,1.8-0.8,1.8-1.8s-0.8-1.8-1.8-1.8C142.6,65,141.8,65.8,141.8,66.7
		C141.8,66.7,141.8,65.8,141.8,66.7z"/>
</g>
<g>
	<path class="st0" d="M141.8,60.8c0,1,0.8,1.8,1.8,1.8c1,0,1.8-0.8,1.8-1.8c0-1-0.8-1.8-1.8-1.8C142.6,59.1,141.8,59.9,141.8,60.8
		C141.8,60.8,141.8,59.9,141.8,60.8z"/>
</g>
<g>
	<path class="st0" d="M148.6,66.7c0,1,0.8,1.8,1.8,1.8c1,0,1.8-0.8,1.8-1.8l0,0c0-1-0.8-1.8-1.8-1.8C149.4,65,148.6,65.8,148.6,66.7
		L148.6,66.7z"/>
</g>
<g>
	<path class="st0" d="M148.6,60.8c0,1,0.8,1.8,1.8,1.8c1,0,1.8-0.8,1.8-1.8l0,0c0-1-0.8-1.8-1.8-1.8
		C149.4,59.1,148.6,59.9,148.6,60.8L148.6,60.8z"/>
</g>
<g>
	<path class="st0" d="M155.3,114c0,1,0.8,1.8,1.8,1.8s1.8-0.8,1.8-1.8l0,0c0-1-0.8-1.8-1.8-1.8S155.3,113,155.3,114L155.3,114z"/>
</g>
<g>
	<path class="st0" d="M155.3,108.1c0,1,0.8,1.8,1.8,1.8s1.8-0.8,1.8-1.8l0,0c0-1-0.8-1.8-1.8-1.8S155.3,107.1,155.3,108.1
		L155.3,108.1z"/>
</g>
<g>
	<path class="st0" d="M155.3,102.2c0,1,0.8,1.8,1.8,1.8s1.8-0.8,1.8-1.8v0c0-1-0.8-1.7-1.8-1.7S155.3,101.2,155.3,102.2L155.3,102.2
		z"/>
</g>
<g>
	<path class="st0" d="M155.3,96.3c0,1,0.8,1.8,1.8,1.8s1.8-0.8,1.8-1.8l0,0c0-1-0.8-1.8-1.8-1.8S155.3,95.3,155.3,96.3L155.3,96.3z"
		/>
</g>
<g>
	<path class="st0" d="M155.3,90.4c0,1,0.8,1.8,1.8,1.8s1.8-0.8,1.8-1.8l0,0c0-1-0.8-1.8-1.8-1.8S155.3,89.4,155.3,90.4L155.3,90.4z"
		/>
</g>
<g>
	<path class="st0" d="M155.3,84.5c0,1,0.8,1.8,1.8,1.8s1.8-0.8,1.8-1.8l0,0c0-1-0.8-1.8-1.8-1.8S155.3,83.5,155.3,84.5L155.3,84.5z"
		/>
</g>
<g>
	<path class="st0" d="M155.3,78.6c0,1,0.8,1.7,1.8,1.7s1.8-0.8,1.8-1.7v0c0-1-0.8-1.8-1.8-1.8S155.3,77.6,155.3,78.6L155.3,78.6z"/>
</g>
<g>
	<path class="st0" d="M155.3,72.7c0,1,0.8,1.8,1.8,1.8s1.8-0.8,1.8-1.8l0,0c0-1-0.8-1.8-1.8-1.8S155.3,71.7,155.3,72.7L155.3,72.7z"
		/>
</g>
<g>
	<path class="st0" d="M155.3,66.7c0,1,0.8,1.8,1.8,1.8s1.8-0.8,1.8-1.8l0,0c0-1-0.8-1.8-1.8-1.8S155.3,65.8,155.3,66.7L155.3,66.7z"
		/>
</g>
<g>
	<path class="st0" d="M155.3,60.8c0,1,0.8,1.8,1.8,1.8s1.8-0.8,1.8-1.8l0,0c0-1-0.8-1.8-1.8-1.8S155.3,59.9,155.3,60.8L155.3,60.8z"
		/>
</g>
<g>
	<path class="st0" d="M162.1,119.9c0,1,0.8,1.8,1.8,1.8c1,0,1.8-0.8,1.8-1.8l0,0c0-1-0.8-1.8-1.8-1.8
		C162.9,118.2,162.1,119,162.1,119.9L162.1,119.9z"/>
</g>
<g>
	<path class="st0" d="M162.1,114c0,1,0.8,1.8,1.8,1.8c1,0,1.8-0.8,1.8-1.8l0,0c0-1-0.8-1.8-1.8-1.8C162.9,112.3,162.1,113,162.1,114
		L162.1,114z"/>
</g>
<g>
	<path class="st0" d="M162.1,108.1c0,1,0.8,1.8,1.8,1.8c1,0,1.8-0.8,1.8-1.8l0,0c0-1-0.8-1.8-1.8-1.8
		C162.9,106.3,162.1,107.1,162.1,108.1L162.1,108.1z"/>
</g>
<g>
	<path class="st0" d="M162.1,102.2c0,1,0.8,1.8,1.8,1.8c1,0,1.8-0.8,1.8-1.8v0c0-1-0.8-1.7-1.8-1.7
		C162.9,100.4,162.1,101.2,162.1,102.2L162.1,102.2z"/>
</g>
<g>
	<path class="st0" d="M162.1,96.3c0,1,0.8,1.8,1.8,1.8c1,0,1.8-0.8,1.8-1.8l0,0c0-1-0.8-1.8-1.8-1.8
		C162.9,94.5,162.1,95.3,162.1,96.3L162.1,96.3z"/>
</g>
<g>
	<path class="st0" d="M162.1,90.4c0,1,0.8,1.8,1.8,1.8c1,0,1.8-0.8,1.8-1.8l0,0c0-1-0.8-1.8-1.8-1.8
		C162.9,88.6,162.1,89.4,162.1,90.4L162.1,90.4z"/>
</g>
<g>
	<path class="st0" d="M162.1,84.5c0,1,0.8,1.8,1.8,1.8c1,0,1.8-0.8,1.8-1.8l0,0c0-1-0.8-1.8-1.8-1.8
		C162.9,82.7,162.1,83.5,162.1,84.5L162.1,84.5z"/>
</g>
<g>
	<path class="st0" d="M162.1,78.6c0,1,0.8,1.7,1.8,1.7c1,0,1.8-0.8,1.8-1.7v0c0-1-0.8-1.8-1.8-1.8C162.9,76.8,162.1,77.6,162.1,78.6
		L162.1,78.6z"/>
</g>
<g>
	<path class="st0" d="M162.1,72.7c0,1,0.8,1.8,1.8,1.8c1,0,1.8-0.8,1.8-1.8l0,0c0-1-0.8-1.8-1.8-1.8
		C162.9,70.9,162.1,71.7,162.1,72.7L162.1,72.7z"/>
</g>
<g>
	<path class="st0" d="M162.1,66.7c0,1,0.8,1.8,1.8,1.8c1,0,1.8-0.8,1.8-1.8l0,0c0-1-0.8-1.8-1.8-1.8C162.9,65,162.1,65.8,162.1,66.7
		L162.1,66.7z"/>
</g>
<g>
	<path class="st0" d="M162.1,60.8c0,1,0.8,1.8,1.8,1.8c1,0,1.8-0.8,1.8-1.8l0,0c0-1-0.8-1.8-1.8-1.8
		C162.9,59.1,162.1,59.9,162.1,60.8L162.1,60.8z"/>
</g>
<g>
	<path class="st0" d="M168.8,90.4c0,1,0.8,1.8,1.8,1.8c1,0,1.8-0.8,1.8-1.8l0,0c0-1-0.8-1.8-1.8-1.8
		C169.6,88.6,168.8,89.4,168.8,90.4L168.8,90.4z"/>
</g>
<g>
	<path class="st0" d="M168.8,84.5c0,1,0.8,1.8,1.8,1.8c1,0,1.8-0.8,1.8-1.8l0,0c0-1-0.8-1.8-1.8-1.8
		C169.6,82.7,168.8,83.5,168.8,84.5L168.8,84.5z"/>
</g>
<g>
	<path class="st0" d="M168.8,78.6c0,1,0.8,1.7,1.8,1.7c1,0,1.8-0.8,1.8-1.7v0c0-1-0.8-1.8-1.8-1.8C169.6,76.8,168.8,77.6,168.8,78.6
		L168.8,78.6z"/>
</g>
<g>
	<path class="st0" d="M168.8,72.7c0,1,0.8,1.8,1.8,1.8c1,0,1.8-0.8,1.8-1.8l0,0c0-1-0.8-1.8-1.8-1.8
		C169.6,70.9,168.8,71.7,168.8,72.7L168.8,72.7z"/>
</g>
<g>
	<path class="st0" d="M168.8,66.7c0,1,0.8,1.8,1.8,1.8c1,0,1.8-0.8,1.8-1.8l0,0c0-1-0.8-1.8-1.8-1.8C169.6,65,168.8,65.8,168.8,66.7
		L168.8,66.7z"/>
</g>
<g>
	<path class="st0" d="M168.8,60.8c0,1,0.8,1.8,1.8,1.8c1,0,1.8-0.8,1.8-1.8l0,0c0-1-0.8-1.8-1.8-1.8
		C169.6,59.1,168.8,59.9,168.8,60.8L168.8,60.8z"/>
</g>
<g>
	<path class="st0" d="M175.6,78.6c0,1,0.8,1.7,1.8,1.7c1,0,1.8-0.8,1.8-1.7v0c0-1-0.8-1.8-1.8-1.8C176.4,76.8,175.6,77.6,175.6,78.6
		L175.6,78.6z"/>
</g>
<g>
	<path class="st0" d="M175.6,72.7c0,1,0.8,1.8,1.8,1.8c1,0,1.8-0.8,1.8-1.8l0,0c0-1-0.8-1.8-1.8-1.8
		C176.4,70.9,175.6,71.7,175.6,72.7L175.6,72.7z"/>
</g>
<g>
	<path class="st0" d="M175.6,66.7c0,1,0.8,1.8,1.8,1.8c1,0,1.8-0.8,1.8-1.8l0,0c0-1-0.8-1.8-1.8-1.8C176.4,65,175.6,65.8,175.6,66.7
		L175.6,66.7z"/>
</g>
<g>
	<path class="st0" d="M175.6,60.8c0,1,0.8,1.8,1.8,1.8c1,0,1.8-0.8,1.8-1.8l0,0c0-1-0.8-1.8-1.8-1.8
		C176.4,59.1,175.6,59.9,175.6,60.8L175.6,60.8z"/>
</g>
<g>
	<path class="st0" d="M182.3,119.9c0,1,0.8,1.8,1.8,1.8c1,0,1.8-0.8,1.8-1.8l0,0c0-1-0.8-1.8-1.8-1.8
		C183.1,118.2,182.3,119,182.3,119.9L182.3,119.9z"/>
</g>
<g>
	<path class="st0" d="M182.3,114c0,1,0.8,1.8,1.8,1.8c1,0,1.8-0.8,1.8-1.8l0,0c0-1-0.8-1.8-1.8-1.8C183.1,112.3,182.3,113,182.3,114
		L182.3,114z"/>
</g>
<g>
	<path class="st0" d="M182.3,108.1c0,1,0.8,1.8,1.8,1.8c1,0,1.8-0.8,1.8-1.8l0,0c0-1-0.8-1.8-1.8-1.8
		C183.1,106.3,182.3,107.1,182.3,108.1L182.3,108.1z"/>
</g>
<g>
	<path class="st0" d="M182.3,102.2c0,1,0.8,1.8,1.8,1.8c1,0,1.8-0.8,1.8-1.8v0c0-1-0.8-1.7-1.8-1.7
		C183.1,100.4,182.3,101.2,182.3,102.2L182.3,102.2z"/>
</g>
<g>
	<path class="st0" d="M182.3,96.3c0,1,0.8,1.8,1.8,1.8c1,0,1.8-0.8,1.8-1.8l0,0c0-1-0.8-1.8-1.8-1.8
		C183.1,94.5,182.3,95.3,182.3,96.3L182.3,96.3z"/>
</g>
<g>
	<path class="st0" d="M182.3,90.4c0,1,0.8,1.8,1.8,1.8c1,0,1.8-0.8,1.8-1.8l0,0c0-1-0.8-1.8-1.8-1.8
		C183.1,88.6,182.3,89.4,182.3,90.4L182.3,90.4z"/>
</g>
<g>
	<path class="st0" d="M182.3,84.5c0,1,0.8,1.8,1.8,1.8c1,0,1.8-0.8,1.8-1.8l0,0c0-1-0.8-1.8-1.8-1.8
		C183.1,82.7,182.3,83.5,182.3,84.5L182.3,84.5z"/>
</g>
<g>
	<path class="st0" d="M182.3,78.6c0,1,0.8,1.7,1.8,1.7c1,0,1.8-0.8,1.8-1.7v0c0-1-0.8-1.8-1.8-1.8C183.1,76.8,182.3,77.6,182.3,78.6
		L182.3,78.6z"/>
</g>
<g>
	<path class="st0" d="M182.3,72.7c0,1,0.8,1.8,1.8,1.8c1,0,1.8-0.8,1.8-1.8l0,0c0-1-0.8-1.8-1.8-1.8
		C183.1,70.9,182.3,71.7,182.3,72.7L182.3,72.7z"/>
</g>
<g>
	<path class="st0" d="M182.3,66.7c0,1,0.8,1.8,1.8,1.8c1,0,1.8-0.8,1.8-1.8l0,0c0-1-0.8-1.8-1.8-1.8C183.1,65,182.3,65.8,182.3,66.7
		L182.3,66.7z"/>
</g>
<g>
	<path class="st0" d="M182.3,60.8c0,1,0.8,1.8,1.8,1.8c1,0,1.8-0.8,1.8-1.8l0,0c0-1-0.8-1.8-1.8-1.8
		C183.1,59.1,182.3,59.9,182.3,60.8L182.3,60.8z"/>
</g>
<g>
	<path class="st0" d="M189.1,102.2c0,1,0.8,1.8,1.8,1.8s1.8-0.8,1.8-1.8v0c0-1-0.8-1.7-1.8-1.7S189.1,101.2,189.1,102.2L189.1,102.2
		z"/>
</g>
<g>
	<path class="st0" d="M189.1,96.3c0,1,0.8,1.8,1.8,1.8s1.8-0.8,1.8-1.8l0,0c0-1-0.8-1.8-1.8-1.8S189.1,95.3,189.1,96.3L189.1,96.3z"
		/>
</g>
<g>
	<path class="st0" d="M189.1,90.4c0,1,0.8,1.8,1.8,1.8s1.8-0.8,1.8-1.8l0,0c0-1-0.8-1.8-1.8-1.8S189.1,89.4,189.1,90.4L189.1,90.4z"
		/>
</g>
<g>
	<path class="st0" d="M189.1,84.5c0,1,0.8,1.8,1.8,1.8s1.8-0.8,1.8-1.8l0,0c0-1-0.8-1.8-1.8-1.8S189.1,83.5,189.1,84.5L189.1,84.5z"
		/>
</g>
<g>
	<path class="st0" d="M189.1,78.6c0,1,0.8,1.7,1.8,1.7s1.8-0.8,1.8-1.7v0c0-1-0.8-1.8-1.8-1.8S189.1,77.6,189.1,78.6L189.1,78.6z"/>
</g>
<g>
	<path class="st0" d="M189.1,72.7c0,1,0.8,1.8,1.8,1.8s1.8-0.8,1.8-1.8l0,0c0-1-0.8-1.8-1.8-1.8S189.1,71.7,189.1,72.7L189.1,72.7z"
		/>
</g>
<g>
	<path class="st0" d="M189.1,66.7c0,1,0.8,1.8,1.8,1.8s1.8-0.8,1.8-1.8l0,0c0-1-0.8-1.8-1.8-1.8S189.1,65.8,189.1,66.7L189.1,66.7z"
		/>
</g>
<g>
	<path class="st0" d="M189.1,60.8c0,1,0.8,1.8,1.8,1.8s1.8-0.8,1.8-1.8l0,0c0-1-0.8-1.8-1.8-1.8S189.1,59.9,189.1,60.8L189.1,60.8z"
		/>
</g>
<g>
	<path class="st0" d="M195.8,60.8c0,1,0.8,1.8,1.8,1.8c1,0,1.8-0.8,1.8-1.8l0,0c0-1-0.8-1.8-1.8-1.8
		C196.6,59.1,195.8,59.9,195.8,60.8L195.8,60.8z"/>
</g>
<g>
	<path class="st0" d="M202.6,66.7c0,1,0.8,1.8,1.8,1.8c1,0,1.8-0.8,1.8-1.8l0,0c0-1-0.8-1.8-1.8-1.8C203.4,65,202.6,65.8,202.6,66.7
		L202.6,66.7z"/>
</g>
<g>
	<path class="st0" d="M202.6,60.8c0,1,0.8,1.8,1.8,1.8c1,0,1.8-0.8,1.8-1.8l0,0c0-1-0.8-1.8-1.8-1.8
		C203.4,59.1,202.6,59.9,202.6,60.8L202.6,60.8z"/>
</g>
<g>
	<path class="st0" d="M209.3,72.7c0,1,0.8,1.8,1.8,1.8c1,0,1.8-0.8,1.8-1.8l0,0c0-1-0.8-1.8-1.8-1.8
		C210.1,70.9,209.3,71.7,209.3,72.7L209.3,72.7z"/>
</g>
<g>
	<path class="st0" d="M209.3,66.7c0,1,0.8,1.8,1.8,1.8c1,0,1.8-0.8,1.8-1.8l0,0c0-1-0.8-1.8-1.8-1.8C210.1,65,209.3,65.8,209.3,66.7
		L209.3,66.7z"/>
</g>
<g>
	<path class="st0" d="M209.3,60.8c0,1,0.8,1.8,1.8,1.8c1,0,1.8-0.8,1.8-1.8l0,0c0-1-0.8-1.8-1.8-1.8
		C210.1,59.1,209.3,59.9,209.3,60.8L209.3,60.8z"/>
</g>
<g>
	<path class="st0" d="M27,54.9c0,1,0.8,1.8,1.8,1.8c1,0,1.8-0.8,1.8-1.8l0,0c0-1-0.8-1.8-1.8-1.8C27.8,53.2,27,54,27,54.9L27,54.9z"
		/>
</g>
<g>
	<path class="st0" d="M33.8,49c0,1,0.8,1.8,1.8,1.8c1,0,1.8-0.8,1.8-1.8l0,0c0-1-0.8-1.8-1.8-1.8C34.5,47.3,33.8,48.1,33.8,49
		L33.8,49z"/>
</g>
<g>
	<path class="st0" d="M33.8,54.9c0,1,0.8,1.8,1.8,1.8c1,0,1.8-0.8,1.8-1.8l0,0c0-1-0.8-1.8-1.8-1.8C34.5,53.2,33.8,54,33.8,54.9
		L33.8,54.9z"/>
</g>
<g>
	<path class="st0" d="M33.8,60.8c0,1,0.8,1.8,1.8,1.8c1,0,1.8-0.8,1.8-1.8l0,0c0-1-0.8-1.8-1.8-1.8C34.5,59.1,33.8,59.9,33.8,60.8
		L33.8,60.8z"/>
</g>
<g>
	<path class="st0" d="M27,66.7c0,1,0.8,1.8,1.8,1.8c1,0,1.8-0.8,1.8-1.8l0,0c0-1-0.8-1.8-1.8-1.8C27.8,65,27,65.8,27,66.7L27,66.7z"
		/>
</g>
<g>
	<path class="st0" d="M33.8,72.7c0,1,0.8,1.8,1.8,1.8c1,0,1.8-0.8,1.8-1.8l0,0c0-1-0.8-1.8-1.8-1.8C34.5,70.9,33.8,71.7,33.8,72.7
		L33.8,72.7z"/>
</g>
<g>
	<path class="st0" d="M33.8,66.7c0,1,0.8,1.8,1.8,1.8c1,0,1.8-0.8,1.8-1.8l0,0c0-1-0.8-1.8-1.8-1.8C34.5,65,33.8,65.8,33.8,66.7
		L33.8,66.7z"/>
</g>
<g>
	<path class="st0" d="M227.8,60.8c0,1,0.8,1.8,1.8,1.8c1,0,1.8-0.8,1.8-1.8l0,0c0-1-0.8-1.8-1.8-1.8
		C228.6,59.1,227.8,59.9,227.8,60.8L227.8,60.8z"/>
</g>
<g>
	<path class="st0" d="M222.1,72.7c0,1,0.8,1.8,1.8,1.8c1,0,1.8-0.8,1.8-1.8l0,0c0-1-0.8-1.8-1.8-1.8
		C222.9,70.9,222.1,71.7,222.1,72.7L222.1,72.7z"/>
</g>
<g>
	<path class="st0" d="M222.1,66.7c0,1,0.8,1.8,1.8,1.8c1,0,1.8-0.8,1.8-1.8l0,0c0-1-0.8-1.8-1.8-1.8C222.9,65,222.1,65.8,222.1,66.7
		L222.1,66.7z"/>
</g>
<g>
	<path class="st0" d="M227.8,66.7c0,1,0.8,1.8,1.8,1.8c1,0,1.8-0.8,1.8-1.8l0,0c0-1-0.8-1.8-1.8-1.8C228.6,65,227.8,65.8,227.8,66.7
		L227.8,66.7z"/>
</g>
<g>
	<path class="st0" d="M222.1,60.8c0,1,0.8,1.8,1.8,1.8c1,0,1.8-0.8,1.8-1.8l0,0c0-1-0.8-1.8-1.8-1.8
		C222.9,59.1,222.1,59.9,222.1,60.8L222.1,60.8z"/>
</g>
<g>
	<path class="st0" d="M227.8,54.9c0,1,0.8,1.8,1.8,1.8c1,0,1.8-0.8,1.8-1.8l0,0c0-1-0.8-1.8-1.8-1.8C228.6,53.2,227.8,54,227.8,54.9
		L227.8,54.9z"/>
</g>
<g>
	<path class="st0" d="M227.8,60.8c0,1,0.8,1.8,1.8,1.8c1,0,1.8-0.8,1.8-1.8l0,0c0-1-0.8-1.8-1.8-1.8
		C228.6,59.1,227.8,59.9,227.8,60.8L227.8,60.8z"/>
</g>
<g>
	<path class="st0" d="M222.1,49c0,1,0.8,1.8,1.8,1.8c1,0,1.8-0.8,1.8-1.8l0,0c0-1-0.8-1.8-1.8-1.8C222.9,47.3,222.1,48.1,222.1,49
		L222.1,49z"/>
</g>
<g>
	<path class="st0" d="M222.1,54.9c0,1,0.8,1.8,1.8,1.8c1,0,1.8-0.8,1.8-1.8l0,0c0-1-0.8-1.8-1.8-1.8C222.9,53.2,222.1,54,222.1,54.9
		L222.1,54.9z"/>
</g>
<g>
	<path class="st0" d="M33.8,60.8c0,1,0.8,1.8,1.8,1.8c1,0,1.8-0.8,1.8-1.8l0,0c0-1-0.8-1.8-1.8-1.8C34.5,59.1,33.8,59.9,33.8,60.8
		L33.8,60.8z"/>
</g>
<g>
	<path class="st0" d="M6.8,60.8c0,1,0.8,1.8,1.8,1.8s1.8-0.8,1.8-1.8l0,0c0-1-0.8-1.8-1.8-1.8S6.8,59.9,6.8,60.8L6.8,60.8z"/>
</g>
<g>
	<path class="st0" d="M13.5,60.8c0,1,0.8,1.8,1.8,1.8s1.8-0.8,1.8-1.8l0,0c0-1-0.8-1.8-1.8-1.8S13.5,59.9,13.5,60.8L13.5,60.8z"/>
</g>
<g>
	<path class="st0" d="M20.3,60.8c0,1,0.8,1.8,1.8,1.8c1,0,1.8-0.8,1.8-1.8l0,0c0-1-0.8-1.8-1.8-1.8C21,59.1,20.3,59.9,20.3,60.8
		L20.3,60.8z"/>
</g>
<g>
	<path class="st0" d="M27,60.8c0,1,0.8,1.8,1.8,1.8c1,0,1.8-0.8,1.8-1.8l0,0c0-1-0.8-1.8-1.8-1.8C27.8,59.1,27,59.9,27,60.8L27,60.8
		z"/>
</g>
<g>
	<path class="st0" d="M6.8,60.8c0,1,0.8,1.8,1.8,1.8s1.8-0.8,1.8-1.8l0,0c0-1-0.8-1.8-1.8-1.8S6.8,59.9,6.8,60.8L6.8,60.8z"/>
</g>
<g>
	<path class="st0" d="M13.5,60.8c0,1,0.8,1.8,1.8,1.8s1.8-0.8,1.8-1.8l0,0c0-1-0.8-1.8-1.8-1.8S13.5,59.9,13.5,60.8L13.5,60.8z"/>
</g>
<g>
	<path class="st0" d="M20.3,60.8c0,1,0.8,1.8,1.8,1.8c1,0,1.8-0.8,1.8-1.8l0,0c0-1-0.8-1.8-1.8-1.8C21,59.1,20.3,59.9,20.3,60.8
		L20.3,60.8z"/>
</g>
<g>
	<path class="st0" d="M27,60.8c0,1,0.8,1.8,1.8,1.8c1,0,1.8-0.8,1.8-1.8l0,0c0-1-0.8-1.8-1.8-1.8C27.8,59.1,27,59.9,27,60.8L27,60.8
		z"/>
</g>
<g>
	<path class="st0" d="M0,60.8c0,1,0.8,1.8,1.8,1.8s1.8-0.8,1.8-1.8l0,0c0-1-0.8-1.8-1.8-1.8S0,59.9,0,60.8L0,60.8z"/>
</g>
<g>
	<path class="st0" d="M0,60.8c0,1,0.8,1.8,1.8,1.8s1.8-0.8,1.8-1.8l0,0c0-1-0.8-1.8-1.8-1.8S0,59.9,0,60.8L0,60.8z"/>
</g>
<g>
	<path class="st0" d="M216.1,96.3c0,1,0.8,1.8,1.8,1.8c1,0,1.8-0.8,1.8-1.8l0,0c0-1-0.8-1.8-1.8-1.8
		C216.9,94.5,216.1,95.3,216.1,96.3L216.1,96.3z"/>
</g>
<g>
	<path class="st0" d="M216.1,90.4c0,1,0.8,1.8,1.8,1.8c1,0,1.8-0.8,1.8-1.8l0,0c0-1-0.8-1.8-1.8-1.8
		C216.9,88.6,216.1,89.4,216.1,90.4L216.1,90.4z"/>
</g>
<g>
	<path class="st0" d="M216.1,84.5c0,1,0.8,1.8,1.8,1.8c1,0,1.8-0.8,1.8-1.8l0,0c0-1-0.8-1.8-1.8-1.8
		C216.9,82.7,216.1,83.5,216.1,84.5L216.1,84.5z"/>
</g>
<g>
	<path class="st0" d="M216.1,78.6c0,1,0.8,1.7,1.8,1.7c1,0,1.8-0.8,1.8-1.7v0c0-1-0.8-1.8-1.8-1.8C216.9,76.8,216.1,77.6,216.1,78.6
		L216.1,78.6z"/>
</g>
<g>
	<path class="st0" d="M216.1,72.7c0,1,0.8,1.8,1.8,1.8c1,0,1.8-0.8,1.8-1.8l0,0c0-1-0.8-1.8-1.8-1.8
		C216.9,70.9,216.1,71.7,216.1,72.7L216.1,72.7z"/>
</g>
<g>
	<path class="st0" d="M216.1,66.7c0,1,0.8,1.8,1.8,1.8c1,0,1.8-0.8,1.8-1.8l0,0c0-1-0.8-1.8-1.8-1.8C216.9,65,216.1,65.8,216.1,66.7
		L216.1,66.7z"/>
</g>
<g>
	<path class="st0" d="M216.1,60.8c0,1,0.8,1.8,1.8,1.8c1,0,1.8-0.8,1.8-1.8l0,0c0-1-0.8-1.8-1.8-1.8
		C216.9,59.1,216.1,59.9,216.1,60.8L216.1,60.8z"/>
</g>
<g>
	<path class="st0" d="M233.6,60.8c0,1,0.8,1.8,1.8,1.8c1,0,1.8-0.8,1.8-1.8l0,0c0-1-0.8-1.8-1.8-1.8
		C234.4,59.1,233.6,59.9,233.6,60.8L233.6,60.8z"/>
</g>
<g>
	<path class="st0" d="M240.3,60.8c0,1,0.8,1.8,1.8,1.8c1,0,1.8-0.8,1.8-1.8l0,0c0-1-0.8-1.8-1.8-1.8
		C241.1,59.1,240.3,59.9,240.3,60.8L240.3,60.8z"/>
</g>
<g>
	<path class="st0" d="M247.1,60.8c0,1,0.8,1.8,1.8,1.8c1,0,1.8-0.8,1.8-1.8l0,0c0-1-0.8-1.8-1.8-1.8
		C247.9,59.1,247.1,59.9,247.1,60.8L247.1,60.8z"/>
</g>
<g>
	<path class="st0" d="M233.6,60.8c0,1,0.8,1.8,1.8,1.8c1,0,1.8-0.8,1.8-1.8l0,0c0-1-0.8-1.8-1.8-1.8
		C234.4,59.1,233.6,59.9,233.6,60.8L233.6,60.8z"/>
</g>
<g>
	<path class="st0" d="M240.3,60.8c0,1,0.8,1.8,1.8,1.8c1,0,1.8-0.8,1.8-1.8l0,0c0-1-0.8-1.8-1.8-1.8
		C241.1,59.1,240.3,59.9,240.3,60.8L240.3,60.8z"/>
</g>
<g>
	<path class="st0" d="M258.8,60.8c0,1,0.8,1.8,1.8,1.8s1.8-0.8,1.8-1.8l0,0c0-1-0.8-1.8-1.8-1.8S258.8,59.9,258.8,60.8L258.8,60.8z"
		/>
</g>
<g>
	<path class="st0" d="M253.1,60.8c0,1,0.8,1.8,1.8,1.8c1,0,1.7-0.8,1.7-1.8l0,0c0-1-0.8-1.8-1.7-1.8
		C253.9,59.1,253.1,59.9,253.1,60.8L253.1,60.8z"/>
</g>
<g>
	<path class="st0" d="M258.8,60.8c0,1,0.8,1.8,1.8,1.8s1.8-0.8,1.8-1.8l0,0c0-1-0.8-1.8-1.8-1.8S258.8,59.9,258.8,60.8L258.8,60.8z"
		/>
</g>
<g>
	<path class="st0" d="M247.1,60.8c0,1,0.8,1.8,1.8,1.8c1,0,1.8-0.8,1.8-1.8l0,0c0-1-0.8-1.8-1.8-1.8
		C247.9,59.1,247.1,59.9,247.1,60.8L247.1,60.8z"/>
</g>
</svg>
