<?xml version="1.0" encoding="utf-8"?>
<!-- Generator: Adobe Illustrator 24.2.3, SVG Export Plug-In . SVG Version: 6.00 Build 0)  -->
<svg version="1.1" id="Mode_Isolation" xmlns="http://www.w3.org/2000/svg" xmlns:xlink="http://www.w3.org/1999/xlink" x="0px"
	 y="0px" viewBox="0 0 84.8 84.8" style="enable-background:new 0 0 84.8 84.8;" xml:space="preserve">
<style type="text/css">
	.st0{fill-rule:evenodd;clip-rule:evenodd;fill:#A8A8A8;}
	.st1{fill:#A8A8A8;}
</style>
<path class="st0" d="M65.2,37.4C63,36.8,63,36.8,63,36.8c-0.5-1.7-1.4-3.3-2.2-5c1.4-2.2,1.4-2.2,1.4-2.2c0.3-0.6,0.5-1.7,0-2.2
	c-4.7-4.7-4.7-4.7-4.7-4.7c-0.3-0.3-0.6-0.3-1.1-0.3c-0.3,0-0.8,0.3-1.1,0.3C53,24,53,24,53,24c-1.7-0.8-3.3-1.7-5-2.2
	c-0.6-2.2-0.6-2.2-0.6-2.2c-0.3-0.8-0.8-1.7-1.7-1.7c-6.7,0-6.7,0-6.7,0c-0.8,0-1.4,0.8-1.7,1.7c-0.6,2.2-0.6,2.2-0.6,2.2
	c-1.7,0.6-3.3,1.4-5,2.2c-2.2-1.4-2.2-1.4-2.2-1.4c-0.3,0-0.8-0.3-1.1-0.3c-0.6,0-0.8,0-1.1,0.3c-4.7,4.7-4.7,4.7-4.7,4.7
	c-0.5,0.6-0.3,1.7,0,2.2c1.4,2.2,1.4,2.2,1.4,2.2c-0.8,1.7-1.7,3.3-2.2,5c-2.2,0.6-2.2,0.6-2.2,0.6c-0.8,0.3-1.7,0.8-1.7,1.7
	c0,6.7,0,6.7,0,6.7c0,0.8,0.8,1.4,1.7,1.7c2.2,0.6,2.2,0.6,2.2,0.6c0.5,1.7,1.4,3.3,2.2,5c-1.4,2.2-1.4,2.2-1.4,2.2
	c-0.3,0.6-0.5,1.7,0,2.2c4.7,4.7,4.7,4.7,4.7,4.7c0.3,0.3,0.6,0.3,1.1,0.3c0.3,0,0.8-0.3,1.1-0.3c2.2-1.4,2.2-1.4,2.2-1.4
	c1.7,0.8,3.3,1.7,5,2.2c0.6,2.2,0.6,2.2,0.6,2.2c0.3,0.8,0.8,1.7,1.7,1.7c6.7,0,6.7,0,6.7,0c0.8,0,1.4-0.8,1.7-1.7
	C48,63,48,63,48,63c1.7-0.6,3.3-1.4,5-2.2c2.2,1.4,2.2,1.4,2.2,1.4c0.3,0,0.8,0.3,1.1,0.3c0.6,0,0.8,0,1.1-0.3
	c4.7-4.7,4.7-4.7,4.7-4.7c0.5-0.6,0.3-1.7,0-2.2C60.8,53,60.8,53,60.8,53c0.8-1.7,1.7-3.3,2.2-5c2.2-0.6,2.2-0.6,2.2-0.6
	c0.8-0.3,1.7-0.8,1.7-1.7c0-6.7,0-6.7,0-6.7C66.9,38.2,66,37.6,65.2,37.4 M64.7,45.2L64.7,45.2c-2.2,0.6-2.2,0.6-2.2,0.6
	c-0.8,0.3-1.4,0.8-1.7,1.7c-0.6,1.4-1.1,3.1-1.9,4.5c-0.3,0.8-0.3,1.7,0,2.2c1.4,2.2,1.4,2.2,1.4,2.2c-3.9,3.9-3.9,3.9-3.9,3.9l0,0
	c-2.2-1.4-2.2-1.4-2.2-1.4c-0.3-0.3-0.5-0.3-1.1-0.3c-0.3,0-0.8,0-1.1,0.3c-1.4,0.8-3.1,1.4-4.5,1.9c-0.8,0.3-1.4,0.8-1.7,1.7
	c-0.6,2.2-0.6,2.2-0.6,2.2l0,0c-5.6,0-5.6,0-5.6,0C39,62.4,39,62.4,39,62.4c-0.3-0.8-0.8-1.4-1.7-1.7c-1.4-0.6-3.1-1.1-4.5-1.9
	c-0.3-0.3-0.8-0.3-1.1-0.3c-0.6,0-0.8,0-1.1,0.3c-2,1.4-2,1.4-2,1.4c-0.3,0-0.3,0-0.3,0c-3.9-3.9-3.9-3.9-3.9-3.9
	c1.4-2.2,1.4-2.2,1.4-2.2c0.3-0.6,0.3-1.4,0-2.2c-0.8-1.4-1.4-3.1-1.9-4.5c-0.3-0.8-0.8-1.4-1.7-1.7c-2.2-0.6-2.2-0.6-2.2-0.6l0,0
	c0-5.6,0-5.6,0-5.6c2.2-0.6,2.2-0.6,2.2-0.6c0.8-0.3,1.4-0.8,1.7-1.7c0.6-1.4,1.1-3.1,1.9-4.5c0.3-0.8,0.3-1.7,0-2.2
	c-1.4-2.2-1.4-2.2-1.4-2.2l0,0c3.9-3.9,3.9-3.9,3.9-3.9c2.2,1.4,2.2,1.4,2.2,1.4c0.3,0.3,0.5,0.3,1.1,0.3c0.3,0,0.8,0,1.1-0.3
	c1.4-0.8,3.1-1.4,4.5-1.9c0.8-0.3,1.4-0.8,1.7-1.7c0.6-2.2,0.6-2.2,0.6-2.2c5.6,0,5.6,0,5.6,0l0,0c0.6,2.2,0.6,2.2,0.6,2.2
	c0.3,0.8,0.8,1.4,1.7,1.7c1.4,0.6,3.1,1.1,4.5,1.9c0.3,0.3,0.8,0.3,1.1,0.3c0.6,0,0.8,0,1.1-0.3c2.2-1.4,2.2-1.4,2.2-1.4
	c3.9,3.9,3.9,3.9,3.9,3.9s0,0,0,0.3c-1.4,1.9-1.4,1.9-1.4,1.9c-0.3,0.6-0.3,1.4,0,2.2c0.8,1.4,1.4,3.1,1.9,4.5
	c0.3,0.8,0.8,1.4,1.7,1.7c2.2,0.6,2.2,0.6,2.2,0.6V45.2z M42.4,31.2c-6.1,0-11.1,5-11.1,11.1s5,11.1,11.1,11.1
	c6.1,0,11.1-5,11.1-11.1S48.5,31.2,42.4,31.2 M42.4,51.3c-5,0-8.9-3.9-8.9-8.9s3.9-8.9,8.9-8.9s8.9,3.9,8.9,8.9S47.4,51.3,42.4,51.3
	"/>
<g>
	<path class="st1" d="M42.4,2c22.3,0,40.4,18.1,40.4,40.4S64.7,82.8,42.4,82.8S2,64.7,2,42.4S20.1,2,42.4,2 M42.4,0
		C19,0,0,19,0,42.4s19,42.4,42.4,42.4s42.4-19,42.4-42.4S65.8,0,42.4,0L42.4,0z"/>
</g>
</svg>
