<?xml version="1.0" encoding="utf-8"?>
<!-- Generator: Adobe Illustrator 24.2.3, SVG Export Plug-In . SVG Version: 6.00 Build 0)  -->
<svg version="1.1" id="Mode_Isolation" xmlns="http://www.w3.org/2000/svg" xmlns:xlink="http://www.w3.org/1999/xlink" x="0px"
	 y="0px" viewBox="0 0 84.8 84.8" style="enable-background:new 0 0 84.8 84.8;" xml:space="preserve">
<style type="text/css">
	.st0{fill-rule:evenodd;clip-rule:evenodd;fill:#1100FF;}
	.st1{fill:#FFFFFF;}
</style>
<g>
	<circle class="st0" cx="42.4" cy="42.4" r="42.4"/>
</g>
<path class="st1" d="M53.7,42.6c-1.4-1.4-2.6-2.6-3.8-3.8c-0.5-0.5-1.2-1.2-1.7-1.7c-0.8-0.8-1.3-1.3-1.6-1.6
	c-0.1-0.1-0.3-0.3-0.4-0.4c-0.3-0.3-0.3-0.3-0.3-0.3h0c-0.9-0.9-1.7-1.7-2.6-2.6c-0.5-0.5-1.2-1.2-1.7-1.7c-2.4-2.4-2.4-2.4-2.4-2.4
	c-0.7-0.7-2.1-0.7-2.7,0c-0.3,0.3-0.4,0.6-0.5,1l0,0v29.5l0,0c0,0.5,0.2,1,0.5,1.4c0.7,0.7,2.1,0.7,2.7,0c0.9-0.9,1.7-1.7,2.4-2.4
	s1.2-1.2,1.7-1.7c3.8-3.8,3.8-3.8,3.8-3.8c0,0,0,0,0,0c0.4-0.4,0.8-0.8,1.2-1.2c0.7-0.7,1.2-1.2,1.7-1.7c3.8-3.8,3.8-3.8,3.8-3.8
	c0.4-0.4,0.5-0.9,0.5-1.4C54.3,43.5,54.1,42.9,53.7,42.6z"/>
</svg>
