<?xml version="1.0" encoding="utf-8"?>
<!-- Generator: Adobe Illustrator 24.2.3, SVG Export Plug-In . SVG Version: 6.00 Build 0)  -->
<svg version="1.1" id="Mode_Isolation" xmlns="http://www.w3.org/2000/svg" xmlns:xlink="http://www.w3.org/1999/xlink" x="0px"
	 y="0px" viewBox="0 0 84.8 84.8" style="enable-background:new 0 0 84.8 84.8;" xml:space="preserve">
<style type="text/css">
	.st0{fill:#FFFFFF;}
</style>
<g>
	<path class="st0" d="M42.4,2c22.3,0,40.4,18.1,40.4,40.4S64.7,82.8,42.4,82.8S2,64.7,2,42.4S20.1,2,42.4,2 M42.4,0
		C19,0,0,19,0,42.4s19,42.4,42.4,42.4s42.4-19,42.4-42.4S65.8,0,42.4,0L42.4,0z"/>
</g>
<path class="st0" d="M54.3,44c0-0.5-0.2-1.1-0.5-1.4c-1.4-1.4-2.6-2.6-3.8-3.8c-0.5-0.5-1.2-1.2-1.7-1.7c-0.8-0.8-1.3-1.3-1.6-1.6
	c-0.1-0.1-0.3-0.3-0.4-0.4C46,34.8,46,34.8,46,34.8l0,0c-0.9-0.9-1.7-1.7-2.6-2.6c-0.5-0.5-1.2-1.2-1.7-1.7
	c-2.4-2.4-2.4-2.4-2.4-2.4c-0.7-0.7-2.1-0.7-2.7,0c-0.7,0.7-0.7,2.1,0,2.7c0.9,0.9,1.7,1.7,2.4,2.4s1.2,1.2,1.7,1.7
	c3.8,3.8,3.8,3.8,3.8,3.8l0,0c0.4,0.4,0.8,0.8,1.2,1.2c0.7,0.7,1.2,1.2,1.7,1.7c1.1,1.1,1.9,1.9,2.5,2.5c-0.9,0.9-1.7,1.7-2.5,2.5
	c-0.5,0.5-1.2,1.2-1.7,1.7c-0.8,0.8-1.3,1.3-1.6,1.6c-0.1,0.1-0.3,0.3-0.4,0.4c-0.3,0.3-0.3,0.3-0.3,0.3l0,0
	c-0.9,0.9-1.7,1.7-2.6,2.6c-0.5,0.5-1.2,1.2-1.7,1.7c-2.4,2.4-2.4,2.4-2.4,2.4C36,58,36,59.4,36.7,60c0.7,0.7,2.1,0.7,2.7,0
	c0.9-0.9,1.7-1.7,2.4-2.4s1.2-1.2,1.7-1.7c3.8-3.8,3.8-3.8,3.8-3.8l0,0c0.4-0.4,0.8-0.8,1.2-1.2c0.7-0.7,1.2-1.2,1.7-1.7
	c3.8-3.8,3.8-3.8,3.8-3.8C54.1,45.1,54.3,44.5,54.3,44z"/>
</svg>
