<?xml version="1.0" encoding="utf-8"?>
<!-- Generator: Adobe Illustrator 24.2.3, SVG Export Plug-In . SVG Version: 6.00 Build 0)  -->
<svg version="1.1" id="Mode_Isolation" xmlns="http://www.w3.org/2000/svg" xmlns:xlink="http://www.w3.org/1999/xlink" x="0px"
	 y="0px" viewBox="0 0 84.8 84.8" style="enable-background:new 0 0 84.8 84.8;" xml:space="preserve">
<style type="text/css">
	.st0{fill:#FE1B55;}
	.st1{fill:#FFFFFF;}
</style>
<ellipse transform="matrix(0.7071 -0.7071 0.7071 0.7071 -17.5626 42.4)" class="st0" cx="42.4" cy="42.4" rx="42.4" ry="42.4"/>
<path class="st1" d="M46.1,48.9c-0.3-0.3-0.7-0.7-1-1c-0.1-0.1-0.3-0.3-0.4-0.4c-0.6-0.6-1.1-1.1-1.6-1.6c-0.7-0.7-1.7-1.7-2.4-2.4
	c-0.6-0.6-1.1-1.1-1.6-1.6c0.6-0.6,1.1-1.1,1.6-1.6c0.1-0.1,0.1-0.1,0.2-0.2c0.1-0.1,0.3-0.3,0.4-0.4c0.9-0.9,1.8-1.8,2.5-2.5
	c1-1,1.7-1.7,2.4-2.4c5.4-5.4,5.4-5.4,5.4-5.4c1-1,1-2.9,0-3.9c-1-1-2.9-1-3.9,0c-1.9,1.9-3.7,3.7-5.4,5.4c-0.3,0.3-0.7,0.7-1,1
	c-0.1,0.1-0.3,0.3-0.4,0.4c-0.6,0.6-1.1,1.1-1.6,1.6c-0.7,0.7-1.7,1.7-2.4,2.4c-3.4,3.4-3.4,3.4-3.4,3.4c-0.5,0.5-0.7,1.3-0.7,2
	c0,0.8,0.2,1.5,0.7,2c1.2,1.2,2.4,2.4,3.4,3.4c0.1,0.1,0.1,0.1,0.2,0.2c0.1,0.1,0.3,0.3,0.4,0.4c0.9,0.9,1.8,1.8,2.5,2.5
	c1,1,1.7,1.7,2.4,2.4c5.4,5.4,5.4,5.4,5.4,5.4c1,1,2.9,1,3.9,0c1-1,1-2.9,0-3.9C49.6,52.3,47.9,50.6,46.1,48.9z"/>
</svg>
