<?xml version="1.0" encoding="UTF-8" standalone="no"?>
<svg
   xmlns:dc="http://purl.org/dc/elements/1.1/"
   xmlns:cc="http://creativecommons.org/ns#"
   xmlns:rdf="http://www.w3.org/1999/02/22-rdf-syntax-ns#"
   xmlns:svg="http://www.w3.org/2000/svg"
   xmlns="http://www.w3.org/2000/svg"
   xmlns:sodipodi="http://sodipodi.sourceforge.net/DTD/sodipodi-0.dtd"
   xmlns:inkscape="http://www.inkscape.org/namespaces/inkscape"
   version="1.1"
   id="Capa_1"
   x="0px"
   y="0px"
   width="487.811px"
   height="487.81px"
   viewBox="0 0 487.811 487.81"
   style="enable-background:new 0 0 487.811 487.81;"
   xml:space="preserve"
   sodipodi:docname="slow down red.svg"
   inkscape:version="1.0.2 (e86c8708, 2021-01-15)"><metadata
   id="metadata278"><rdf:RDF><cc:Work
       rdf:about=""><dc:format>image/svg+xml</dc:format><dc:type
         rdf:resource="http://purl.org/dc/dcmitype/StillImage" /></cc:Work></rdf:RDF></metadata><defs
   id="defs276" /><sodipodi:namedview
   pagecolor="#ffffff"
   bordercolor="#666666"
   borderopacity="1"
   objecttolerance="10"
   gridtolerance="10"
   guidetolerance="10"
   inkscape:pageopacity="0"
   inkscape:pageshadow="2"
   inkscape:window-width="1701"
   inkscape:window-height="954"
   id="namedview274"
   showgrid="false"
   inkscape:zoom="1.5067342"
   inkscape:cx="243.9055"
   inkscape:cy="243.905"
   inkscape:window-x="388"
   inkscape:window-y="0"
   inkscape:window-maximized="0"
   inkscape:current-layer="Capa_1"
   inkscape:document-rotation="0" />
<g
   id="g241"
   style="fill:#ff5555">
	<g
   id="_x33_6_24_"
   style="fill:#ff5555">
		<g
   id="g238"
   style="fill:#ff5555">
			<path
   d="M150.463,109.521h150.512c3.955,0,7.16-3.206,7.16-7.161c0-3.955-3.205-7.161-7.16-7.161H150.463     c-3.955,0-7.161,3.206-7.161,7.161C143.302,106.315,146.508,109.521,150.463,109.521z"
   id="path226"
   style="fill:#ff5555" />
			<path
   d="M15.853,179.537h150.511c3.955,0,7.161-3.206,7.161-7.161s-3.206-7.16-7.161-7.16H15.853     c-3.955,0-7.161,3.205-7.161,7.16S11.898,179.537,15.853,179.537z"
   id="path228"
   style="fill:#ff5555" />
			<path
   d="M56.258,253.214c0,3.955,3.206,7.162,7.161,7.162H213.93c3.955,0,7.161-3.207,7.161-7.162s-3.206-7.16-7.161-7.16H63.419     C59.464,246.054,56.258,249.259,56.258,253.214z"
   id="path230"
   style="fill:#ff5555" />
			<path
   d="M142.396,336.44H7.161C3.206,336.44,0,339.645,0,343.6s3.206,7.161,7.161,7.161h135.235c3.955,0,7.161-3.206,7.161-7.161     S146.351,336.44,142.396,336.44z"
   id="path232"
   style="fill:#ff5555" />
			<path
   d="M385.729,154.418c21.6,0,39.111-17.513,39.111-39.114s-17.512-39.113-39.111-39.113     c-21.605,0-39.119,17.513-39.119,39.113C346.609,136.905,364.123,154.418,385.729,154.418z"
   id="path234"
   style="fill:#ff5555" />
			<path
   d="M450.066,143.155c-22.459,31.459-52.533,35.102-84.895,15.89c-2.203-1.306-11.977-6.691-14.141-7.977     c-52.061-30.906-104.061-18.786-138.934,30.05c-14.819,20.771,19.455,40.459,34.108,19.93     c18.018-25.232,40.929-32.533,65.986-24.541c-12.83,22.27-24.047,44.405-39.875,75.853     c-15.832,31.448-50.787,56.562-84.374,36.92c-24.235-14.165-46.09,20.651-21.928,34.772     c45.854,26.799,99.619,10.343,127.066-24.493c0.952,0.509,1.958,0.968,3.062,1.354c22.422,7.812,51.814,28.61,60.77,35.981     c8.953,7.371,24.336,44.921,33.471,63.788c11.082,22.893,46.871,6.219,35.748-16.771c-10.355-21.406-27.736-64.129-41.293-74.938     c-10.875-8.669-31.988-24.803-49.895-33.956c12.115-23.466,24.729-46.679,38.008-69.491     c42.328,12.969,82.561-2.308,111.215-42.446C498.996,142.312,464.73,122.624,450.066,143.155z"
   id="path236"
   style="fill:#ff5555" />
		</g>
	</g>
</g>
<g
   id="g243">
</g>
<g
   id="g245">
</g>
<g
   id="g247">
</g>
<g
   id="g249">
</g>
<g
   id="g251">
</g>
<g
   id="g253">
</g>
<g
   id="g255">
</g>
<g
   id="g257">
</g>
<g
   id="g259">
</g>
<g
   id="g261">
</g>
<g
   id="g263">
</g>
<g
   id="g265">
</g>
<g
   id="g267">
</g>
<g
   id="g269">
</g>
<g
   id="g271">
</g>
<path
   style="fill:#fe1b55;fill-opacity:1;stroke-width:0.663687"
   d="m 400.98624,410.17056 c -6.54266,-2.50421 -8.54347,-5.48678 -18.70744,-27.88681 -7.64671,-16.85231 -17.85666,-36.66216 -21.14175,-41.02028 -7.22647,-9.58688 -39.42506,-30.24519 -61.26405,-39.30643 l -6.75094,-2.80103 -4.72226,5.20447 c -13.48884,14.86623 -31.63341,25.32738 -52.45854,30.24471 -10.36785,2.4481 -25.99796,2.86856 -36.83464,0.99087 -10.24041,-1.77437 -16.67774,-3.88582 -26.54748,-8.70758 -12.39697,-6.05641 -16.48878,-11.0053 -16.51896,-19.97904 -0.0194,-5.75599 2.30464,-10.60441 7.24904,-15.12333 7.34305,-6.71113 14.45023,-7.12531 25.76651,-1.50156 8.81884,4.3826 15.34351,6.05173 23.65648,6.05173 17.69203,0 35.86401,-10.12659 49.49324,-27.58078 5.53731,-7.09134 8.8669,-12.82614 17.66081,-30.41855 8.82749,-17.6596 19.25534,-37.57239 26.91597,-51.39812 3.10388,-5.60181 5.3798,-10.42049 5.063,-10.7196 -0.75244,-0.71042 -9.42165,-2.48028 -14.61865,-2.98446 -8.95423,-0.86869 -21.67045,2.125 -29.7643,7.00719 -2.07162,1.24959 -5.65206,3.82283 -7.95654,5.71831 -3.76803,3.09928 -6.01007,5.53138 -15.03693,16.31164 -1.45799,1.74118 -4.19712,3.97535 -6.08698,4.96482 -4.87319,2.55145 -12.41409,2.59622 -17.70538,0.10511 -4.75297,-2.23766 -7.56778,-4.67033 -9.8024,-8.47159 -1.48323,-2.5231 -1.80767,-3.86552 -1.78757,-7.39653 0.0307,-5.3911 1.18844,-7.70593 8.23657,-16.46823 28.90418,-35.93392 67.86163,-48.61953 108.21596,-35.23809 8.80913,2.9211 16.3972,6.57955 32.09296,15.47306 21.63421,12.25835 28.91822,14.88401 42.92824,15.47434 7.05067,0.29708 9.17794,0.13636 13.93743,-1.05305 11.54494,-2.88512 22.7753,-10.15395 30.74481,-19.89953 10.33122,-12.63362 13.28064,-14.68398 21.13924,-14.69542 8.42418,-0.0123 16.30417,4.6619 19.52695,11.58276 2.85765,6.13675 1.75808,11.04465 -4.28134,19.10952 -16.44024,21.95383 -36.37102,35.8407 -59.85367,41.70333 -5.61618,1.40213 -7.79148,1.57318 -19.91061,1.56562 -12.00977,-0.007 -14.3451,-0.19069 -19.91061,-1.56203 -9.22539,-2.27312 -9.17742,-2.27979 -11.47464,1.59543 -8.06772,13.60951 -35.66932,64.58744 -35.62769,65.80145 0.0107,0.31199 2.46298,1.91122 5.44952,3.55385 11.35854,6.24732 36.80809,24.20851 45.30546,31.97462 8.42948,7.70407 17.11339,23.40451 37.19408,67.24659 5.42507,11.84455 6.0772,15.71153 3.61485,21.4354 -1.73671,4.03711 -6.1123,8.31248 -10.49695,10.25652 -3.9704,1.76039 -11.43052,2.18043 -14.9308,0.8407 z"
   id="path52" /><path
   style="fill:#fe1b55;fill-opacity:1;stroke-width:0.663687"
   d="m 58.685756,257.89348 c -2.731867,-2.73187 -2.731867,-6.66186 0,-9.39372 l 1.940008,-1.94001 h 77.937366 77.93737 l 1.72929,1.60265 c 3.10192,2.87476 3.15445,7.04152 0.12694,10.06903 l -1.60206,1.60206 H 138.69021 60.625764 Z"
   id="path54" /><path
   style="fill:#fe1b55;fill-opacity:1;stroke-width:0.663687"
   d="m 146.30001,107.33994 -2.0555,-1.83659 2.86578,-3.63883 c 1.57618,-2.001357 3.24309,-4.033488 3.70425,-4.515846 0.46115,-0.482358 0.83846,-1.154341 0.83846,-1.493296 0,-0.375599 29.16788,-0.616281 74.68611,-0.616281 80.45152,0 77.73897,-0.114863 80.19808,3.396003 2.10941,3.01161 0.91753,7.91505 -2.33242,9.59567 -1.55207,0.80261 -13.48495,0.94576 -78.83908,0.94576 H 148.3555 Z"
   id="path56" /><path
   style="fill:#fe1b55;fill-opacity:1;stroke-width:0.663687"
   d="m 379.52775,153.61884 c -6.61595,-1.17916 -14.61257,-5.10001 -19.83653,-9.72614 -2.9885,-2.64651 -7.38404,-8.72835 -9.13698,-12.64229 -6.80094,-15.18506 -3.72426,-31.592075 8.12208,-43.312599 15.73313,-15.566036 40.20898,-15.001802 55.27816,1.27431 16.24292,17.543839 13.16342,44.650319 -6.59046,58.010959 -7.85416,5.3122 -19.23904,7.92803 -27.83627,6.39576 z"
   id="path58" /><path
   style="fill:#fe1b55;fill-opacity:1;stroke-width:0.663687"
   d="m 14.767541,179.06986 c -1.170403,-0.30586 -1.665511,-2.19725 -0.575172,-2.19725 0.322454,0 0.777874,-0.52266 1.012044,-1.16146 0.540292,-1.47387 2.157827,-4.44298 4.158039,-7.6324 l 1.560845,-2.48882 h 73.362051 c 64.136082,0 73.605832,0.12606 75.300492,1.0024 5.3197,2.75092 4.12492,10.58017 -1.86862,12.24478 -2.42655,0.67393 -150.399763,0.89911 -152.949679,0.23275 z"
   id="path60" /><path
   style="fill:#fe1b55;fill-opacity:1;stroke-width:0.663687"
   d="m 88.264764,348.93348 c 0.938748,-1.00383 1.87919,-2.49712 2.089869,-3.31844 0.210679,-0.82131 0.627845,-1.49329 0.927034,-1.49329 0.29919,0 0.749214,-1.64263 1.000054,-3.65028 l 0.456073,-3.65028 h 25.508436 c 21.45379,0 25.81656,0.15933 27.44687,1.0024 5.3197,2.75093 4.12492,10.58017 -1.86861,12.24478 -1.50138,0.41698 -13.12829,0.68429 -29.86259,0.68655 l -27.403952,0.004 z"
   id="path62" /></svg>
