<?xml version="1.0" encoding="UTF-8" standalone="no"?>
<svg
   xmlns:dc="http://purl.org/dc/elements/1.1/"
   xmlns:cc="http://creativecommons.org/ns#"
   xmlns:rdf="http://www.w3.org/1999/02/22-rdf-syntax-ns#"
   xmlns:svg="http://www.w3.org/2000/svg"
   xmlns="http://www.w3.org/2000/svg"
   xmlns:sodipodi="http://sodipodi.sourceforge.net/DTD/sodipodi-0.dtd"
   xmlns:inkscape="http://www.inkscape.org/namespaces/inkscape"
   version="1.1"
   id="Capa_1"
   x="0px"
   y="0px"
   width="487.811px"
   height="487.81px"
   viewBox="0 0 487.811 487.81"
   style="enable-background:new 0 0 487.811 487.81;"
   xml:space="preserve"
   sodipodi:docname="slow down.svg"
   inkscape:version="1.0.2 (e86c8708, 2021-01-15)"><metadata
   id="metadata278"><rdf:RDF><cc:Work
       rdf:about=""><dc:format>image/svg+xml</dc:format><dc:type
         rdf:resource="http://purl.org/dc/dcmitype/StillImage" /></cc:Work></rdf:RDF></metadata><defs
   id="defs276" /><sodipodi:namedview
   pagecolor="#ffffff"
   bordercolor="#666666"
   borderopacity="1"
   objecttolerance="10"
   gridtolerance="10"
   guidetolerance="10"
   inkscape:pageopacity="0"
   inkscape:pageshadow="2"
   inkscape:window-width="1701"
   inkscape:window-height="954"
   id="namedview274"
   showgrid="false"
   inkscape:zoom="1.5067342"
   inkscape:cx="243.9055"
   inkscape:cy="243.905"
   inkscape:window-x="0"
   inkscape:window-y="0"
   inkscape:window-maximized="0"
   inkscape:current-layer="Capa_1" />
<g
   id="g241"
   style="fill:#808080">
	<g
   id="_x33_6_24_"
   style="fill:#808080">
		<g
   id="g238"
   style="fill:#808080">
			<path
   d="M150.463,109.521h150.512c3.955,0,7.16-3.206,7.16-7.161c0-3.955-3.205-7.161-7.16-7.161H150.463     c-3.955,0-7.161,3.206-7.161,7.161C143.302,106.315,146.508,109.521,150.463,109.521z"
   id="path226"
   style="fill:#808080" />
			<path
   d="M15.853,179.537h150.511c3.955,0,7.161-3.206,7.161-7.161s-3.206-7.16-7.161-7.16H15.853     c-3.955,0-7.161,3.205-7.161,7.16S11.898,179.537,15.853,179.537z"
   id="path228"
   style="fill:#808080" />
			<path
   d="M56.258,253.214c0,3.955,3.206,7.162,7.161,7.162H213.93c3.955,0,7.161-3.207,7.161-7.162s-3.206-7.16-7.161-7.16H63.419     C59.464,246.054,56.258,249.259,56.258,253.214z"
   id="path230"
   style="fill:#808080" />
			<path
   d="M142.396,336.44H7.161C3.206,336.44,0,339.645,0,343.6s3.206,7.161,7.161,7.161h135.235c3.955,0,7.161-3.206,7.161-7.161     S146.351,336.44,142.396,336.44z"
   id="path232"
   style="fill:#808080" />
			<path
   d="M385.729,154.418c21.6,0,39.111-17.513,39.111-39.114s-17.512-39.113-39.111-39.113     c-21.605,0-39.119,17.513-39.119,39.113C346.609,136.905,364.123,154.418,385.729,154.418z"
   id="path234"
   style="fill:#808080" />
			<path
   d="M450.066,143.155c-22.459,31.459-52.533,35.102-84.895,15.89c-2.203-1.306-11.977-6.691-14.141-7.977     c-52.061-30.906-104.061-18.786-138.934,30.05c-14.819,20.771,19.455,40.459,34.108,19.93     c18.018-25.232,40.929-32.533,65.986-24.541c-12.83,22.27-24.047,44.405-39.875,75.853     c-15.832,31.448-50.787,56.562-84.374,36.92c-24.235-14.165-46.09,20.651-21.928,34.772     c45.854,26.799,99.619,10.343,127.066-24.493c0.952,0.509,1.958,0.968,3.062,1.354c22.422,7.812,51.814,28.61,60.77,35.981     c8.953,7.371,24.336,44.921,33.471,63.788c11.082,22.893,46.871,6.219,35.748-16.771c-10.355-21.406-27.736-64.129-41.293-74.938     c-10.875-8.669-31.988-24.803-49.895-33.956c12.115-23.466,24.729-46.679,38.008-69.491     c42.328,12.969,82.561-2.308,111.215-42.446C498.996,142.312,464.73,122.624,450.066,143.155z"
   id="path236"
   style="fill:#808080" />
		</g>
	</g>
</g>
<g
   id="g243">
</g>
<g
   id="g245">
</g>
<g
   id="g247">
</g>
<g
   id="g249">
</g>
<g
   id="g251">
</g>
<g
   id="g253">
</g>
<g
   id="g255">
</g>
<g
   id="g257">
</g>
<g
   id="g259">
</g>
<g
   id="g261">
</g>
<g
   id="g263">
</g>
<g
   id="g265">
</g>
<g
   id="g267">
</g>
<g
   id="g269">
</g>
<g
   id="g271">
</g>
</svg>
