<?xml version="1.0" encoding="utf-8"?>
<!-- Generator: Adobe Illustrator 24.3.0, SVG Export Plug-In . SVG Version: 6.00 Build 0)  -->
<svg version="1.1" xmlns="http://www.w3.org/2000/svg" xmlns:xlink="http://www.w3.org/1999/xlink" x="0px" y="0px"
	 viewBox="0 0 145.3 133.3" style="enable-background:new 0 0 145.3 133.3;" xml:space="preserve">
<g>
	<circle cx="34.9" cy="81.8" r="15.6"/>
	<path d="M57.2,116.4c1.8-5.2-11.7-12.6-17-13.8c-2.6-0.6-7.9-0.6-10.5,0c-5.3,1.2-18.8,8.6-17,13.8
		C16.4,126.8,53.5,126.8,57.2,116.4z" />
</g>
<g>
	<circle cx="109.3" cy="24.7" r="15.6"/>
	<path d="M131.5,59.3c1.8-5.2-11.7-12.6-17-13.8c-2.6-0.6-7.9-0.6-10.5,0c-5.3,1.2-18.8,8.6-17,13.8
		C90.8,69.8,127.8,69.8,131.5,59.3z" />
</g>
<path d="M88.5,36.3c1.5-0.7,1.8-2.6,0.7-3.8L72.9,14.3c-1.3-1.5-3.7-0.8-4.1,1.1l-1.1,5.7c-16.2-1.8-31.4,9.1-34.5,25.5
	c-0.8,4.2-0.7,8.2,0,12.1c0.5,2.6,4.2,2.6,4.7-0.1l0-0.1C40.5,46,52,37.5,64.4,38.6l-1.1,5.9C63,46.5,65,48,66.8,47.1L88.5,36.3z"/>
<path d="M60,103.2c-1.4,0.9-1.5,2.7-0.3,3.8l18.1,16.4c1.4,1.4,3.8,0.4,4-1.5l0.5-5.8c16.3,0.2,30.3-12.2,31.7-28.8
	c0.4-4.2-0.1-8.2-1.3-12.1c-0.8-2.5-4.4-2.1-4.7,0.5l0,0.1c-1.1,12.8-11.7,22.4-24.2,22.5l0.5-6c0.2-2-2-3.3-3.7-2.2L60,103.2z"/>
</svg>
