<?xml version="1.0" encoding="iso-8859-1"?>
<!-- Generator: Adobe Illustrator 16.0.0, SVG Export Plug-In . SVG Version: 6.00 Build 0)  -->
<!DOCTYPE svg PUBLIC "-//W3C//DTD SVG 1.1//EN" "http://www.w3.org/Graphics/SVG/1.1/DTD/svg11.dtd">
<svg version="1.1" id="Capa_1" xmlns="http://www.w3.org/2000/svg" xmlns:xlink="http://www.w3.org/1999/xlink" x="0px" y="0px"
	 width="594.792px" height="594.792px" viewBox="0 0 594.792 594.792" style="enable-background:new 0 0 594.792 594.792;"
	 xml:space="preserve">
<g>
	<g>
		<path d="M21.934,472.559c3.999,0,8.045-1.119,11.647-3.461l62.532-40.617c10.049,8.283,22.916,13.264,36.925,13.264h74.774
			l198.234,124.252c9.292,5.822,19.957,8.9,30.844,8.9c15.043,0,29.335-5.738,40.245-16.158c5.569-5.32,9.958-11.582,13.043-18.615
			c3.242-7.387,4.885-15.258,4.885-23.391V297.52v-0.247v-127.93l89.483-58.123c9.921-6.444,12.738-19.711,6.295-29.631
			s-19.71-12.739-29.631-6.295l-66.146,42.965v-40.2c0-8.134-1.644-16.005-4.886-23.393c-3.086-7.031-7.474-13.294-13.044-18.613
			c-10.91-10.421-25.203-16.159-40.245-16.159c-10.887,0-21.552,3.078-30.844,8.902L208.207,152.802h-75.168
			c-32.059,0-58.14,26.082-58.14,58.14v172.664c0,2.463,0.155,4.893,0.455,7.277l-65.107,42.289
			c-9.921,6.445-12.739,19.711-6.295,29.631C8.053,469.122,14.922,472.559,21.934,472.559z M452.226,297.273v0.247v219.213
			c0,8.971-7.364,15.324-15.335,15.324c-2.715,0-5.502-0.738-8.091-2.359L223.855,401.241c-2.435-1.527-5.251-2.336-8.125-2.336
			h-74.083L452.225,197.17L452.226,297.273L452.226,297.273z M117.738,210.942c0-8.45,6.85-15.3,15.3-15.3h83.086
			c2.874,0,5.69-0.81,8.125-2.336l204.548-128.21c2.59-1.623,5.375-2.36,8.092-2.36c7.971,0,15.335,6.355,15.335,15.325v68.025
			L117.738,363.352V210.942z"/>
		<path d="M436.891,575.397c-10.979,0-21.736-3.104-31.109-8.977L207.669,442.245h-74.63c-13.429,0-26.539-4.666-36.959-13.146
			l-62.226,40.418c-3.564,2.317-7.686,3.542-11.92,3.542c-7.464,0-14.343-3.732-18.402-9.983
			c-6.584-10.135-3.694-23.737,6.442-30.322l64.846-42.119c-0.279-2.324-0.42-4.687-0.42-7.028V210.942
			c0-32.334,26.306-58.64,58.64-58.64h75.024L405.78,28.373c9.372-5.874,20.129-8.978,31.109-8.978
			c15.172,0,29.588,5.788,40.591,16.297c5.616,5.363,10.043,11.68,13.156,18.774c3.27,7.451,4.928,15.389,4.928,23.593v39.279
			l65.374-42.463c3.565-2.316,7.688-3.54,11.921-3.54c7.463,0,14.342,3.731,18.401,9.982c6.584,10.137,3.694,23.739-6.441,30.323
			l-89.256,57.975v347.118c0,8.206-1.657,16.144-4.927,23.592c-3.11,7.091-7.536,13.408-13.155,18.775
			C466.478,569.61,452.062,575.397,436.891,575.397z M96.148,427.862l0.283,0.233c10.287,8.479,23.288,13.149,36.607,13.149h74.917
			l0.122,0.076l198.234,124.252c9.213,5.772,19.787,8.824,30.578,8.824c14.913,0,29.083-5.689,39.899-16.02
			c5.523-5.276,9.874-11.485,12.931-18.455c3.214-7.32,4.843-15.123,4.843-23.189V169.072l0.228-0.148l89.483-58.123
			c9.673-6.283,12.432-19.266,6.148-28.939c-3.875-5.965-10.44-9.527-17.563-9.527c-4.04,0-7.974,1.168-11.376,3.379l-66.919,43.466
			V78.06c0-8.065-1.63-15.868-4.844-23.192c-3.06-6.972-7.411-13.181-12.932-18.452c-10.815-10.331-24.985-16.021-39.899-16.021
			c-10.792,0-21.366,3.052-30.578,8.826L208.35,153.302h-75.312c-31.783,0-57.64,25.857-57.64,57.64v172.664
			c0,2.404,0.151,4.832,0.451,7.215l0.039,0.312l-0.263,0.17l-65.107,42.289c-9.674,6.285-12.432,19.267-6.148,28.939
			c3.874,5.967,10.439,9.528,17.563,9.528c4.04,0,7.973-1.169,11.375-3.38L96.148,427.862z M436.891,532.557
			c-2.922,0-5.812-0.842-8.356-2.436L223.59,401.665c-2.357-1.479-5.075-2.26-7.86-2.26h-75.771L452.725,196.25l0.001,320.483
			C452.726,525.458,445.622,532.557,436.891,532.557z M143.334,398.405h72.396c2.974,0,5.875,0.834,8.391,2.412l204.944,128.457
			c2.385,1.494,5.091,2.283,7.825,2.283c8.18,0,14.835-6.65,14.835-14.824l-0.001-318.642L143.334,398.405z M117.238,364.273
			V210.942c0-8.712,7.088-15.8,15.8-15.8h83.086c2.784,0,5.501-0.781,7.86-2.26l204.548-128.21c2.545-1.594,5.435-2.437,8.357-2.437
			c8.731,0,15.835,7.099,15.835,15.825v68.297l-0.228,0.148L117.238,364.273z M133.039,196.142c-8.161,0-14.8,6.639-14.8,14.8
			v151.489l333.487-216.617V78.06c0-8.174-6.655-14.825-14.835-14.825c-2.735,0-5.441,0.79-7.826,2.284l-204.548,128.21
			c-2.518,1.578-5.419,2.412-8.391,2.412H133.039z"/>
	</g>
</g>
<g>
</g>
<g>
</g>
<g>
</g>
<g>
</g>
<g>
</g>
<g>
</g>
<g>
</g>
<g>
</g>
<g>
</g>
<g>
</g>
<g>
</g>
<g>
</g>
<g>
</g>
<g>
</g>
<g>
</g>
</svg>
